<svg version="1.0" xmlns="http://www.w3.org/2000/svg"
     width="8000.000000pt" height="4500.000000pt" viewBox="0 0 8000.000000 4500.000000"
     preserveAspectRatio="xMidYMid meet">

    <g transform="translate(0.000000,4500.000000) scale(0.100000,-0.100000)"
       fill="#000000" stroke="none">
        <path d="M19395 31346 c-123 -39 -218 -126 -282 -257 -187 -385 -7678 -16618
-7690 -16664 -20 -79 -13 -201 16 -277 26 -67 103 -156 166 -193 23 -14 68
-35 101 -47 l59 -23 1145 -3 c1210 -3 1237 -2 1370 43 141 48 264 142 357 273
33 46 223 455 673 1445 l627 1382 3682 0 3683 0 593 -1310 c327 -720 609
-1339 627 -1374 127 -249 265 -377 465 -434 l78 -22 1167 -3 c1004 -2 1176 -1
1238 12 154 32 254 106 317 234 36 73 38 80 38 176 0 72 -5 116 -18 153 -41
117 -7629 16681 -7665 16733 -51 72 -122 126 -201 150 -55 18 -91 20 -285 19
-149 0 -234 -4 -261 -13z m1465 -8871 l1227 -2700 -1233 -3 c-679 -1 -1790 -1
-2469 0 l-1234 3 1185 2660 c652 1463 1194 2679 1204 2703 18 41 21 43 56 40
l37 -3 1227 -2700z"/>
        <path d="M62395 31353 c-1574 -81 -2908 -629 -3811 -1566 -723 -750 -1151
-1697 -1255 -2777 -16 -161 -15 -605 0 -785 135 -1558 927 -2786 2452 -3803
611 -407 1269 -741 2269 -1150 549 -224 1059 -473 1445 -705 946 -568 1442
-1172 1550 -1891 60 -400 4 -755 -171 -1096 -302 -585 -913 -980 -1684 -1087
-170 -23 -544 -23 -725 1 -891 116 -1954 579 -3159 1375 -339 225 -365 236
-541 236 -174 0 -290 -49 -403 -170 -59 -63 -123 -169 -539 -887 -260 -448
-486 -849 -503 -890 -112 -282 -44 -413 414 -797 607 -509 1454 -971 2313
-1262 769 -259 1522 -402 2373 -450 269 -15 959 -6 1175 15 831 82 1549 280
2220 611 540 266 977 577 1391 990 196 195 311 326 451 511 544 722 853 1531
924 2418 17 212 7 673 -20 891 -100 828 -378 1541 -854 2181 -647 872 -1626
1609 -3012 2268 -393 187 -623 286 -1355 588 -515 212 -1029 465 -1398 690
-792 481 -1244 1023 -1361 1630 -103 534 13 975 364 1389 249 292 654 533
1074 639 308 77 673 101 986 65 799 -93 1871 -547 3058 -1294 163 -102 204
-116 332 -116 120 1 203 27 321 100 158 98 175 121 741 971 572 858 552 822
561 997 8 150 -34 297 -116 405 -98 130 -623 475 -1151 757 -1067 568 -2268
917 -3425 994 -141 10 -772 12 -931 4z"/>
        <path d="M50193 31105 c-158 -43 -290 -166 -343 -320 -20 -58 -20 -78 -20
-8285 0 -8207 0 -8227 20 -8285 54 -157 185 -278 347 -320 86 -23 2400 -23
2486 0 161 42 288 158 349 321 l23 59 0 8225 0 8225 -23 59 c-61 163 -188 279
-349 321 -83 22 -2410 21 -2490 0z"/>
        <path d="M40740 27425 l-3215 -3215 1013 -1012 1012 -1013 3217 3217 3218
3218 -1010 1010 c-555 555 -1012 1010 -1015 1010 -3 0 -1452 -1447 -3220
-3215z"/>
        <path d="M30082 29568 l-1012 -1013 3187 -3187 3188 -3188 -3200 -3200 -3200
-3200 1015 -1015 1015 -1015 3217 3217 3218 3218 -987 987 -988 988 995 995
995 995 -3215 3215 -3215 3215 -1013 -1012z"/>
        <path d="M38495 21150 l-1010 -1010 3215 -3215 3215 -3215 1012 1012 1013
1013 -3212 3212 c-1767 1767 -3215 3213 -3218 3213 -3 0 -460 -455 -1015
-1010z"/>
    </g>
</svg>
