<svg class="animated" id="freepik_stories-shed" xmlns="http://www.w3.org/2000/svg" viewBox="25 29 450 432" version="1.1" xmlns:xlink="http://www.w3.org/1999/xlink" xmlns:svgjs="http://svgjs.com/svgjs"><style>svg#freepik_stories-shed:not(.animated) .animable {opacity: 0;}svg#freepik_stories-shed.animated #freepik--Floor--inject-218 {animation: 1s 1 forwards cubic-bezier(.36,-0.01,.5,1.38) fadeIn;animation-delay: 0s;}            @keyframes fadeIn {                0% {                    opacity: 0;                }                100% {                    opacity: 1;                }            }        .animator-hidden { display: none; }</style><g id="freepik--background-simple--inject-218" class="animable animator-hidden" style="transform-origin: 241.139px 253.557px;"><path d="M455.69,264.57C472.33,158.15,383.55,50.88,267,37.56c-1.45-.17-2.9-.32-4.36-.47C181.17,29,106.72,91.22,85.44,138.67s-77,92.6-56.35,180.56,76.74,134.82,208.27,148.69S393.15,444.17,428.07,362A420.16,420.16,0,0,0,455.69,264.57Z" style="fill: rgb(0, 0, 0); transform-origin: 241.139px 253.557px;" id="elafz9hn7g1bg" class="animable"></path><g id="elf6m6v33ujss"><path d="M455.69,264.57C472.33,158.15,383.55,50.88,267,37.56c-1.45-.17-2.9-.32-4.36-.47C181.17,29,106.72,91.22,85.44,138.67s-77,92.6-56.35,180.56,76.74,134.82,208.27,148.69S393.15,444.17,428.07,362A420.16,420.16,0,0,0,455.69,264.57Z" style="fill: rgb(255, 255, 255); opacity: 0.7; transform-origin: 241.139px 253.557px;" class="animable"></path></g></g><g id="freepik--Floor--inject-218" class="animable animator-active" style="transform-origin: 247.64px 471.62px;"><path d="M472.14,472.12h-449a.5.5,0,0,1-.5-.5.5.5,0,0,1,.5-.5h449a.51.51,0,0,1,.5.5A.5.5,0,0,1,472.14,472.12Z" style="fill: rgb(38, 50, 56); transform-origin: 247.64px 471.62px;" id="el6zmg0mwlfxi" class="animable"></path></g><g id="freepik--Trees--inject-218" class="animable" style="transform-origin: 273.67px 164.165px;"><path d="M484.56,132.42c24.28,123.12-52,71.84-116.15,71.84S223,246,252.26,132.42c16.74-64.9,52-105.48,116.15-105.48S474.32,80.5,484.56,132.42Z" style="fill: rgb(0, 0, 0); transform-origin: 367.646px 120.895px;" id="el6taq1qs8p8a" class="animable"></path><g id="elibfgekdfzqa"><path d="M484.56,132.42c24.28,123.12-52,71.84-116.15,71.84S223,246,252.26,132.42c16.74-64.9,52-105.48,116.15-105.48S474.32,80.5,484.56,132.42Z" style="fill: rgb(255, 255, 255); opacity: 0.3; transform-origin: 367.646px 120.895px;" class="animable"></path></g><polygon points="331.8 193.09 363.09 216.96 359.88 301.39 378.79 301.39 375.15 177.81 419.89 128.6 374.61 167.29 372.97 94.02 368.03 144.24 356.38 135.8 330.98 99.78 347.31 132.52 294.76 111.31 348.32 141.58 365.94 153.79 363.91 207.08 331.8 193.09" style="fill: rgb(161, 161, 161); transform-origin: 357.325px 197.705px;" id="elr6h4ryfrkk" class="animable"></polygon><path d="M349.45,73.48S347.74,81.41,351.3,88a45.38,45.38,0,0,0,8.42,11S363.26,86.42,349.45,73.48Z" style="fill: rgb(255, 255, 255); transform-origin: 354.583px 86.24px;" id="elhbar1vsf4xs" class="animable"></path><path d="M283,143.55s6.12,5.33,13.6,5.39a45,45,0,0,0,13.67-2.08S301,137.71,283,143.55Z" style="fill: rgb(255, 255, 255); transform-origin: 296.635px 145.271px;" id="elg0l1tslyjyw" class="animable"></path><path d="M273.64,176.42s7.42,3.28,14.59,1.12a45,45,0,0,0,12.42-6S289.1,165.51,273.64,176.42Z" style="fill: rgb(255, 255, 255); transform-origin: 287.145px 174.077px;" id="el0ewqska2xopv" class="animable"></path><path d="M318,179.84s8.11-.1,13.73-5.05a45,45,0,0,0,8.79-10.67S327.5,163.48,318,179.84Z" style="fill: rgb(255, 255, 255); transform-origin: 329.26px 171.978px;" id="elisznzr585d" class="animable"></path><path d="M299.27,81.68s1.84,7.91,7.87,12.33a45.27,45.27,0,0,0,12.3,6.31S317.29,87.49,299.27,81.68Z" style="fill: rgb(255, 255, 255); transform-origin: 309.355px 91px;" id="elwq0xgykegal" class="animable"></path><path d="M431.58,75.82s-8,1.14-13,6.76a45.26,45.26,0,0,0-7.36,11.7S424.21,93.26,431.58,75.82Z" style="fill: rgb(255, 255, 255); transform-origin: 421.4px 85.05px;" id="el5ovsq9b9ooy" class="animable"></path><path d="M459.42,117.58s-7.94-1.71-14.51,1.86a45.09,45.09,0,0,0-11,8.43S446.48,131.4,459.42,117.58Z" style="fill: rgb(255, 255, 255); transform-origin: 446.665px 122.722px;" id="el67sqpld1ekq" class="animable"></path><path d="M456.7,165s-5.72-5.76-13.18-6.36a45.35,45.35,0,0,0-13.78,1.11S438.32,169.54,456.7,165Z" style="fill: rgb(255, 255, 255); transform-origin: 443.22px 162.361px;" id="elqj5r4kscz6" class="animable"></path><path d="M425.62,190.46s-3.29-7.42-10.05-10.63A45,45,0,0,0,402.31,176S406.83,188.15,425.62,190.46Z" style="fill: rgb(255, 255, 255); transform-origin: 413.965px 183.23px;" id="el6ey7yhjs2k2" class="animable"></path><path d="M409.27,113.5s-8,1.14-13,6.75a45.26,45.26,0,0,0-7.36,11.7S401.9,130.94,409.27,113.5Z" style="fill: rgb(255, 255, 255); transform-origin: 399.09px 122.725px;" id="elixjwgqi3rdo" class="animable"></path><path d="M277.62,103s3.57,7.29,10.45,10.24a45,45,0,0,0,13.4,3.37S296.48,104.62,277.62,103Z" style="fill: rgb(255, 255, 255); transform-origin: 289.545px 109.805px;" id="elmjtu0qsi12" class="animable"></path><path d="M392.19,64.64s-6.5,4.85-8.14,12.15a45,45,0,0,0-.85,13.8S394.09,83.47,392.19,64.64Z" style="fill: rgb(255, 255, 255); transform-origin: 387.71px 77.615px;" id="elc22gud3yd2n" class="animable"></path><path d="M367.66,41.68s-3.69,7.23-1.94,14.5a45.07,45.07,0,0,0,5.33,12.75S377.68,57.74,367.66,41.68Z" style="fill: rgb(255, 255, 255); transform-origin: 369.225px 55.305px;" id="eltf608jmv4gb" class="animable"></path><path d="M314.55,49.4s0,8.12,4.87,13.8A45.06,45.06,0,0,0,330,72.12S330.78,59.14,314.55,49.4Z" style="fill: rgb(255, 255, 255); transform-origin: 322.278px 60.76px;" id="elck0qvx9uhlj" class="animable"></path><path d="M226.32,182.23c17.13,86.82-36.67,50.66-81.91,50.66S41.85,262.34,62.5,182.23c11.8-45.77,36.67-74.39,81.91-74.39S219.1,145.61,226.32,182.23Z" style="fill: rgb(0, 0, 0); transform-origin: 143.87px 174.099px;" id="elg54mtw35zqe" class="animable"></path><g id="elsjys1jgwfu"><path d="M226.32,182.23c17.13,86.82-36.67,50.66-81.91,50.66S41.85,262.34,62.5,182.23c11.8-45.77,36.67-74.39,81.91-74.39S219.1,145.61,226.32,182.23Z" style="fill: rgb(255, 255, 255); opacity: 0.3; transform-origin: 143.87px 174.099px;" class="animable"></path></g><polygon points="118.59 225.01 140.65 241.85 138.39 301.39 151.72 301.39 149.16 214.24 180.72 179.53 148.78 206.82 147.62 155.15 144.14 190.56 135.93 184.61 118.01 159.21 129.53 182.3 92.47 167.34 130.24 188.68 142.67 197.3 141.24 234.88 118.59 225.01" style="fill: rgb(161, 161, 161); transform-origin: 136.595px 228.27px;" id="elkxup2m65ltp" class="animable"></polygon><path d="M131,140.66s-1.21,5.59,1.3,10.23a31.74,31.74,0,0,0,5.94,7.73S140.78,149.79,131,140.66Z" style="fill: rgb(255, 255, 255); transform-origin: 134.623px 149.64px;" id="eladk8qvxutfa" class="animable"></path><path d="M84.14,190.07s4.32,3.76,9.59,3.81a32.05,32.05,0,0,0,9.64-1.47S96.84,186,84.14,190.07Z" style="fill: rgb(255, 255, 255); transform-origin: 93.755px 191.299px;" id="el649xh7brtbi" class="animable"></path><path d="M77.57,213.26s5.24,2.31,10.29.79a31.94,31.94,0,0,0,8.76-4.27S88.48,205.56,77.57,213.26Z" style="fill: rgb(255, 255, 255); transform-origin: 87.095px 211.597px;" id="el1jx4nnpjoze" class="animable"></path><path d="M108.84,215.67s5.73-.07,9.69-3.56a31.76,31.76,0,0,0,6.19-7.53S115.56,204.13,108.84,215.67Z" style="fill: rgb(255, 255, 255); transform-origin: 116.78px 210.124px;" id="elr937b4ssv0q" class="animable"></path><path d="M95.65,146.44s1.3,5.58,5.55,8.7a32,32,0,0,0,8.67,4.45S108.35,150.54,95.65,146.44Z" style="fill: rgb(255, 255, 255); transform-origin: 102.76px 153.015px;" id="elhbr7ayuilbp" class="animable"></path><path d="M189,142.31s-5.66.8-9.15,4.77a32,32,0,0,0-5.19,8.25S183.76,154.61,189,142.31Z" style="fill: rgb(255, 255, 255); transform-origin: 181.83px 148.82px;" id="elz0760ouhtaq" class="animable"></path><path d="M208.59,171.76s-5.6-1.2-10.23,1.31a32,32,0,0,0-7.72,6S199.47,181.51,208.59,171.76Z" style="fill: rgb(255, 255, 255); transform-origin: 199.615px 175.407px;" id="eljt23hfmo9u" class="animable"></path><path d="M206.67,205.21s-4-4.06-9.29-4.48a31.91,31.91,0,0,0-9.72.78S193.71,208.41,206.67,205.21Z" style="fill: rgb(255, 255, 255); transform-origin: 197.165px 203.351px;" id="elcda0q0uvjz" class="animable"></path><path d="M184.75,223.16s-2.32-5.23-7.08-7.5a32,32,0,0,0-9.36-2.74S171.51,221.53,184.75,223.16Z" style="fill: rgb(255, 255, 255); transform-origin: 176.53px 218.04px;" id="elyja05wuqq" class="animable"></path><path d="M173.22,168.88s-5.67.81-9.15,4.77a31.65,31.65,0,0,0-5.19,8.25S168,181.18,173.22,168.88Z" style="fill: rgb(255, 255, 255); transform-origin: 166.05px 175.39px;" id="el6yuawys85gf" class="animable"></path><path d="M80.38,161.5s2.52,5.14,7.37,7.22a31.68,31.68,0,0,0,9.45,2.38S93.68,162.62,80.38,161.5Z" style="fill: rgb(255, 255, 255); transform-origin: 88.79px 166.3px;" id="ellti2e5rlk3" class="animable"></path><path d="M161.18,134.43s-4.59,3.42-5.75,8.57a32,32,0,0,0-.59,9.73S162.52,147.71,161.18,134.43Z" style="fill: rgb(255, 255, 255); transform-origin: 158.02px 143.58px;" id="el9kdecci07z6" class="animable"></path><path d="M143.88,118.24s-2.61,5.09-1.37,10.22a31.67,31.67,0,0,0,3.76,9S150.94,129.56,143.88,118.24Z" style="fill: rgb(255, 255, 255); transform-origin: 144.98px 127.85px;" id="ell7jmpc0r2ii" class="animable"></path><path d="M106.42,123.68s0,5.72,3.44,9.73a31.84,31.84,0,0,0,7.44,6.29S117.87,130.55,106.42,123.68Z" style="fill: rgb(255, 255, 255); transform-origin: 111.862px 131.69px;" id="elda1krtusknv" class="animable"></path></g><g id="freepik--Fence--inject-218" class="animable animator-hidden" style="transform-origin: 253.395px 379.23px;"><path d="M483.62,302H453.75a.5.5,0,0,1,0-1h29.87a.5.5,0,0,1,0,1Z" style="fill: rgb(38, 50, 56); transform-origin: 468.685px 301.5px;" id="elm078kb3riff" class="animable"></path><path d="M448.69,302H75.58a.5.5,0,1,1,0-1H448.69a.5.5,0,1,1,0,1Z" style="fill: rgb(38, 50, 56); transform-origin: 262.135px 301.5px;" id="elvs06soq9vc" class="animable"></path><path d="M66.83,302H23.17a.5.5,0,0,1,0-1H66.83a.5.5,0,0,1,0,1Z" style="fill: rgb(38, 50, 56); transform-origin: 45px 301.5px;" id="elxn7i52fxc2" class="animable"></path><path d="M40.64,457.61a.5.5,0,0,1-.5-.5V426.86a.5.5,0,0,1,.5-.5.5.5,0,0,1,.5.5v30.25A.51.51,0,0,1,40.64,457.61Z" style="fill: rgb(38, 50, 56); transform-origin: 40.64px 441.985px;" id="el3e8l8shqoli" class="animable"></path><path d="M40.64,420.45a.5.5,0,0,1-.5-.5V301.35a.5.5,0,0,1,.5-.5.5.5,0,0,1,.5.5V420A.51.51,0,0,1,40.64,420.45Z" style="fill: rgb(38, 50, 56); transform-origin: 40.64px 360.65px;" id="eld2zg3jaak2r" class="animable"></path><path d="M88.12,457.61a.51.51,0,0,1-.5-.5V301.35a.5.5,0,0,1,.5-.5.5.5,0,0,1,.5.5V457.11A.5.5,0,0,1,88.12,457.61Z" style="fill: rgb(38, 50, 56); transform-origin: 88.12px 379.23px;" id="eltlfsh8y7b9g" class="animable"></path><path d="M135.61,457.61a.5.5,0,0,1-.5-.5V301.35a.5.5,0,0,1,1,0V457.11A.5.5,0,0,1,135.61,457.61Z" style="fill: rgb(38, 50, 56); transform-origin: 135.61px 379.23px;" id="elw3bg8ypdpx" class="animable"></path><path d="M183.1,457.61a.5.5,0,0,1-.5-.5V301.35a.5.5,0,0,1,.5-.5.5.5,0,0,1,.5.5V457.11A.51.51,0,0,1,183.1,457.61Z" style="fill: rgb(38, 50, 56); transform-origin: 183.1px 379.23px;" id="eljhmlp05r9us" class="animable"></path><path d="M230.58,457.61a.51.51,0,0,1-.5-.5V301.35a.5.5,0,0,1,.5-.5.5.5,0,0,1,.5.5V457.11A.5.5,0,0,1,230.58,457.61Z" style="fill: rgb(38, 50, 56); transform-origin: 230.58px 379.23px;" id="el878ko8uy2dk" class="animable"></path><path d="M278.07,457.61a.5.5,0,0,1-.5-.5V301.35a.5.5,0,0,1,1,0V457.11A.5.5,0,0,1,278.07,457.61Z" style="fill: rgb(38, 50, 56); transform-origin: 278.07px 379.23px;" id="elke234ek38bi" class="animable"></path><path d="M325.56,457.61a.5.5,0,0,1-.5-.5V301.35a.5.5,0,0,1,.5-.5.5.5,0,0,1,.5.5V457.11A.51.51,0,0,1,325.56,457.61Z" style="fill: rgb(38, 50, 56); transform-origin: 325.56px 379.23px;" id="elr4g9swen1jl" class="animable"></path><path d="M373,457.61a.51.51,0,0,1-.5-.5V301.35a.5.5,0,0,1,.5-.5.5.5,0,0,1,.5.5V457.11A.5.5,0,0,1,373,457.61Z" style="fill: rgb(38, 50, 56); transform-origin: 373px 379.23px;" id="eln0t17609co" class="animable"></path><path d="M420.53,457.61a.5.5,0,0,1-.5-.5V301.35a.5.5,0,0,1,1,0V457.11A.5.5,0,0,1,420.53,457.61Z" style="fill: rgb(38, 50, 56); transform-origin: 420.53px 379.23px;" id="el2rry9bghkrj" class="animable"></path><path d="M468,457.61a.5.5,0,0,1-.5-.5V408.43a.5.5,0,0,1,.5-.5.51.51,0,0,1,.5.5v48.68A.51.51,0,0,1,468,457.61Z" style="fill: rgb(38, 50, 56); transform-origin: 468px 432.77px;" id="eli63co47bxl" class="animable"></path><path d="M468,403.87a.5.5,0,0,1-.5-.5v-102a.5.5,0,0,1,.5-.5.5.5,0,0,1,.5.5v102A.51.51,0,0,1,468,403.87Z" style="fill: rgb(38, 50, 56); transform-origin: 468px 352.37px;" id="elq9t4ggg0n0b" class="animable"></path></g><g id="freepik--Clouds--inject-218" class="animable" style="transform-origin: 143.897px 62.6773px;"><path d="M247.4,67.66H88.61a.5.5,0,0,1-.39-.81l3.24-4c2.1-2.62,5.34-1.61,8.2-.72,1.93.61,3.76,1.17,4.93.59,1.47-.74,2.64-2.66,4-4.88a27.67,27.67,0,0,1,5.64-7.21c2.81-2.35,7.6.22,12.67,2.93,4.16,2.23,8.47,4.53,11,3.47,2.31-1,3-2.54,3.84-4.34,1.09-2.4,2.33-5.12,7.52-7,4.13-1.5,8.27.32,11.92,1.92,4.69,2.07,8.39,3.7,11.33-.91A46.13,46.13,0,0,0,176,39.2c2.84-6.92,5.51-13.45,17-14.66,15.06-1.6,33.42,25.71,35.2,28.41A13.54,13.54,0,0,0,235,52.6c2.45-.62,4.76-1.21,8.58,1.18,6.72,4.2,4.29,13.42,4.26,13.51A.48.48,0,0,1,247.4,67.66Zm-157.74-1H247c.36-1.68,1.44-8.69-3.91-12-3.46-2.16-5.38-1.67-7.8-1a14.47,14.47,0,0,1-7.44.31.5.5,0,0,1-.31-.22c-.19-.29-19.44-29.69-34.36-28.13-10.94,1.15-13.39,7.13-16.22,14a47.28,47.28,0,0,1-3.67,7.6c-3.39,5.33-8.06,3.28-12.58,1.29-3.64-1.61-7.41-3.26-11.16-1.9-4.8,1.74-5.9,4.15-7,6.48-.87,1.91-1.69,3.71-4.36,4.85-2.92,1.25-7.24-1.06-11.81-3.51s-9.27-5-11.56-3a27.16,27.16,0,0,0-5.43,7c-1.43,2.36-2.66,4.39-4.39,5.25-1.54.77-3.55.14-5.67-.52-2.68-.84-5.45-1.7-7.12.38Z" style="fill: rgb(38, 50, 56); transform-origin: 168.202px 46.0662px;" id="elu1fw1mx6fxo" class="animable"></path><path d="M128.43,100.88H40a.5.5,0,0,1-.39-.81l1.8-2.26c1.26-1.58,3.23-1,4.81-.47a4.22,4.22,0,0,0,2.58.34,7,7,0,0,0,2.12-2.63A15.69,15.69,0,0,1,54.12,91c1.68-1.4,4.41.07,7.3,1.61,2.28,1.22,4.63,2.47,5.91,1.93a3.7,3.7,0,0,0,2-2.31,6.58,6.58,0,0,1,4.32-4c2.38-.87,4.73.17,6.8,1.08,2.87,1.26,4.57,1.87,6-.43a25,25,0,0,0,2-4.11C90,81,91.6,77.11,98.15,76.42c8.4-.9,18.5,14,19.76,15.84a7.16,7.16,0,0,0,3.58-.21,5.35,5.35,0,0,1,5,.69c3.88,2.42,2.53,7.55,2.47,7.77A.5.5,0,0,1,128.43,100.88Zm-87.38-1h87c.21-1.14.59-4.61-2.11-6.3a4.43,4.43,0,0,0-4.17-.56,8.22,8.22,0,0,1-4.25.18.5.5,0,0,1-.31-.22c-.11-.16-10.77-16.41-18.93-15.56-6,.62-7.29,3.9-8.84,7.68a27.84,27.84,0,0,1-2.06,4.27c-2,3.13-4.68,1.95-7.28.8-2-.87-4-1.78-6.06-1a5.64,5.64,0,0,0-3.75,3.49,4.64,4.64,0,0,1-2.54,2.81c-1.72.74-4.17-.57-6.77-2s-5-2.69-6.19-1.72a14.55,14.55,0,0,0-3,3.83c-.82,1.33-1.52,2.49-2.54,3s-2.09.11-3.32-.28c-1.75-.54-3-.83-3.73.15Z" style="fill: rgb(38, 50, 56); transform-origin: 84.3688px 88.6315px;" id="el2ouyry4uq4a" class="animable"></path></g><g id="freepik--Shed--inject-218" class="animable" style="transform-origin: 268.968px 327.847px;"><rect x="267.3" y="233.63" width="150.83" height="237.99" style="fill: rgb(0, 0, 0); transform-origin: 342.715px 352.625px;" id="elgmbr4sxlc5h" class="animable"></rect><g id="elnh1fyzwedys"><rect x="267.3" y="233.63" width="150.83" height="237.99" style="opacity: 0.3; transform-origin: 342.715px 352.625px;" class="animable"></rect></g><path d="M418.13,472.12H267.3a.5.5,0,0,1-.5-.5v-238a.5.5,0,0,1,.5-.5H418.13a.5.5,0,0,1,.5.5v238A.5.5,0,0,1,418.13,472.12Zm-150.33-1H417.63v-237H267.8Z" style="fill: rgb(38, 50, 56); transform-origin: 342.715px 352.62px;" id="elsptwauucpw" class="animable"></path><path d="M418,260.08H283.71a.5.5,0,0,1,0-1H418a.5.5,0,0,1,0,1Z" style="fill: rgb(38, 50, 56); transform-origin: 350.855px 259.58px;" id="eljummb7auml" class="animable"></path><path d="M418,290.63H283.71a.5.5,0,1,1,0-1H418a.5.5,0,0,1,0,1Z" style="fill: rgb(38, 50, 56); transform-origin: 350.855px 290.13px;" id="ela3awcj6324h" class="animable"></path><path d="M418,321.18H283.71a.5.5,0,0,1-.5-.5.51.51,0,0,1,.5-.5H418a.5.5,0,0,1,.5.5A.5.5,0,0,1,418,321.18Z" style="fill: rgb(38, 50, 56); transform-origin: 350.855px 320.68px;" id="elpodgdwvqx3" class="animable"></path><path d="M418,351.73H283.71a.5.5,0,0,1-.5-.5.51.51,0,0,1,.5-.5H418a.5.5,0,0,1,.5.5A.5.5,0,0,1,418,351.73Z" style="fill: rgb(38, 50, 56); transform-origin: 350.855px 351.23px;" id="el76vu673a5kj" class="animable"></path><path d="M418,382.28H283.71a.5.5,0,0,1,0-1H418a.5.5,0,0,1,0,1Z" style="fill: rgb(38, 50, 56); transform-origin: 350.855px 381.78px;" id="el28a7etb90bm" class="animable"></path><path d="M418,412.83H283.71a.5.5,0,0,1-.5-.5.51.51,0,0,1,.5-.5H418a.5.5,0,0,1,.5.5A.5.5,0,0,1,418,412.83Z" style="fill: rgb(38, 50, 56); transform-origin: 350.855px 412.33px;" id="elchv3a4sh5f" class="animable"></path><path d="M418,443.38H283.71a.5.5,0,0,1-.5-.5.51.51,0,0,1,.5-.5H418a.5.5,0,0,1,.5.5A.5.5,0,0,1,418,443.38Z" style="fill: rgb(38, 50, 56); transform-origin: 350.855px 442.88px;" id="el3mhvjea6s84" class="animable"></path><rect x="354.39" y="233.63" width="3.66" height="237.99" style="fill: rgb(38, 50, 56); transform-origin: 356.22px 352.625px;" id="eladecqotjd1r" class="animable"></rect><path d="M358.05,472.12h-3.66a.5.5,0,0,1-.5-.5v-238a.5.5,0,0,1,.5-.5h3.66a.5.5,0,0,1,.5.5v238A.5.5,0,0,1,358.05,472.12Zm-3.16-1h2.66v-237h-2.66Z" style="fill: rgb(38, 50, 56); transform-origin: 356.22px 352.62px;" id="el0j025j0dq6ff" class="animable"></path><polygon points="103.36 243.98 109.03 243.98 109.03 241.31 103.36 243.98" style="fill: rgb(255, 255, 255); transform-origin: 106.195px 242.645px;" id="elua6ns3r7rye" class="animable"></polygon><path d="M109,244.48h-5.67a.5.5,0,0,1-.49-.39.49.49,0,0,1,.27-.56l5.68-2.68a.51.51,0,0,1,.48,0,.52.52,0,0,1,.23.43V244A.5.5,0,0,1,109,244.48Zm-3.44-1h2.94v-1.39Z" style="fill: rgb(38, 50, 56); transform-origin: 106.163px 242.635px;" id="elaw6vdpfx2wi" class="animable"></path><polygon points="284.87 471.62 108.83 471.62 108.83 233.63 197.68 184.08 284.87 233.63 284.87 471.62" style="fill: rgb(0, 0, 0); transform-origin: 196.85px 327.85px;" id="elpwpt133phdh" class="animable"></polygon><path d="M284.87,472.12h-176a.5.5,0,0,1-.5-.5v-238a.51.51,0,0,1,.26-.44l88.85-49.54a.48.48,0,0,1,.49,0l87.19,49.55a.49.49,0,0,1,.25.43v238A.5.5,0,0,1,284.87,472.12Zm-175.54-1h175V233.92l-86.69-49.26-88.35,49.26Z" style="fill: rgb(38, 50, 56); transform-origin: 196.89px 327.847px;" id="elfxcvp89tzjw" class="animable"></path><path d="M268.08,229.53H122.44a.5.5,0,0,1,0-1H268.08a.5.5,0,0,1,0,1Z" style="fill: rgb(38, 50, 56); transform-origin: 195.26px 229.03px;" id="elz5i7yvmx1u9" class="animable"></path><path d="M285.13,260.08H109.65a.5.5,0,0,1,0-1H285.13a.5.5,0,0,1,0,1Z" style="fill: rgb(38, 50, 56); transform-origin: 197.39px 259.58px;" id="el7x5figv26ln" class="animable"></path><path d="M285.13,290.63H109.65a.5.5,0,1,1,0-1H285.13a.5.5,0,0,1,0,1Z" style="fill: rgb(38, 50, 56); transform-origin: 197.39px 290.13px;" id="elxd87f3zalu" class="animable"></path><path d="M285.13,321.18H109.65a.5.5,0,0,1-.5-.5.5.5,0,0,1,.5-.5H285.13a.5.5,0,0,1,.5.5A.5.5,0,0,1,285.13,321.18Z" style="fill: rgb(38, 50, 56); transform-origin: 197.39px 320.68px;" id="elvopwemst4nr" class="animable"></path><path d="M285.13,351.73H109.65a.5.5,0,0,1-.5-.5.5.5,0,0,1,.5-.5H285.13a.5.5,0,0,1,.5.5A.5.5,0,0,1,285.13,351.73Z" style="fill: rgb(38, 50, 56); transform-origin: 197.39px 351.23px;" id="elg4p0pxoy6t9" class="animable"></path><path d="M285.13,382.28H109.65a.5.5,0,1,1,0-1H285.13a.5.5,0,0,1,0,1Z" style="fill: rgb(38, 50, 56); transform-origin: 197.39px 381.78px;" id="el8x3slrnhsle" class="animable"></path><path d="M285.13,412.83H109.65a.5.5,0,0,1-.5-.5.5.5,0,0,1,.5-.5H285.13a.5.5,0,0,1,.5.5A.5.5,0,0,1,285.13,412.83Z" style="fill: rgb(38, 50, 56); transform-origin: 197.39px 412.33px;" id="eljys0t3yjtui" class="animable"></path><path d="M285.13,443.38H109.65a.5.5,0,0,1-.5-.5.5.5,0,0,1,.5-.5H285.13a.5.5,0,0,1,.5.5A.5.5,0,0,1,285.13,443.38Z" style="fill: rgb(38, 50, 56); transform-origin: 197.39px 442.88px;" id="el1ljtyx5taz9" class="animable"></path><polygon points="240.52 208.43 197.68 184.08 154.03 208.43 240.52 208.43" style="fill: rgb(38, 50, 56); transform-origin: 197.275px 196.255px;" id="el7b0lwgzepnf" class="animable"></polygon><path d="M240.52,208.93H154a.51.51,0,0,1-.49-.38.52.52,0,0,1,.24-.56l43.66-24.34a.48.48,0,0,1,.49,0L240.77,208a.51.51,0,0,1,.23.57A.5.5,0,0,1,240.52,208.93Zm-84.57-1h82.68l-40.95-23.27Z" style="fill: rgb(38, 50, 56); transform-origin: 197.257px 196.256px;" id="elkdjkqx9dign" class="animable"></path><rect x="137.37" y="259.89" width="123.13" height="211.73" style="fill: rgb(38, 50, 56); transform-origin: 198.935px 365.755px;" id="elw0rtrqisp9p" class="animable"></rect><path d="M260.5,472.12H137.37a.5.5,0,0,1-.5-.5V259.89a.5.5,0,0,1,.5-.5H260.5a.5.5,0,0,1,.5.5V471.62A.5.5,0,0,1,260.5,472.12Zm-122.63-1H260V260.39H137.87Z" style="fill: rgb(38, 50, 56); transform-origin: 198.935px 365.755px;" id="elpa3kna9slkc" class="animable"></path><rect x="145.28" y="271.65" width="48.92" height="65.89" style="fill: rgb(145, 145, 145); transform-origin: 169.74px 304.595px;" id="elqodf0mvs1ck" class="animable"></rect><path d="M194.21,338H145.28a.51.51,0,0,1-.5-.5V271.65a.5.5,0,0,1,.5-.5h48.93a.5.5,0,0,1,.5.5v65.89A.51.51,0,0,1,194.21,338Zm-48.43-1h47.93V272.15H145.78Z" style="fill: rgb(38, 50, 56); transform-origin: 169.745px 304.575px;" id="el1ubkqn7yq7a" class="animable"></path><rect x="147.99" y="275.01" width="19.4" height="27.09" style="fill: rgb(92, 92, 92); transform-origin: 157.69px 288.555px;" id="eltxg9norq9qj" class="animable"></rect><path d="M167.39,302.6H148a.5.5,0,0,1-.5-.5V275a.5.5,0,0,1,.5-.5h19.4a.5.5,0,0,1,.5.5V302.1A.5.5,0,0,1,167.39,302.6Zm-18.9-1h18.4V275.51h-18.4Z" style="fill: rgb(38, 50, 56); transform-origin: 157.7px 288.55px;" id="elsuy5gpoy1z" class="animable"></path><rect x="171.7" y="275.01" width="19.4" height="27.09" style="fill: rgb(92, 92, 92); transform-origin: 181.4px 288.555px;" id="elbv37x0dua4i" class="animable"></rect><path d="M191.09,302.6H171.7a.5.5,0,0,1-.5-.5V275a.5.5,0,0,1,.5-.5h19.39a.5.5,0,0,1,.5.5V302.1A.5.5,0,0,1,191.09,302.6Zm-18.89-1h18.39V275.51H172.2Z" style="fill: rgb(38, 50, 56); transform-origin: 181.395px 288.55px;" id="el0hwbuy3d220n" class="animable"></path><rect x="147.99" y="306.41" width="19.4" height="27.09" style="fill: rgb(92, 92, 92); transform-origin: 157.69px 319.955px;" id="elfajbs86reh" class="animable"></rect><path d="M167.39,334H148a.5.5,0,0,1-.5-.5V306.41a.5.5,0,0,1,.5-.5h19.4a.5.5,0,0,1,.5.5V333.5A.5.5,0,0,1,167.39,334Zm-18.9-1h18.4V306.91h-18.4Z" style="fill: rgb(38, 50, 56); transform-origin: 157.7px 319.955px;" id="elux3b69f30he" class="animable"></path><rect x="171.7" y="306.41" width="19.4" height="27.09" style="fill: rgb(92, 92, 92); transform-origin: 181.4px 319.955px;" id="elu9xow9ws58" class="animable"></rect><path d="M191.09,334H171.7a.5.5,0,0,1-.5-.5V306.41a.5.5,0,0,1,.5-.5h19.39a.5.5,0,0,1,.5.5V333.5A.5.5,0,0,1,191.09,334Zm-18.89-1h18.39V306.91H172.2Z" style="fill: rgb(38, 50, 56); transform-origin: 181.395px 319.955px;" id="elvc1fuz3pyt" class="animable"></path><rect x="203.39" y="271.65" width="48.92" height="65.89" style="fill: rgb(145, 145, 145); transform-origin: 227.85px 304.595px;" id="elvfeu75bdja" class="animable"></rect><path d="M252.32,338H203.39a.51.51,0,0,1-.5-.5V271.65a.5.5,0,0,1,.5-.5h48.93a.5.5,0,0,1,.5.5v65.89A.5.5,0,0,1,252.32,338Zm-48.43-1h47.93V272.15H203.89Z" style="fill: rgb(38, 50, 56); transform-origin: 227.855px 304.575px;" id="eleim1mwts73a" class="animable"></path><rect x="206.1" y="275.01" width="19.4" height="27.09" style="fill: rgb(92, 92, 92); transform-origin: 215.8px 288.555px;" id="elebt58jsbvjn" class="animable"></rect><path d="M225.5,302.6H206.1a.5.5,0,0,1-.5-.5V275a.5.5,0,0,1,.5-.5h19.4a.5.5,0,0,1,.5.5V302.1A.5.5,0,0,1,225.5,302.6Zm-18.9-1H225V275.51H206.6Z" style="fill: rgb(38, 50, 56); transform-origin: 215.8px 288.55px;" id="elovi7u5jf9ue" class="animable"></path><rect x="229.81" y="275.01" width="19.4" height="27.09" style="fill: rgb(92, 92, 92); transform-origin: 239.51px 288.555px;" id="elaife5oz4ctj" class="animable"></rect><path d="M249.21,302.6h-19.4a.5.5,0,0,1-.5-.5V275a.5.5,0,0,1,.5-.5h19.4a.5.5,0,0,1,.5.5V302.1A.5.5,0,0,1,249.21,302.6Zm-18.9-1h18.4V275.51h-18.4Z" style="fill: rgb(38, 50, 56); transform-origin: 239.51px 288.55px;" id="elx794st1duo" class="animable"></path><polyline points="211.76 306.41 206.1 306.41 206.1 333.5 225.5 333.5 225.5 306.41 211.76 306.41" style="fill: rgb(92, 92, 92); transform-origin: 215.8px 319.955px;" id="el2p1rkb2hv03" class="animable"></polyline><path d="M225.5,334H206.1a.5.5,0,0,1-.5-.5V306.41a.5.5,0,0,1,.5-.5h19.4a.5.5,0,0,1,.5.5V333.5A.5.5,0,0,1,225.5,334Zm-18.9-1H225V306.91H206.6Z" style="fill: rgb(38, 50, 56); transform-origin: 215.8px 319.955px;" id="el7wzp626vi4k" class="animable"></path><rect x="229.81" y="306.41" width="19.4" height="27.09" style="fill: rgb(92, 92, 92); transform-origin: 239.51px 319.955px;" id="elcf3gs3ymwg" class="animable"></rect><path d="M249.21,334h-19.4a.5.5,0,0,1-.5-.5V306.41a.5.5,0,0,1,.5-.5h19.4a.5.5,0,0,1,.5.5V333.5A.5.5,0,0,1,249.21,334Zm-18.9-1h18.4V306.91h-18.4Z" style="fill: rgb(38, 50, 56); transform-origin: 239.51px 319.955px;" id="elof8urbicezd" class="animable"></path><path d="M198.23,469.61a.51.51,0,0,1-.5-.5V262.61a.5.5,0,0,1,.5-.5.5.5,0,0,1,.5.5v206.5A.5.5,0,0,1,198.23,469.61Z" style="fill: rgb(92, 92, 92); transform-origin: 198.23px 365.86px;" id="elkd615fcu6a" class="animable"></path><rect x="191.92" y="363.02" width="13.26" height="6.31" style="fill: rgb(92, 92, 92); transform-origin: 198.55px 366.175px;" id="elx0hgk8gdpq9" class="animable"></rect><path d="M205.18,369.83H191.92a.5.5,0,0,1-.5-.5V363a.5.5,0,0,1,.5-.5h13.26a.5.5,0,0,1,.5.5v6.31A.5.5,0,0,1,205.18,369.83Zm-12.76-1h12.26v-5.31H192.42Z" style="fill: rgb(38, 50, 56); transform-origin: 198.55px 366.165px;" id="el2wyzohexxug" class="animable"></path><polygon points="197.68 184.08 291.37 236.88 434.4 236.88 340.71 184.08 197.68 184.08" style="fill: rgb(38, 50, 56); transform-origin: 316.04px 210.48px;" id="eloyfi6b8311r" class="animable"></polygon><path d="M434.4,237.38h-143a.54.54,0,0,1-.25-.06l-93.68-52.8a.49.49,0,0,1-.24-.56.5.5,0,0,1,.48-.38h143a.4.4,0,0,1,.24.07l93.69,52.8a.5.5,0,0,1-.24.93Zm-142.9-1h141l-91.91-51.8h-141Z" style="fill: rgb(38, 50, 56); transform-origin: 316.049px 210.48px;" id="ely2qggl19fhj" class="animable"></path><path d="M348.66,191.93H214.76a.5.5,0,0,1-.5-.5.5.5,0,0,1,.5-.5h133.9a.5.5,0,0,1,.5.5A.5.5,0,0,1,348.66,191.93Z" style="fill: rgb(92, 92, 92); transform-origin: 281.71px 191.43px;" id="elppbvgku54j" class="animable"></path><path d="M369.09,202.75H235.19a.51.51,0,0,1-.5-.5.5.5,0,0,1,.5-.5h133.9a.5.5,0,0,1,.5.5A.5.5,0,0,1,369.09,202.75Z" style="fill: rgb(92, 92, 92); transform-origin: 302.14px 202.25px;" id="eld2qzz62jclp" class="animable"></path><path d="M389.05,213.57H255.14a.51.51,0,0,1-.5-.5.5.5,0,0,1,.5-.5H389.05a.5.5,0,0,1,.5.5A.51.51,0,0,1,389.05,213.57Z" style="fill: rgb(92, 92, 92); transform-origin: 322.095px 213.07px;" id="el6ykkk1ur6rx" class="animable"></path><path d="M407.12,224.39H273.22a.5.5,0,0,1-.5-.5.5.5,0,0,1,.5-.5h133.9a.5.5,0,0,1,.5.5A.5.5,0,0,1,407.12,224.39Z" style="fill: rgb(92, 92, 92); transform-origin: 340.17px 223.89px;" id="eltlekbwgcfpm" class="animable"></path><rect x="291.37" y="236.88" width="143.24" height="6.53" style="fill: rgb(145, 145, 145); transform-origin: 362.99px 240.145px;" id="elzo0z4sw15ji" class="animable"></rect><path d="M434.61,243.91H291.37a.5.5,0,0,1-.5-.5v-6.53a.5.5,0,0,1,.5-.5H434.61a.5.5,0,0,1,.5.5v6.53A.5.5,0,0,1,434.61,243.91Zm-142.74-1H434.11v-5.53H291.87Z" style="fill: rgb(38, 50, 56); transform-origin: 362.99px 240.145px;" id="elbx8dluu0j1" class="animable"></path><polygon points="291.37 243.41 197.81 191.64 103.36 243.98 103.36 236.36 197.68 184.08 291.37 236.88 291.37 243.41" style="fill: rgb(145, 145, 145); transform-origin: 197.365px 214.03px;" id="elike21urwao" class="animable"></polygon><path d="M103.36,244.48a.59.59,0,0,1-.26-.07.51.51,0,0,1-.24-.43v-7.62a.52.52,0,0,1,.25-.44l94.33-52.27a.48.48,0,0,1,.49,0l93.69,52.8a.49.49,0,0,1,.25.43v6.53a.5.5,0,0,1-.25.43.48.48,0,0,1-.49,0l-93.32-51.63L103.6,244.42A.53.53,0,0,1,103.36,244.48Zm.5-7.83v6.48l93.7-51.93a.53.53,0,0,1,.49,0l92.82,51.36v-5.39l-93.19-52.51Z" style="fill: rgb(38, 50, 56); transform-origin: 197.365px 214.031px;" id="eldqjz2ctlxfq" class="animable"></path></g><g id="freepik--plant-2--inject-218" class="animable" style="transform-origin: 113.093px 432.244px;"><path d="M109.07,406.41s-1.9-2.28-2.66-.76.19,1.71.19,1.71-2.09-.57-2.09.57a1.37,1.37,0,0,0,1.14,1.33s-3.8-1.9-3.8-.76v1.14s-2.85-.38-2.85.95v1.33s-2.66-1.52-2.85-.19a5.66,5.66,0,0,0,.38,2.66s-3.23-.95-2.66.19a4.26,4.26,0,0,0,1.71,1.71s-3-.19-3,1.14l2.09.95s-1.9,1.71-1.33,2.28,2.85-.19,2.85-.19-1.52,2.09-1,2.28,1.33-.57,1.33-.57-1.33,3.42-.38,3.42a16.18,16.18,0,0,0,3.23-.76H130s3.8-3.42,3-4l-.76-.57s1.33-1.14.95-1.9-1.71-.57-1.71-.57,1.71-3.42,0-3.8a4.88,4.88,0,0,0-2.66,0s0-4.18-1-4.18a3.32,3.32,0,0,0-1.9.95s1-1.71-.76-1.9l-1.71-.19s-1.33-3-2.28-2.66l-1,.38s-1.14-1.52-2.28-1l-1.14.57s-.19-1.52-1.52-1.33-2.85,1.9-2.85,1.9.19-1.52-.76-1.52S109.07,406.41,109.07,406.41Z" style="fill: rgb(0, 0, 0); transform-origin: 112.919px 415.112px;" id="el7b1c2h2ilxp" class="animable"></path><path d="M96.15,426.1a.76.76,0,0,1-.65-.34,3.55,3.55,0,0,1,.13-2.5,1.15,1.15,0,0,1-.58,0,.65.65,0,0,1-.44-.43,2.19,2.19,0,0,1,.42-1.51A2.45,2.45,0,0,1,93,421a.86.86,0,0,1-.25-.65,3.41,3.41,0,0,1,1.06-1.83l-1.42-.64a.52.52,0,0,1-.3-.46,1.27,1.27,0,0,1,.42-.94,3.13,3.13,0,0,1,1.71-.65,4,4,0,0,1-.74-1,.82.82,0,0,1,0-.94c.37-.45,1.34-.39,2.31-.18a5.45,5.45,0,0,1-.13-2,1,1,0,0,1,.59-.84,3,3,0,0,1,2.25.29v-.52a1.23,1.23,0,0,1,.44-1,3.68,3.68,0,0,1,2.41-.54v-.59a.81.81,0,0,1,.39-.71A3,3,0,0,1,104,408v-.08a1.11,1.11,0,0,1,.43-.91,2,2,0,0,1,1.18-.3,2.82,2.82,0,0,1,.34-1.29,1.3,1.3,0,0,1,1-.79,3,3,0,0,1,2.14,1.1,5.76,5.76,0,0,1,2.59-1.16,1.13,1.13,0,0,1,.88.39,1.38,1.38,0,0,1,.29.53,5.1,5.1,0,0,1,2.37-1.29,1.66,1.66,0,0,1,1.3.31,1.94,1.94,0,0,1,.6.8l.61-.31a2.32,2.32,0,0,1,2.65.8l.62-.24c1.16-.48,2.27,1.52,2.8,2.66l1.43.15a1.54,1.54,0,0,1,1.31.78,1.34,1.34,0,0,1,.14.47,2.62,2.62,0,0,1,1.15-.3c.9,0,1.38,1.37,1.44,4.06a6.51,6.51,0,0,1,2.28.13,1.38,1.38,0,0,1,1,.76,4.33,4.33,0,0,1-.32,3,1.7,1.7,0,0,1,1.4.85c.37.74-.18,1.57-.64,2.07l.3.22a.76.76,0,0,1,.3.58c0,1.05-2.3,3.27-3.31,4.18a.51.51,0,0,1-.33.13H99.46A14.93,14.93,0,0,1,96.15,426.1Zm.38-4.42a.57.57,0,0,1,.28.08.52.52,0,0,1,.19.6,8.81,8.81,0,0,0-.69,2.73,17,17,0,0,0,2.91-.72l.16,0h30.4a14.16,14.16,0,0,0,2.81-3.18l-.64-.48a.51.51,0,0,1-.2-.38.54.54,0,0,1,.17-.4c.48-.41,1-1.07.83-1.3s-.89-.34-1.19-.29a.53.53,0,0,1-.48-.21.52.52,0,0,1,0-.51c.43-.85.9-2.31.63-2.88a.36.36,0,0,0-.29-.21,4.39,4.39,0,0,0-2.37,0,.53.53,0,0,1-.46-.06.49.49,0,0,1-.22-.41,8.89,8.89,0,0,0-.54-3.71,3.16,3.16,0,0,0-1.46.83.49.49,0,0,1-.65.05.5.5,0,0,1-.14-.64,1.24,1.24,0,0,0,.16-.92c-.08-.16-.34-.22-.53-.24l-1.71-.19a.5.5,0,0,1-.41-.3c-.53-1.21-1.33-2.38-1.65-2.39l-.93.38a.52.52,0,0,1-.59-.17s-.92-1.17-1.66-.8l-1.14.57a.48.48,0,0,1-.45,0,.49.49,0,0,1-.27-.38,1.32,1.32,0,0,0-.4-.78.66.66,0,0,0-.55-.11,5.82,5.82,0,0,0-2.55,1.73.48.48,0,0,1-.57.13.5.5,0,0,1-.29-.52,1.54,1.54,0,0,0-.14-.91.14.14,0,0,0-.13-.05,5.94,5.94,0,0,0-2.35,1.23.5.5,0,0,1-.69-.08c-.4-.47-1.16-1.16-1.58-1.1,0,0-.14,0-.25.25-.25.5-.28.8-.22.93v0l.09,0a.5.5,0,0,1,.36.6.49.49,0,0,1-.59.37l-.07,0a2.28,2.28,0,0,0-1.38,0s0,0,0,.11a.77.77,0,0,0,.22.57l.65.31a.52.52,0,0,1,.25.61.49.49,0,0,1-.56.33,2.14,2.14,0,0,1-.87-.38,7.59,7.59,0,0,0-2.35-.74v1a.52.52,0,0,1-.17.38.51.51,0,0,1-.39.12,3.62,3.62,0,0,0-2.19.24.25.25,0,0,0-.1.21v1.33a.48.48,0,0,1-.25.43.5.5,0,0,1-.49,0,3.76,3.76,0,0,0-2.08-.65,5.19,5.19,0,0,0,.31,2.48.5.5,0,0,1-.6.68,7.86,7.86,0,0,0-2-.35,3.89,3.89,0,0,0,1.4,1.32.5.5,0,0,1-.26,1,4.58,4.58,0,0,0-2.36.39l1.65.74a.54.54,0,0,1,.29.38.53.53,0,0,1-.16.45,4.19,4.19,0,0,0-1.27,1.64A6,6,0,0,0,96,420a.5.5,0,0,1,.57.76,9.41,9.41,0,0,0-.87,1.42,2.22,2.22,0,0,0,.49-.35A.49.49,0,0,1,96.53,421.68Z" style="fill: rgb(38, 50, 56); transform-origin: 112.921px 415.137px;" id="elu2b41m5ugdr" class="animable"></path><path d="M109.45,421s-5.51-2.09-4.37-2.66,3.8.57,3.8.57-3.8-4.56-2.66-4.56a4,4,0,0,1,2.28,1.14s-1.14-4.18-.38-4.18l1.71.76s-1-4.94.38-4.18,1.14,6.84,1.14,6.84,2.09-5.13,2.28-3a13.38,13.38,0,0,1-1.14,5.13s1.9-1.9,1.9-.19a3.93,3.93,0,0,1-1,2.66s4-.19,2.85,1.33-5.32,3-5.32,3" style="fill: rgb(0, 0, 0); transform-origin: 110.686px 415.735px;" id="el0i9krxz12vr7" class="animable"></path><path d="M111,424.2a.52.52,0,0,1-.47-.33.5.5,0,0,1,.3-.64c1.12-.41,4.23-1.72,5.09-2.87a.53.53,0,0,0,.11-.19,5.13,5.13,0,0,0-2.54-.34.47.47,0,0,1-.48-.3.49.49,0,0,1,.11-.55,3.46,3.46,0,0,0,.8-2.31c0-.09,0-.16,0-.2a3.56,3.56,0,0,0-1,.74.49.49,0,0,1-.63.06.5.5,0,0,1-.18-.61,13.94,13.94,0,0,0,1.12-4.47,22.62,22.62,0,0,0-1.34,2.77.51.51,0,0,1-.56.3.5.5,0,0,1-.4-.51c.08-2.65-.22-5.7-.79-6.31a12.19,12.19,0,0,0,.26,3.58.47.47,0,0,1-.18.48.5.5,0,0,1-.51.07l-1.28-.57a18.61,18.61,0,0,0,.63,3.4.5.5,0,0,1-.83.48,4.14,4.14,0,0,0-1.52-.93,24.84,24.84,0,0,0,2.64,3.68.51.51,0,0,1,0,.62.5.5,0,0,1-.59.16,7.51,7.51,0,0,0-3-.68,22.83,22.83,0,0,0,3.93,1.84.5.5,0,0,1,.29.65.51.51,0,0,1-.65.29c-4.79-1.82-4.83-2.63-4.84-2.9a.71.71,0,0,1,.43-.68,4.1,4.1,0,0,1,2.57,0c-2.22-2.88-2-3.46-1.85-3.66a.68.68,0,0,1,.64-.39,3.17,3.17,0,0,1,1.46.42c-.3-1.36-.47-2.71-.1-3.19a.65.65,0,0,1,.75-.23l.85.38c-.25-1.61-.32-3.31.33-3.77a.85.85,0,0,1,.95,0c1,.56,1.3,3,1.38,5,1-1.84,1.4-1.77,1.65-1.73s.59.37.64.95a10.55,10.55,0,0,1-.62,3.85,1.13,1.13,0,0,1,.79,0c.27.11.59.4.59,1.15a4.73,4.73,0,0,1-.51,2.16c1,0,2.15.22,2.51.9a1.11,1.11,0,0,1-.2,1.23c-1.21,1.62-5.37,3.15-5.55,3.21A.47.47,0,0,1,111,424.2Z" style="fill: rgb(38, 50, 56); transform-origin: 110.771px 415.781px;" id="elyqikcussgqg" class="animable"></path><path d="M101.09,412.11s-5.51-2.09-4.37-2.66,3.8.57,3.8.57-3.8-4.56-2.66-4.56a4,4,0,0,1,2.28,1.14s-1.14-4.18-.38-4.18l1.71.76s-1-4.94.38-4.18,1.14,6.84,1.14,6.84,2.09-5.13,2.28-3a13.38,13.38,0,0,1-1.14,5.13s1.9-1.9,1.9-.19a3.93,3.93,0,0,1-1,2.66s4-.19,2.85,1.33-5.32,3-5.32,3" style="fill: rgb(0, 0, 0); transform-origin: 102.326px 406.845px;" id="elprhm6vdbbk" class="animable"></path><path d="M102.61,415.27a.52.52,0,0,1-.47-.33.5.5,0,0,1,.3-.64c1.13-.41,4.23-1.72,5.09-2.87a.53.53,0,0,0,.11-.19,5.08,5.08,0,0,0-2.53-.34.48.48,0,0,1-.48-.3.47.47,0,0,1,.1-.55,3.43,3.43,0,0,0,.8-2.31,1,1,0,0,0,0-.2,3.31,3.31,0,0,0-1,.75.51.51,0,0,1-.82-.56,13.94,13.94,0,0,0,1.12-4.47,21.33,21.33,0,0,0-1.33,2.77.52.52,0,0,1-.57.3.49.49,0,0,1-.4-.5c.08-2.66-.21-5.71-.79-6.32a12.19,12.19,0,0,0,.26,3.58.47.47,0,0,1-.18.48.5.5,0,0,1-.51.07l-1.27-.57a16.9,16.9,0,0,0,.63,3.4.5.5,0,0,1-.24.56.48.48,0,0,1-.6-.07,4,4,0,0,0-1.52-.94,24.84,24.84,0,0,0,2.64,3.68.51.51,0,0,1,0,.62.48.48,0,0,1-.59.16,7.69,7.69,0,0,0-3-.68,22.83,22.83,0,0,0,3.93,1.84.5.5,0,0,1-.35.94c-4.8-1.82-4.84-2.63-4.85-2.9a.71.71,0,0,1,.43-.68,4.1,4.1,0,0,1,2.57,0c-2.22-2.88-1.95-3.45-1.85-3.66a.68.68,0,0,1,.64-.39,3,3,0,0,1,1.46.43c-.3-1.37-.47-2.72-.1-3.19A.64.64,0,0,1,100,402l.85.38c-.25-1.61-.32-3.31.33-3.77a.85.85,0,0,1,.95,0c1,.56,1.3,3,1.38,5,1-1.84,1.4-1.77,1.65-1.73s.59.37.64.95a10.6,10.6,0,0,1-.62,3.86,1.08,1.08,0,0,1,.79,0c.27.12.59.4.59,1.15a4.73,4.73,0,0,1-.51,2.16c1,0,2.15.22,2.51.9a1.09,1.09,0,0,1-.2,1.23c-1.21,1.62-5.37,3.15-5.55,3.21A.47.47,0,0,1,102.61,415.27Z" style="fill: rgb(38, 50, 56); transform-origin: 102.378px 406.902px;" id="elnrvf1ptqwki" class="animable"></path><path d="M109.64,406s-5.51-2.09-4.37-2.66,3.8.57,3.8.57-3.8-4.56-2.66-4.56a4,4,0,0,1,2.28,1.14s-1.14-4.18-.38-4.18l1.71.76s-1-4.94.38-4.18,1.14,6.84,1.14,6.84,2.09-5.13,2.28-3a13.38,13.38,0,0,1-1.14,5.13s1.9-1.9,1.9-.19a3.93,3.93,0,0,1-1,2.66s4-.19,2.85,1.33-5.32,3-5.32,3" style="fill: rgb(0, 0, 0); transform-origin: 110.876px 400.735px;" id="el14n7f2ze9ky" class="animable"></path><path d="M111.16,409.19a.5.5,0,0,1-.17-1c1.12-.41,4.23-1.72,5.09-2.87a.53.53,0,0,0,.11-.19,5.25,5.25,0,0,0-2.54-.34.48.48,0,0,1-.48-.3.49.49,0,0,1,.11-.55,3.43,3.43,0,0,0,.8-2.31c0-.09,0-.15,0-.2a3.44,3.44,0,0,0-1,.75.49.49,0,0,1-.63.05.5.5,0,0,1-.18-.61,14.23,14.23,0,0,0,1.12-4.47A22.62,22.62,0,0,0,112,400a.5.5,0,0,1-1-.2c.08-2.66-.22-5.71-.79-6.32a12.19,12.19,0,0,0,.26,3.58.47.47,0,0,1-.18.48.5.5,0,0,1-.51.07l-1.28-.57a18.46,18.46,0,0,0,.63,3.4.5.5,0,0,1-.83.49,4,4,0,0,0-1.52-.94,24.11,24.11,0,0,0,2.64,3.68.51.51,0,0,1,0,.62.48.48,0,0,1-.59.16,7.83,7.83,0,0,0-3-.68,22.83,22.83,0,0,0,3.93,1.84.5.5,0,0,1,.29.65.51.51,0,0,1-.65.29c-4.79-1.82-4.83-2.63-4.84-2.9a.71.71,0,0,1,.43-.68,4.1,4.1,0,0,1,2.57,0c-2.22-2.88-2-3.45-1.85-3.66a.68.68,0,0,1,.64-.39,3.07,3.07,0,0,1,1.46.43c-.3-1.37-.47-2.72-.1-3.19a.61.61,0,0,1,.74-.23l.86.38c-.25-1.62-.32-3.32.33-3.78a.85.85,0,0,1,1,0c1,.57,1.3,3,1.38,5,1-1.84,1.4-1.77,1.65-1.73s.59.37.64.95a10.6,10.6,0,0,1-.62,3.86,1,1,0,0,1,.79,0c.27.11.59.4.59,1.14a4.73,4.73,0,0,1-.51,2.16c1,0,2.15.23,2.51.9a1.11,1.11,0,0,1-.2,1.23c-1.21,1.62-5.37,3.15-5.55,3.21A.47.47,0,0,1,111.16,409.19Z" style="fill: rgb(38, 50, 56); transform-origin: 110.866px 400.809px;" id="elly51pkc63o" class="animable"></path><path d="M115.53,411.35s-5.51-2.09-4.37-2.66,3.8.57,3.8.57-3.8-4.56-2.66-4.56a4,4,0,0,1,2.28,1.14s-1.14-4.18-.38-4.18l1.71.76s-1-4.94.38-4.18,1.14,6.84,1.14,6.84,2.09-5.13,2.28-3a13.38,13.38,0,0,1-1.14,5.13s1.9-1.9,1.9-.19a3.93,3.93,0,0,1-1,2.66s4-.19,2.85,1.33-5.32,3-5.32,3" style="fill: rgb(0, 0, 0); transform-origin: 116.766px 406.085px;" id="elh05yz0c86xl" class="animable"></path><path d="M117.05,414.51a.5.5,0,0,1-.17-1c1.12-.41,4.23-1.72,5.09-2.87a.53.53,0,0,0,.11-.19,5.15,5.15,0,0,0-2.54-.34.48.48,0,0,1-.48-.3.49.49,0,0,1,.11-.55A3.43,3.43,0,0,0,120,407c0-.09,0-.15,0-.2a3.44,3.44,0,0,0-1,.75.49.49,0,0,1-.63.05.5.5,0,0,1-.18-.61,14.23,14.23,0,0,0,1.12-4.47,22.62,22.62,0,0,0-1.34,2.77.5.5,0,0,1-.56.3.49.49,0,0,1-.4-.5c.08-2.66-.22-5.71-.8-6.32a12.29,12.29,0,0,0,.27,3.58.5.5,0,0,1-.69.55l-1.28-.57a18.46,18.46,0,0,0,.63,3.4.5.5,0,0,1-.83.49,4,4,0,0,0-1.52-.94,24.11,24.11,0,0,0,2.64,3.68.51.51,0,0,1,0,.62.5.5,0,0,1-.6.16,7.78,7.78,0,0,0-3-.68,22.83,22.83,0,0,0,3.93,1.84.5.5,0,0,1,.29.65.51.51,0,0,1-.65.29c-4.79-1.82-4.83-2.63-4.84-2.9a.71.71,0,0,1,.43-.68,4.1,4.1,0,0,1,2.57,0c-2.22-2.88-2-3.46-1.85-3.66a.68.68,0,0,1,.64-.39,3.17,3.17,0,0,1,1.46.42c-.3-1.36-.47-2.71-.1-3.18a.61.61,0,0,1,.74-.23l.86.37c-.25-1.61-.33-3.31.33-3.77a.85.85,0,0,1,1,0c1,.57,1.3,3,1.38,5,1-1.84,1.4-1.77,1.65-1.73s.59.37.64.95a10.6,10.6,0,0,1-.62,3.86,1.08,1.08,0,0,1,.79,0c.27.12.59.4.59,1.15a4.73,4.73,0,0,1-.51,2.16c1,0,2.15.23,2.51.9a1.11,1.11,0,0,1-.2,1.23c-1.21,1.62-5.37,3.15-5.55,3.21A.47.47,0,0,1,117.05,414.51Z" style="fill: rgb(38, 50, 56); transform-origin: 116.866px 406.106px;" id="elqjomkpuc6f9" class="animable"></path><path d="M118,420.09s-3.12-2.92-2.2-3,2.39,1.43,2.39,1.43-1.29-4.11-.52-3.79a2.87,2.87,0,0,1,1.21,1.39s.39-3.12.9-2.91l.94,1s.72-3.58,1.41-2.7-1.13,4.9-1.13,4.9,2.82-2.86,2.37-1.41a9.8,9.8,0,0,1-2.18,3.13s1.8-.75,1.33.39a2.86,2.86,0,0,1-1.38,1.52s2.73,1,1.55,1.68-4.41.57-4.41.57" style="fill: rgb(0, 0, 0); transform-origin: 119.524px 416.834px;" id="el2k1b2jjmh4t" class="animable"></path><path d="M118.93,422.81c-.36,0-.61,0-.7,0a.5.5,0,0,1-.48-.52.53.53,0,0,1,.52-.48c.86,0,3.27,0,4.13-.5h0a5,5,0,0,0-1.45-.78.49.49,0,0,1-.34-.45.52.52,0,0,1,.31-.48A2.33,2.33,0,0,0,122,418.4a3,3,0,0,0-.65.19.51.51,0,0,1-.61-.19.5.5,0,0,1,.07-.63,11.87,11.87,0,0,0,1.67-2.09c-.37.31-.79.71-1.15,1.08a.5.5,0,0,1-.64.06.49.49,0,0,1-.17-.61,15.16,15.16,0,0,0,1.23-3.91,12,12,0,0,0-.57,2,.5.5,0,0,1-.86.25l-.54-.57a14.91,14.91,0,0,0-.43,2.21.51.51,0,0,1-.43.44.52.52,0,0,1-.53-.3,3.08,3.08,0,0,0-.45-.74,22.68,22.68,0,0,0,.7,2.79.5.5,0,0,1-.22.58.52.52,0,0,1-.62-.08,6.92,6.92,0,0,0-1.27-1,19.94,19.94,0,0,0,1.78,1.86.5.5,0,1,1-.69.73c-2.77-2.6-2.57-3.18-2.48-3.42a.65.65,0,0,1,.59-.43,2.62,2.62,0,0,1,1.5.52c-.58-2.28-.26-2.58-.09-2.74a.62.62,0,0,1,.69-.1,2.05,2.05,0,0,1,.72.51c.33-1.7.69-1.91.83-2a.62.62,0,0,1,.56,0,.66.66,0,0,1,.17.12l.3.31c.36-1.41.8-2.19,1.3-2.3a.72.72,0,0,1,.78.31c.49.63.18,2.08-.26,3.39.91-.68,1.17-.52,1.36-.41s.41.39.23,1a7.35,7.35,0,0,1-1.35,2.27.85.85,0,0,1,.37.21.92.92,0,0,1,.11,1.08,3.56,3.56,0,0,1-.82,1.22c.64.32,1.27.76,1.32,1.32a.92.92,0,0,1-.54.9A9.46,9.46,0,0,1,118.93,422.81Z" style="fill: rgb(38, 50, 56); transform-origin: 119.492px 416.876px;" id="eljmnyw6yj8wf" class="animable"></path><polygon points="127.5 471.62 99.03 471.62 92.93 424.08 133.6 424.08 127.5 471.62" style="fill: rgb(145, 145, 145); transform-origin: 113.265px 447.85px;" id="el1d8zwgyc6ru" class="animable"></polygon><path d="M127.5,472.12H99a.49.49,0,0,1-.49-.43l-6.1-47.55a.47.47,0,0,1,.12-.39.48.48,0,0,1,.37-.17H133.6a.48.48,0,0,1,.37.17.47.47,0,0,1,.12.39L128,471.69A.49.49,0,0,1,127.5,472.12Zm-28-1h27.59l6-46.54H93.5Z" style="fill: rgb(38, 50, 56); transform-origin: 113.25px 447.85px;" id="el7e4m8yox6kq" class="animable"></path></g><g id="freepik--plant-1--inject-218" class="animable" style="transform-origin: 79.5438px 391.417px;"><path d="M79.2,361s-10.09-21.76-6.92-21.76,3.62,4.53,3.62,4.53-3.85-10.87-2.71-10.87,2.49,2,2.49,2-3.63-9.28-2.27-9.28,3.17,3.17,3.17,3.17-2.49-14,0-12.68S79.3,325,79.3,325s2-16.75,3.17-13.35,0,14.94,0,14.94,4.75-9.74,5.65-6.57-6.33,12.45-6.33,12.45,5.65-5.21,5.43-2-2.79,7-2.79,7,5.73-2.71,5,0-3.85,6.34-3.85,6.34,1.68-2.79,1.63,1.09a15.59,15.59,0,0,1-2.53,7.51s3.17-.91,1.58,1.58S79.2,361,79.2,361Z" style="fill: rgb(0, 0, 0); transform-origin: 80.579px 336.097px;" id="elqar1jymtmb" class="animable"></path><path d="M79.2,361.53l-.11,0a.5.5,0,0,1-.35-.27c-1.5-3.24-8.9-19.52-7.32-22a1,1,0,0,1,.86-.47,3.48,3.48,0,0,1,1.53.34c-1-3.08-1.6-5.78-1.16-6.4a.68.68,0,0,1,.54-.28,2.15,2.15,0,0,1,1.15.41c-1.07-3-2.13-6.47-1.54-7.32a.72.72,0,0,1,.61-.33,3.59,3.59,0,0,1,2.31,1.54c-.63-4.05-1.3-10,0-11a1,1,0,0,1,1.09,0c1.38.75,2.12,3,2.52,5.08,1.41-10,2.35-10.08,2.73-10.12s.68.22.87.79c.83,2.49.5,9,.23,12.63,1.34-2.44,3.19-5.33,4.46-5.23.32,0,.75.23,1,1,.64,2.23-2.13,6.85-4.25,9.93,1-.67,2.09-1.1,2.74-.79.32.16.69.53.63,1.45a15.82,15.82,0,0,1-2.07,5.91c1.35-.5,3.15-1,4-.31a1.36,1.36,0,0,1,.36,1.5,16.07,16.07,0,0,1-2.71,5c.37.34.52,1.08.5,2.34a15.14,15.14,0,0,1-2,6.83,1.52,1.52,0,0,1,1.33.49c.53.7-.11,1.7-.32,2-1.6,2.53-7,7-7.21,7.16A.49.49,0,0,1,79.2,361.53Zm-6.92-21.76c-1,.93,2.86,11.22,7.1,20.45,1.38-1.17,5.26-4.55,6.51-6.51.43-.67.36-.89.36-.9a2.27,2.27,0,0,0-1.38.07.5.5,0,0,1-.55-.77,15.15,15.15,0,0,0,2.44-7.22,4.37,4.37,0,0,0-.14-1.5c-.34.43-.58.7-.61.73a.5.5,0,0,1-.67.08.49.49,0,0,1-.13-.66,3.46,3.46,0,0,1,.71-.88A17.26,17.26,0,0,0,89,337.34c0-.12.08-.4,0-.48-.47-.38-2.62.23-4.33,1a.52.52,0,0,1-.6-.13.5.5,0,0,1,0-.6s2.49-3.77,2.7-6.76c0-.36,0-.47-.06-.48-.48-.22-2.63,1.17-4.53,2.92a.52.52,0,0,1-.68,0,.51.51,0,0,1-.06-.68c2-2.52,6.94-9.6,6.25-12-.06-.23-.13-.28-.13-.28-.63,0-2.79,3.23-4.6,6.92a.49.49,0,0,1-.94-.26c0-.12,1-10.85.11-14.44-.66,1.75-1.63,7.58-2.29,13a.49.49,0,0,1-.52.44.49.49,0,0,1-.47-.48c-.06-2-.62-7.41-2.46-8.41-.7.47-.35,6.06.73,12.15a.49.49,0,0,1-.32.56.5.5,0,0,1-.6-.22c-.62-1.08-1.8-2.64-2.55-2.89-.09,1,1.2,5.12,2.54,8.57a.5.5,0,0,1-.88.46,5.22,5.22,0,0,0-1.79-1.75,40.18,40.18,0,0,0,1.86,7.05,8.25,8.25,0,0,1,1.07,3.2.49.49,0,0,1-.39.53.51.51,0,0,1-.58-.32c-.34-.95-.68-2-1-2.95A2.53,2.53,0,0,0,72.28,339.77Z" style="fill: rgb(38, 50, 56); transform-origin: 80.6604px 336.122px;" id="elywpkghw62qk" class="animable"></path><path d="M77.45,348.63s-.07-9.93-1.35-10.28-2.28,1.55-2.28,1.55-1.59-6.93-2.73-6.15-.55,3-.55,3-4.05-4.58-6-4.62.73,2.74.73,2.74-5.36-3.34-7.14-2.58,3.89,4.74,3.89,4.74-15.24-5.17-13.71-2.26,9.49,4.72,9.49,4.72-7.23.94-4.22,2.14c2,.78,6.12,1.27,8.72,1.52,1.35.12,2.29.18,2.29.18s-8.88,3.15-5.22,4a25.54,25.54,0,0,0,6.92.27c1.9-.13,3.32-.34,3.32-.34s-4.66,1-2.77,2,6.21,1.27,6.21,1.27-4.19,1.18-2.45,2.34,6.07,3.3,6.07,3.3Z" style="fill: rgb(0, 0, 0); transform-origin: 62.826px 344.15px;" id="eleufpz9orhiq" class="animable"></path><path d="M76.7,356.74a.42.42,0,0,1-.22-.05c-.18-.09-4.39-2.16-6.13-3.33a1.15,1.15,0,0,1-.63-1.16c.08-.53.62-1,1.25-1.31a14.34,14.34,0,0,1-4.33-1.12c-.66-.35-.75-.77-.71-1.06a.93.93,0,0,1,.29-.54,26,26,0,0,1-6.94-.29c-.82-.2-1.24-.56-1.27-1.07,0-1.05,2.21-2.24,4.37-3.14h-.1c-3-.28-6.88-.78-8.85-1.56-.28-.11-1.13-.45-1-1.15s1.12-1.16,3.1-1.57c-2.55-.78-6.5-2.28-7.59-4.36a1,1,0,0,1,0-1.18c1-1.2,7.16.46,11.53,1.83-1.17-1-2.24-2.19-2.15-3a1,1,0,0,1,.65-.82c1.26-.54,3.76.52,5.58,1.47a1.43,1.43,0,0,1-.1-1.11c.12-.27.41-.56,1.13-.56,1.5,0,3.92,2.27,5.31,3.69a2.46,2.46,0,0,1,.92-2,.81.81,0,0,1,.78-.08c1,.39,1.94,3.43,2.47,5.47a2.2,2.2,0,0,1,2.18-.85c1.35.37,1.68,6.05,1.71,10.75v.06l-.76,7.61a.48.48,0,0,1-.25.39A.53.53,0,0,1,76.7,356.74Zm-6-4.39a.71.71,0,0,0,.19.18c1.29.86,4.1,2.3,5.37,2.94l.68-6.86c0-4.32-.44-9.28-1-9.81-.67-.16-1.43.93-1.64,1.33a.51.51,0,0,1-.51.26.49.49,0,0,1-.42-.38c-.64-2.79-1.55-5.34-2-5.78-.59.53-.39,1.94-.27,2.42a.5.5,0,0,1-.25.57.52.52,0,0,1-.61-.11c-1.51-1.71-4.36-4.43-5.6-4.46a.81.81,0,0,0-.24,0,6.74,6.74,0,0,0,1.34,1.87.49.49,0,0,1,0,.66.49.49,0,0,1-.65.11c-2-1.23-5.56-3-6.68-2.54-.11.5,1.8,2.34,4,3.87a.5.5,0,0,1-.45.88c-5.64-1.91-12.19-3.59-13.15-3l0,.08c1.17,2.23,7,4,9.16,4.46a.5.5,0,0,1,0,1,16.39,16.39,0,0,0-4.39,1.05c.07,0,.16.08.3.13a37.76,37.76,0,0,0,8.58,1.49c1.34.12,2.26.18,2.27.18a.51.51,0,0,1,.13,1c-2.88,1-5.52,2.36-5.76,2.92h0a4.79,4.79,0,0,0,.49.15,25.15,25.15,0,0,0,6.78.26c1.85-.13,3.27-.33,3.28-.34a.5.5,0,0,1,.18,1,8.43,8.43,0,0,0-2.77,1l.13.08c1.77.94,6,1.21,6,1.21a.5.5,0,0,1,.47.45.49.49,0,0,1-.36.53,5,5,0,0,0-2.51,1.27Z" style="fill: rgb(38, 50, 56); transform-origin: 62.8487px 344.201px;" id="elo6971futknb" class="animable"></path><path d="M83.08,347.72s.08-9.92,1.35-10.27S86.71,339,86.71,339s1.59-6.92,2.73-6.15.56,3,.56,3,4-4.58,6-4.63-.74,2.74-.74,2.74,5.37-3.33,7.15-2.57-3.89,4.73-3.89,4.73,15.24-5.17,13.71-2.25-9.49,4.71-9.49,4.71,7.23.95,4.21,2.14c-2,.79-6.11,1.28-8.71,1.52-1.35.13-2.29.19-2.29.19s8.88,3.14,5.22,4a24.79,24.79,0,0,1-6.92.27c-1.9-.13-3.33-.34-3.33-.34s4.67,1,2.77,2-6.21,1.27-6.21,1.27,4.19,1.18,2.46,2.34-6.07,3.3-6.07,3.3Z" style="fill: rgb(0, 0, 0); transform-origin: 97.709px 343.245px;" id="eluvfkcqk0xu" class="animable"></path><path d="M83.84,355.84a.5.5,0,0,1-.24-.06.51.51,0,0,1-.26-.39l-.76-7.62v0c0-4.7.37-10.38,1.72-10.76a2.2,2.2,0,0,1,2.18.86c.52-2,1.46-5.08,2.47-5.48a.81.81,0,0,1,.77.09,2.42,2.42,0,0,1,.93,2c1.38-1.42,3.8-3.66,5.31-3.7.71,0,1,.3,1.13.57a1.4,1.4,0,0,1-.1,1.1c1.82-1,4.31-2,5.58-1.46a1,1,0,0,1,.64.81c.09.82-1,2-2.14,3,4.36-1.37,10.5-3,11.53-1.82a1,1,0,0,1,0,1.17c-1.09,2.09-5,3.59-7.58,4.36,2,.42,3,.95,3.09,1.58s-.76,1-1,1.15c-2,.78-5.9,1.27-8.86,1.55h-.09c2.16.89,4.42,2.08,4.36,3.13,0,.51-.45.87-1.26,1.07a25.61,25.61,0,0,1-7,.29,1,1,0,0,1,.3.55c0,.29,0,.71-.71,1.06A14.63,14.63,0,0,1,89.57,350c.63.35,1.16.79,1.25,1.31a1.14,1.14,0,0,1-.63,1.16c-1.74,1.17-6,3.25-6.13,3.34A.59.59,0,0,1,83.84,355.84Zm-.26-8.14.68,6.87c1.27-.64,4.08-2.08,5.37-2.95.17-.11.2-.18.2-.18-.06-.3-1.28-.91-2.51-1.26a.5.5,0,0,1,.1-1s4.23-.27,6-1.21l.13-.08a8.48,8.48,0,0,0-2.77-1,.5.5,0,0,1-.39-.58.51.51,0,0,1,.57-.4s1.43.2,3.28.33A24.68,24.68,0,0,0,101,346a1.3,1.3,0,0,0,.53-.21c-.16-.45-2.86-1.83-5.8-2.87a.51.51,0,0,1-.33-.54.5.5,0,0,1,.47-.43s.93-.06,2.27-.19a38,38,0,0,0,8.58-1.48,2.71,2.71,0,0,0,.29-.14,15.9,15.9,0,0,0-4.38-1,.5.5,0,0,1-.44-.48.5.5,0,0,1,.39-.51c2.15-.48,8-2.23,9.16-4.45a.38.38,0,0,0,0-.14c-.74-.56-7.42,1.15-13.16,3.1a.5.5,0,0,1-.45-.89c2.17-1.52,4.09-3.37,4-3.86-1.16-.48-4.73,1.3-6.72,2.54a.5.5,0,0,1-.63-.77,5.45,5.45,0,0,0,1.29-1.9H96c-1.24,0-4.1,2.75-5.61,4.46a.5.5,0,0,1-.61.11.52.52,0,0,1-.25-.57c.13-.47.32-1.89-.26-2.42-.5.44-1.41,3-2,5.78a.51.51,0,0,1-.42.39.51.51,0,0,1-.51-.26c-.21-.4-1-1.5-1.7-1.3C84,338.42,83.62,343.39,83.58,347.7Zm10.06.14Z" style="fill: rgb(38, 50, 56); transform-origin: 97.6845px 343.31px;" id="el82k8xzd6wnn" class="animable"></path><path d="M67.07,372.79s5.51,3.94,7.88,6.69l2.36,2.76v65.59H82V382.24l7.09-8.66-6.69,4.72,4.33-16.14-7.48,15-6.7-13,2,11.42Z" style="fill: rgb(38, 50, 56); transform-origin: 78.08px 404.995px;" id="el6hhz6mmjntk" class="animable"></path><path d="M82,448.33H77.31a.5.5,0,0,1-.5-.5V382.42l-2.24-2.61c-2.3-2.68-7.73-6.57-7.79-6.61a.5.5,0,0,1,.47-.88l6.66,2.46-1.82-10.56a.5.5,0,0,1,.94-.32L79.27,376l7-14.08a.51.51,0,0,1,.62-.25.52.52,0,0,1,.31.6l-4,14.81,5.56-3.93a.49.49,0,0,1,.65.07.5.5,0,0,1,0,.65l-7,8.53v65.41A.5.5,0,0,1,82,448.33Zm-4.22-1h3.72V382.24a.52.52,0,0,1,.11-.32l4.76-5.81-3.69,2.6a.5.5,0,0,1-.57,0,.51.51,0,0,1-.2-.54l3-11.36-5.27,10.53a.49.49,0,0,1-.44.28h0a.5.5,0,0,1-.45-.27l-5.2-10.1L75,375.46a.5.5,0,0,1-.66.56l-4.3-1.59a40.46,40.46,0,0,1,5.25,4.73l2.36,2.75a.5.5,0,0,1,.12.33Z" style="fill: rgb(38, 50, 56); transform-origin: 78.0376px 404.986px;" id="elf67ibd4k4zv" class="animable"></path><path d="M69.92,370.17s-6.71-6.3-7.76-5.67-.42,2.52-.42,2.52-5.67-3.36-5.88-2.1,1.68,2.31,1.68,2.31-5.66-.21-6.92,1,2.31,1.26,2.31,1.26-5.67,1.47-6.3,3.15,5.67.42,5.67.42S39.08,380,42,380.87s9.24-3.36,9.24-3.36-4,5.46-1.26,4.2a37.84,37.84,0,0,0,6.59-4.88c1-.83,1.59-1.41,1.59-1.41s-3.57,8-.63,6.08A23.46,23.46,0,0,0,62.15,377c1.13-1.35,1.9-2.44,1.9-2.44s-2.31,3.77-.42,3.14,4.83-3.35,4.83-3.35-1.89,3.56,0,3.14,6.09-2,6.09-2Z" style="fill: rgb(0, 0, 0); transform-origin: 58.0644px 373.177px;" id="elmpwtudguf8e" class="animable"></path><path d="M49.34,382.4a.79.79,0,0,1-.63-.28c-.15-.19-.56-.69.85-3-2.17,1.21-5.62,2.82-7.68,2.23a1,1,0,0,1-.79-.81c-.15-1.45,4.77-4.47,8.47-6.53-1.39.12-2.77.06-3.25-.51a.94.94,0,0,1-.15-1c.45-1.19,2.69-2.18,4.49-2.8a1.24,1.24,0,0,1-.74-.63,1,1,0,0,1,.35-1.15c1-1,4-1.18,5.82-1.21a2.28,2.28,0,0,1-.71-1.88.79.79,0,0,1,.46-.6c.92-.43,3.52.86,5.23,1.81a2.05,2.05,0,0,1,.84-2c.92-.54,3.73,1.39,8.37,5.73l0,0,4.63,5.38a.49.49,0,0,1,.11.45.53.53,0,0,1-.32.35c-.17.06-4.26,1.56-6.16,2a1.12,1.12,0,0,1-1.22-.33,2,2,0,0,1-.11-1.61,13.35,13.35,0,0,1-3.44,2.14c-.68.22-1,0-1.21-.21a1,1,0,0,1-.18-.48,23.08,23.08,0,0,1-4.59,4.41c-.67.43-1.19.49-1.57.16-.72-.62-.19-2.7.62-4.83a37.87,37.87,0,0,1-6.66,4.92A2.24,2.24,0,0,1,49.34,382.4ZM51.25,377a.52.52,0,0,1,.36.16.5.5,0,0,1,0,.64,16.26,16.26,0,0,0-2.08,3.53l.21-.08a38.07,38.07,0,0,0,6.48-4.81c.94-.82,1.57-1.4,1.57-1.4a.5.5,0,0,1,.63,0,.49.49,0,0,1,.17.61c-1.11,2.48-1.89,5-1.74,5.66a2.42,2.42,0,0,0,.38-.2,23.25,23.25,0,0,0,4.5-4.37c1.09-1.33,1.86-2.41,1.87-2.42a.5.5,0,0,1,.84.55,8,8,0,0,0-1.09,2.43l.08,0c1.77-.59,4.62-3.22,4.64-3.25a.5.5,0,0,1,.65,0,.51.51,0,0,1,.14.63,4.86,4.86,0,0,0-.76,2.45.67.67,0,0,0,.21,0c1.38-.31,4.09-1.26,5.35-1.71l-4.14-4.8c-2.87-2.69-6.41-5.56-7.2-5.56h0c-.49.31-.25,1.51-.13,1.9a.48.48,0,0,1-.16.55.5.5,0,0,1-.57,0c-2.21-1.31-4.45-2.32-5.12-2.32h0c0,.71,1,1.45,1.44,1.66a.5.5,0,0,1,.23.58.47.47,0,0,1-.5.36c-2.1-.08-5.74.1-6.55.9l-.08.1a5.43,5.43,0,0,0,2,.31.5.5,0,0,1,.49.44.49.49,0,0,1-.37.54c-2.25.59-5.58,1.85-5.95,2.84.29.35,2.69.24,5.1-.24a.49.49,0,0,1,.57.32.51.51,0,0,1-.24.61c-4.81,2.52-10.05,5.78-10.42,6.83h0c2.23.63,7.12-2.16,8.82-3.29A.47.47,0,0,1,51.25,377Z" style="fill: rgb(38, 50, 56); transform-origin: 58.0561px 373.176px;" id="el13j6thruyto" class="animable"></path><path d="M77.66,365.63s-.07-9.21-1.25-9.53-2.12,1.43-2.12,1.43-1.47-6.42-2.53-5.7-.51,2.8-.51,2.8-3.76-4.24-5.54-4.29.68,2.54.68,2.54-5-3.09-6.62-2.38,3.6,4.39,3.6,4.39-14.13-4.8-12.71-2.09,8.8,4.37,8.8,4.37-6.7.87-3.91,2a38,38,0,0,0,8.08,1.41c1.26.12,2.12.18,2.12.18s-8.23,2.91-4.84,3.74a23.6,23.6,0,0,0,6.43.25c1.75-.13,3.08-.32,3.08-.32s-4.33.93-2.57,1.87,5.76,1.18,5.76,1.18-3.89,1.09-2.28,2.17S77,372.69,77,372.69Z" style="fill: rgb(0, 0, 0); transform-origin: 64.1099px 361.515px;" id="el1osiiorandph" class="animable"></path><path d="M77,373.19a.43.43,0,0,1-.22-.06c-.17-.08-4.08-2-5.69-3.09a1.1,1.1,0,0,1-.6-1.11,2,2,0,0,1,1.08-1.19,13.26,13.26,0,0,1-3.92-1c-.63-.34-.71-.74-.68-1a1,1,0,0,1,.23-.46A23.26,23.26,0,0,1,60.8,365c-.78-.18-1.18-.53-1.21-1,0-.95,1.82-2,3.94-2.89a37.29,37.29,0,0,1-8.16-1.43c-.27-.11-1.08-.43-1-1.11,0-.24.11-.88,2.75-1.46-2.37-.73-5.91-2.11-6.91-4a1,1,0,0,1,0-1.13c1-1.11,6.53.37,10.57,1.63-1-.92-1.95-2-1.88-2.71a1,1,0,0,1,.62-.78c1.17-.5,3.44.44,5.13,1.31a1.25,1.25,0,0,1-.06-1c.11-.26.39-.55,1.08-.55,1.39,0,3.59,2.06,4.89,3.38a2.26,2.26,0,0,1,.87-1.81.8.8,0,0,1,.75-.08c.94.37,1.81,3.14,2.3,5a2.07,2.07,0,0,1,2-.76c1,.29,1.57,3.65,1.62,10v.06l-.71,7.06a.48.48,0,0,1-.25.38A.44.44,0,0,1,77,373.19Zm-5.52-4.11s0,.05.17.13c1.17.79,3.72,2.1,4.92,2.71l.63-6.32c0-4-.41-8.55-1-9.06-.57-.15-1.27.86-1.47,1.22a.49.49,0,0,1-.92-.12c-.58-2.52-1.41-4.85-1.87-5.32-.5.5-.32,1.76-.21,2.19a.51.51,0,0,1-.25.57.52.52,0,0,1-.61-.11c-1.39-1.58-4-4.1-5.17-4.13h-.13a5.77,5.77,0,0,0,1.18,1.69.49.49,0,0,1,0,.66.51.51,0,0,1-.65.11c-2-1.23-5.19-2.77-6.16-2.35-.06.45,1.68,2.11,3.69,3.52a.51.51,0,0,1,.16.64.5.5,0,0,1-.61.24c-5.14-1.74-11.12-3.28-12.13-2.84l0,.05c1.08,2.05,6.48,3.66,8.47,4.11a.5.5,0,0,1,.39.51.5.5,0,0,1-.44.47,16.24,16.24,0,0,0-4,.93l.21.1a37.58,37.58,0,0,0,7.94,1.37c1.24.12,2.1.18,2.11.18a.49.49,0,0,1,.46.43.5.5,0,0,1-.33.54c-2.56.9-4.94,2.1-5.29,2.64a1.63,1.63,0,0,0,.4.14,23.43,23.43,0,0,0,6.27.24c1.72-.12,3-.31,3-.31a.5.5,0,0,1,.18,1,8.62,8.62,0,0,0-2.52.89l.08,0c1.64.87,5.52,1.12,5.56,1.12a.48.48,0,0,1,.46.44.49.49,0,0,1-.36.54A5,5,0,0,0,71.44,369.08Z" style="fill: rgb(38, 50, 56); transform-origin: 64.0675px 361.535px;" id="el14qdqrmhjxc" class="animable"></path><path d="M82.88,364.79s.07-9.21,1.25-9.53,2.11,1.43,2.11,1.43,1.48-6.42,2.54-5.7.51,2.81.51,2.81,3.76-4.25,5.54-4.3-.69,2.54-.69,2.54,5-3.09,6.63-2.38-3.61,4.39-3.61,4.39,14.14-4.8,12.72-2.09-8.8,4.37-8.8,4.37,6.7.87,3.9,2a37.28,37.28,0,0,1-8.08,1.41c-1.25.12-2.12.18-2.12.18s8.24,2.91,4.84,3.74a23.51,23.51,0,0,1-6.42.25c-1.76-.13-3.08-.32-3.08-.32s4.33.94,2.57,1.87-5.76,1.18-5.76,1.18,3.88,1.09,2.28,2.17-5.63,3.06-5.63,3.06Z" style="fill: rgb(0, 0, 0); transform-origin: 96.4301px 360.685px;" id="el6h31i606tk3" class="animable"></path><path d="M83.58,372.35a.42.42,0,0,1-.24-.07.49.49,0,0,1-.26-.38l-.7-7.06v-.06c.05-6.36.59-9.72,1.62-10a2,2,0,0,1,2,.76c.49-1.9,1.35-4.67,2.29-5a.82.82,0,0,1,.76.08,2.28,2.28,0,0,1,.87,1.81c1.29-1.32,3.5-3.34,4.88-3.38.69,0,1,.29,1.09.55a1.25,1.25,0,0,1-.06,1c1.69-.87,4-1.81,5.12-1.31a.93.93,0,0,1,.62.78c.08.75-.83,1.79-1.88,2.71,4-1.26,9.62-2.74,10.57-1.63a1,1,0,0,1,0,1.13c-1,1.91-4.55,3.29-6.92,4,2.65.58,2.73,1.22,2.76,1.46.08.68-.73,1-1,1.11A36.81,36.81,0,0,1,97,360.21c2.11.88,4,1.94,3.93,2.89,0,.49-.43.84-1.2,1a22,22,0,0,1-6.36.28.89.89,0,0,1,.22.46c0,.28,0,.68-.68,1a13.18,13.18,0,0,1-3.92,1,2,2,0,0,1,1.09,1.19,1.11,1.11,0,0,1-.6,1.11c-1.62,1.09-5.52,3-5.69,3.09A.46.46,0,0,1,83.58,372.35Zm-.2-7.59.63,6.32c1.19-.61,3.74-1.92,4.92-2.71.15-.09.17-.15.17-.15a5.21,5.21,0,0,0-2.31-1.12.51.51,0,0,1-.36-.54.49.49,0,0,1,.47-.44s3.91-.25,5.55-1.12l.08-.05a8.53,8.53,0,0,0-2.51-.89.5.5,0,0,1,.17-1s1.33.19,3,.31a21.83,21.83,0,0,0,6.26-.24,1.77,1.77,0,0,0,.41-.14c-.35-.54-2.73-1.74-5.3-2.64a.49.49,0,0,1-.32-.54.48.48,0,0,1,.46-.43s.86-.06,2.11-.18a37.7,37.7,0,0,0,7.94-1.37l.21-.1a16.11,16.11,0,0,0-4-.92.51.51,0,0,1-.43-.48.5.5,0,0,1,.39-.51c2-.45,7.39-2.06,8.46-4.11,0,0,0,0,0-.05-1-.44-7,1.1-12.13,2.84a.5.5,0,0,1-.45-.88c2-1.41,3.75-3.07,3.72-3.55-1-.38-4.21,1.15-6.18,2.38a.51.51,0,0,1-.65-.11.5.5,0,0,1,0-.66A5.4,5.4,0,0,0,95,350h-.12c-1.14,0-3.78,2.55-5.18,4.13a.52.52,0,0,1-.61.11.52.52,0,0,1-.25-.57c.12-.43.29-1.69-.21-2.19-.46.47-1.28,2.8-1.86,5.32a.5.5,0,0,1-.42.38.49.49,0,0,1-.51-.26c-.19-.36-.89-1.37-1.54-1.18C83.78,356.21,83.41,360.8,83.38,364.76Z" style="fill: rgb(38, 50, 56); transform-origin: 96.4075px 360.7px;" id="elcekczvu56xt" class="animable"></path><path d="M88.55,371.25s6.24-6.77,7.33-6.22.6,2.48.6,2.48,5.41-3.76,5.71-2.52-1.51,2.42-1.51,2.42,5.64-.62,7,.54-2.21,1.43-2.21,1.43,5.76,1.05,6.51,2.68-5.62.83-5.62.83,13.69,5.94,10.82,7-9.46-2.67-9.46-2.67,4.38,5.15,1.57,4.09a37.79,37.79,0,0,1-6.94-4.38c-1-.76-1.69-1.3-1.69-1.3s4.15,7.7,1.08,6a23.73,23.73,0,0,1-4.93-4.13c-1.22-1.27-2.07-2.3-2.07-2.3s2.58,3.59.65,3.1-5.06-3-5.06-3,2.15,3.42.23,3.14S84.33,377,84.33,377Z" style="fill: rgb(0, 0, 0); transform-origin: 100.953px 373.307px;" id="el3hadz6y55sh" class="animable"></path><path d="M102.44,382.38a2.12,2.12,0,0,1-1-.29,23.74,23.74,0,0,1-4.9-4.07,1,1,0,0,1-.14.49c-.16.23-.5.47-1.19.3a13.34,13.34,0,0,1-3.59-1.88,2,2,0,0,1,0,1.61,1.1,1.1,0,0,1-1.19.42c-1.93-.28-6.11-1.48-6.29-1.53a.5.5,0,0,1-.34-.32.51.51,0,0,1,.08-.46l4.22-5.7,0,0c4.31-4.67,7-6.8,7.93-6.33a2,2,0,0,1,1,1.92c1.64-1.08,4.14-2.55,5.08-2.2a.81.81,0,0,1,.51.57,2.28,2.28,0,0,1-.58,1.93c1.85-.11,4.84-.13,5.89.78a1,1,0,0,1,.44,1.13,1.26,1.26,0,0,1-.69.67c1.84.49,4.15,1.32,4.68,2.47a1,1,0,0,1-.07,1c-.44.6-1.82.78-3.21.74,3.85,1.79,9,4.44,8.92,5.9a.93.93,0,0,1-.72.86c-2,.74-5.57-.62-7.82-1.66,1.57,2.2,1.2,2.73,1.06,2.93-.4.56-1.21.25-1.48.15a37.57,37.57,0,0,1-7-4.41c1,2.07,1.65,4.1,1,4.77A.85.85,0,0,1,102.44,382.38Zm-7.71-7.67a.51.51,0,0,1,.39.19s.85,1,2,2.27a23,23,0,0,0,4.81,4,1.27,1.27,0,0,0,.39.16c.1-.63-.86-3.12-2.15-5.51a.5.5,0,0,1,.12-.62.51.51,0,0,1,.64,0s.67.54,1.67,1.29a38.51,38.51,0,0,0,6.81,4.32l.22.07a16,16,0,0,0-2.34-3.38.5.5,0,0,1,0-.64.52.52,0,0,1,.63-.12c1.78,1,6.86,3.44,9,2.64h0c-.45-1-5.92-3.89-10.89-6a.5.5,0,0,1,.26-1c2.44.31,4.84.25,5.13-.13-.47-.95-3.89-2-6.17-2.39a.5.5,0,0,1,0-1,5.37,5.37,0,0,0,2-.46l-.09-.09c-.86-.74-4.51-.65-6.6-.42a.5.5,0,0,1-.33-.91c.37-.25,1.35-1.06,1.31-1.77-.65,0-2.83,1.22-5,2.69a.5.5,0,0,1-.77-.53c.1-.4.25-1.61-.35-1.91-.67,0-4,3.17-6.71,6.09l-3.78,5.1c1.29.35,4.06,1.1,5.46,1.3a.45.45,0,0,0,.24,0,5.43,5.43,0,0,0-1-2.38.5.5,0,0,1,.73-.65s3.07,2.44,4.87,2.9l.09,0a8.61,8.61,0,0,0-1.26-2.35.49.49,0,0,1,.1-.69A.5.5,0,0,1,94.73,374.71Z" style="fill: rgb(38, 50, 56); transform-origin: 100.889px 373.334px;" id="elhq11vl38a3k" class="animable"></path><path d="M83.36,375.21s-5.67-6.51-6.51-5a2.16,2.16,0,0,0,.11,2.52s-5.78-.84-5.15.42l2.74,2.44s-4,.07-4.21,1.75,3.15.42,3.15.42-7.34,5.88-6.08,7.35,4-1.89,4-1.89-3.35,7.13-1.89,8,4.62-6.5,4.62-6.5-1.47,10.91.21,9.86S77.06,384,77.06,384s1,2.52,1.89.84a14.78,14.78,0,0,0,.84-5S82,384.87,82,382.24a11,11,0,0,0-.55-3.63,9.9,9.9,0,0,0-.43-1.1s2.93,6.51,3.14,4.2A26.76,26.76,0,0,0,83.36,375.21Z" style="fill: rgb(0, 0, 0); transform-origin: 75.7123px 382.317px;" id="eliboe1oj1ira" class="animable"></path><path d="M74.12,395.08a.73.73,0,0,1-.41-.12c-.89-.57-.76-4.12-.44-7.35-.92,1.76-2.14,3.71-3.14,4.05a1.05,1.05,0,0,1-.87-.07c-1.25-.71-.32-3.85.69-6.35a3.29,3.29,0,0,1-1.73.7,1.5,1.5,0,0,1-1.19-.55,1.15,1.15,0,0,1-.26-.89c.14-1.51,2.94-4.19,4.81-5.83a2,2,0,0,1-1.32-.3,1.16,1.16,0,0,1-.41-1.13c.18-1.42,2.15-1.92,3.5-2.1l-1.87-1.66a.33.33,0,0,1-.11-.15.79.79,0,0,1,0-.85c.52-.72,2.67-.65,4.68-.41a2.71,2.71,0,0,1,.33-2.15.88.88,0,0,1,.71-.46c1.6-.15,5.46,4.11,6.6,5.42a.56.56,0,0,1,.11.2,26.79,26.79,0,0,1,.85,6.68c-.06.69-.38.89-.64.94s-.63.1-1.53-1.27c0,.26,0,.54,0,.82s0,1.12-.65,1.24c-.23,0-.71.13-1.7-1.69a10.44,10.44,0,0,1-.78,3.28c-.37.73-.8.89-1.13.85a1.35,1.35,0,0,1-.89-.45c-.38,2.88-1.31,8.53-2.78,9.46A1,1,0,0,1,74.12,395.08Zm0-10.93a.27.27,0,0,1,.13,0,.49.49,0,0,1,.37.54c-.52,3.82-.8,8.24-.43,9.27,1-1,2-6.36,2.37-10a.52.52,0,0,1,.43-.44.53.53,0,0,1,.53.31c.22.52.6,1.07.78,1.1a.91.91,0,0,0,.2-.3,14.3,14.3,0,0,0,.79-4.81.49.49,0,0,1,.4-.49.51.51,0,0,1,.56.29,17.94,17.94,0,0,0,1.28,2.49,10.3,10.3,0,0,0-.53-3.34c-.12-.36-.23-.64-.31-.82a2.29,2.29,0,0,0-.1-.23.5.5,0,0,1,.9-.43,1.49,1.49,0,0,1,.11.24,26.59,26.59,0,0,0,2.11,3.87,27.23,27.23,0,0,0-.81-6c-2.44-2.78-5.09-5.08-5.67-5a1.67,1.67,0,0,0,.1,1.91.48.48,0,0,1,.06.56.49.49,0,0,1-.51.26,17.2,17.2,0,0,0-4.44-.19l2.44,2.18a.5.5,0,0,1,.14.55.51.51,0,0,1-.46.33c-1.44,0-3.61.47-3.72,1.32,0,.17,0,.2,0,.21a4,4,0,0,0,2.44-.33.5.5,0,0,1,.61.23.48.48,0,0,1-.13.63c-2.27,1.82-5.91,5.19-6,6.49,0,.07,0,.12,0,.14a.48.48,0,0,0,.42.2c.81,0,2.15-1.28,2.8-2.08a.49.49,0,0,1,.65-.1.5.5,0,0,1,.19.63c-1.78,3.79-2.59,7.05-2.1,7.33h0c.57,0,2.32-2.64,3.88-6.27A.5.5,0,0,1,74.12,384.15Z" style="fill: rgb(38, 50, 56); transform-origin: 75.7051px 382.268px;" id="elta17cfb9db" class="animable"></path><path d="M81.75,354.51s-9.16-.87-9,1.39a2.88,2.88,0,0,0,2,2.73s-7.07,3.35-5.43,4.29l4.87.69s-4.41,3.05-3.4,5.08,3.82-1.86,3.82-1.86-3.84,12-1.35,12.71,3.05-5.06,3.05-5.06,1.54,10.45,3.8,10.3.34-10.69.34-10.69S86.88,387.37,88,385s-4.73-13.74-4.73-13.74,3,2,2.74-.46-2.8-6.24-2.8-6.24,6.17,4,4.3,1a15.09,15.09,0,0,0-3.31-3.64,12.57,12.57,0,0,0-1.29-.91s8.1,5.09,6.62,2.36S81.75,354.51,81.75,354.51Z" style="fill: rgb(0, 0, 0); transform-origin: 79.3919px 369.814px;" id="elizkh8wvdvk" class="animable"></path><path d="M87.6,385.75c-1.45,0-4.25-4.85-6.21-8.62.34,2.75.58,6.44-.36,7.65a1.24,1.24,0,0,1-.9.5c-1.91.14-3.2-4.65-3.87-8.08a4.92,4.92,0,0,1-1.55,2.57,1.89,1.89,0,0,1-1.6.25,1.37,1.37,0,0,1-.85-.72c-1-1.84.33-7.34,1.22-10.47a3.06,3.06,0,0,1-2,.94,1.4,1.4,0,0,1-1.15-.86c-.87-1.74,1.25-3.86,2.6-5l-3.69-.53-.18-.06a.91.91,0,0,1-.5-.83c0-1.2,3.08-2.91,5.07-3.9a3.46,3.46,0,0,1-1.37-2.68,1.24,1.24,0,0,1,.41-1c1.6-1.57,8.37-1,9.13-.9a.47.47,0,0,1,.3.14c.26.25,6.36,6.19,7.85,9,.32.59.32,1,0,1.33s-.61.57-3.1-.62a14,14,0,0,1,1.05,1.46c.22.34.72,1.14.22,1.64-.2.2-.68.66-3.46-.92a14.72,14.72,0,0,1,1.81,4.69,1.52,1.52,0,0,1-.55,1.62,1.88,1.88,0,0,1-1.56,0c1.57,3.2,5,10.71,4.07,12.83a.93.93,0,0,1-.82.59Zm-7.17-12.16a.5.5,0,0,1,.45.29c2.42,5,5.59,10.44,6.64,10.85.65-1.76-2.54-9-4.72-13.29a.49.49,0,0,1,.11-.6.5.5,0,0,1,.61,0c.67.45,1.62.82,1.88.66,0,0,.13-.21.08-.65-.29-2.35-2.69-6-2.72-6a.5.5,0,0,1,.69-.69,20.2,20.2,0,0,0,3.77,2,1.93,1.93,0,0,0-.17-.29,14.11,14.11,0,0,0-3.19-3.52c-.41-.32-.75-.55-1-.7l-.28-.17a.5.5,0,0,1-.16-.68.49.49,0,0,1,.68-.18l.29.18a27.72,27.72,0,0,0,5.67,2.89l0,0c-1.31-2.43-6.65-7.73-7.54-8.6-2.73-.24-7.22-.28-8.16.63-.11.11-.12.18-.11.25a2.38,2.38,0,0,0,1.61,2.28.5.5,0,0,1,.09.94c-2.62,1.23-5,2.74-5.35,3.36l4.64.67a.48.48,0,0,1,.41.38.49.49,0,0,1-.2.52c-1,.73-3.9,3.11-3.23,4.45.14.29.28.3.33.31.66,0,2-1.31,2.64-2.25a.5.5,0,0,1,.88.45c-1.24,3.89-2.79,10.25-1.93,11.85a.41.41,0,0,0,.24.23.85.85,0,0,0,.76-.12c1.07-.73,1.56-3.5,1.66-4.51a.49.49,0,0,1,.48-.45.5.5,0,0,1,.51.42c.7,4.8,2.17,9.88,3.25,9.88h0s.09,0,.18-.12c.9-1.15.29-6.73-.3-10a.5.5,0,0,1,.33-.56Z" style="fill: rgb(38, 50, 56); transform-origin: 79.3749px 369.799px;" id="elkfc64q96qen" class="animable"></path><path d="M94.93,442.36H64.22C62.32,446,60,455,60,457.75c0,4.69,5.42,11.14,12.35,13.87H86.8c6.93-2.73,12.35-9.18,12.35-13.87C99.15,455,96.83,446,94.93,442.36Z" style="fill: rgb(255, 255, 255); transform-origin: 79.575px 456.99px;" id="eldh4knijlap5" class="animable"></path><path d="M86.8,472.12H72.35a.58.58,0,0,1-.19,0c-6.86-2.71-12.66-9.27-12.66-14.34,0-2.9,2.33-11.95,4.28-15.62a.48.48,0,0,1,.44-.27H94.93a.5.5,0,0,1,.45.27c1.94,3.67,4.27,12.72,4.27,15.62,0,5.07-5.8,11.63-12.66,14.34A.58.58,0,0,1,86.8,472.12Zm-14.36-1H86.71c6.48-2.59,11.94-8.69,11.94-13.37,0-2.7-2.21-11.25-4-14.89H64.52c-1.81,3.64-4,12.19-4,14.89C60.5,462.43,66,468.53,72.44,471.12Z" style="fill: rgb(38, 50, 56); transform-origin: 79.575px 457.009px;" id="elxdi8auvuquc" class="animable"></path><path d="M60,458c.17,4.66,5.52,10.95,12.33,13.63H86.8c6.82-2.68,12.16-9,12.34-13.63Z" style="fill: rgb(38, 50, 56); transform-origin: 79.57px 464.815px;" id="eleq4gk2pjpfp" class="animable"></path><path d="M86.8,472.12H72.35a.58.58,0,0,1-.19,0c-6.78-2.68-12.45-9-12.64-14.08a.45.45,0,0,1,.14-.36.48.48,0,0,1,.36-.16H99.14a.52.52,0,0,1,.36.16.47.47,0,0,1,.13.36c-.19,5.09-5.86,11.4-12.64,14.08A.58.58,0,0,1,86.8,472.12Zm-14.36-1H86.71c6.07-2.42,11.35-8.08,11.88-12.63h-38C61.1,463,66.38,468.7,72.44,471.12Z" style="fill: rgb(38, 50, 56); transform-origin: 79.575px 464.824px;" id="elwab0heowno" class="animable"></path><path d="M94.93,442.36s4.52-5.36,5.24-3-3.82,6-3.82,6Z" style="fill: rgb(255, 255, 255); transform-origin: 97.5887px 442.06px;" id="elmymem59fvfp" class="animable"></path><path d="M96.35,445.85h-.11a.55.55,0,0,1-.34-.27l-1.42-3a.51.51,0,0,1,.07-.53c.81-1,3.58-4.07,5.17-3.74a1.24,1.24,0,0,1,.93.95c.79,2.63-3.5,6.11-4,6.49A.51.51,0,0,1,96.35,445.85Zm-.83-3.41,1,2.11c1.35-1.17,3.61-3.53,3.16-5-.07-.23-.15-.24-.18-.25C98.86,439.15,97,440.77,95.52,442.44Z" style="fill: rgb(38, 50, 56); transform-origin: 97.5912px 442.068px;" id="el33vfrc2tafs" class="animable"></path><path d="M64.22,442.36s-4.52-5.36-5.24-3,3.82,6,3.82,6Z" style="fill: rgb(255, 255, 255); transform-origin: 61.5613px 442.06px;" id="el5tmwo0gsxbh" class="animable"></path><path d="M62.8,445.85a.51.51,0,0,1-.31-.11c-.49-.38-4.78-3.86-4-6.49a1.23,1.23,0,0,1,.94-.95C61,438,63.79,441.08,64.6,442a.49.49,0,0,1,.07.53l-1.42,3a.52.52,0,0,1-.34.27Zm-3.08-6.58h-.08s-.11,0-.18.25c-.44,1.48,1.85,3.87,3.16,5l1-2.11C62.23,440.83,60.43,439.27,59.72,439.27Z" style="fill: rgb(38, 50, 56); transform-origin: 61.5567px 442.065px;" id="elmmt5x3yxxsl" class="animable"></path></g><g id="freepik--Wood--inject-218" class="animable" style="transform-origin: 376.376px 428.447px;"><path d="M408.15,412.16s7.06-2.09,10.3-3.37,16.5-8.7,20.81-10.49,9.72-3.45,12.18-3.13,4.54,1.25,5.26.54,2.57-6.59,2.85-7.53a2.36,2.36,0,0,0-.77-2.58c-.76-.54-1.55-.26-3.35-.08a95.81,95.81,0,0,0-17.62,5.29c-5.44,2.48-16.89,9-20.51,10.17a66.66,66.66,0,0,1-9.57,2.27,10,10,0,0,0-1.94.34Z" style="fill: rgb(255, 255, 255); transform-origin: 432.729px 398.723px;" id="el54u2amh2w59" class="animable"></path><path d="M408.14,412.66a.53.53,0,0,1-.24-.06.51.51,0,0,1-.24-.3l-2.36-8.58a.5.5,0,0,1,.31-.6,10,10,0,0,1,2.06-.37,65.38,65.38,0,0,0,9.47-2.25c2.07-.67,6.84-3.17,11.45-5.58,3.46-1.81,6.72-3.52,9-4.56A95.49,95.49,0,0,1,455.38,385c.38,0,.71-.08,1-.12a3.48,3.48,0,0,1,2.68.29,2.87,2.87,0,0,1,1,3.13c0,.07-2.07,6.85-3,7.75-.67.66-1.86.39-3.37,0-.69-.15-1.49-.33-2.31-.44-2.32-.31-7.66,1.33-11.92,3.09-2.21.92-6.77,3.32-11.19,5.64-4.13,2.17-8,4.22-9.62,4.85-3.23,1.28-10.28,3.37-10.35,3.39A.39.39,0,0,1,408.14,412.66ZM406.4,404l2.09,7.59c1.65-.5,7.08-2.15,9.78-3.22,1.54-.61,5.42-2.65,9.53-4.81,4.43-2.33,9-4.74,11.27-5.67,4.06-1.68,9.75-3.51,12.43-3.16.87.11,1.68.3,2.4.46,1.07.24,2.17.49,2.45.22.5-.49,2.06-5.1,2.72-7.33a1.88,1.88,0,0,0-.57-2c-.42-.3-.84-.26-2-.11l-1,.12A95.65,95.65,0,0,0,438,391.27c-2.26,1-5.66,2.81-8.95,4.53-4.65,2.44-9.46,5-11.61,5.65a65.36,65.36,0,0,1-9.66,2.29C407.14,403.82,406.69,403.89,406.4,404Z" style="fill: rgb(38, 50, 56); transform-origin: 432.736px 398.697px;" id="elayzdeucaub" class="animable"></path><path d="M405.67,401.92a34.29,34.29,0,0,1,2.58,5.77c.76,2.58,1.38,6.35,4.58,9.34a28.88,28.88,0,0,0,5.32,4.14s-3,4.13-6.62,5.4a32.69,32.69,0,0,1-4.6,1.39,63,63,0,0,0-4-11.31A91.66,91.66,0,0,1,398.42,405S401.89,401.92,405.67,401.92Z" style="fill: rgb(38, 50, 56); transform-origin: 408.285px 414.94px;" id="elwbqp7y8riz" class="animable"></path><path d="M406.93,428.46a.51.51,0,0,1-.49-.38,61.84,61.84,0,0,0-4-11.21,92.58,92.58,0,0,1-4.54-11.75.49.49,0,0,1,.15-.52c.15-.13,3.65-3.18,7.58-3.18a.47.47,0,0,1,.43.25,34.24,34.24,0,0,1,2.63,5.88q.16.57.33,1.2c.66,2.43,1.48,5.45,4.11,7.92a29.6,29.6,0,0,0,5.21,4.06.49.49,0,0,1,.25.33.45.45,0,0,1-.08.4c-.12.18-3.1,4.27-6.85,5.58a29.79,29.79,0,0,1-4.71,1.41ZM399,405.15a87.68,87.68,0,0,0,4.38,11.27,62.25,62.25,0,0,1,3.91,10.95c.58-.14,1.8-.48,4.08-1.28,2.77-1,5.18-3.71,6-4.78a33.17,33.17,0,0,1-4.92-3.91c-2.84-2.66-3.7-5.84-4.4-8.39-.11-.41-.21-.8-.32-1.17a32.88,32.88,0,0,0-2.39-5.42A12.26,12.26,0,0,0,399,405.15Z" style="fill: rgb(38, 50, 56); transform-origin: 408.242px 414.94px;" id="ellnxw9ib3jr" class="animable"></path><path d="M454,389.38a1,1,0,1,1-1.22.66A1,1,0,0,1,454,389.38Z" style="fill: rgb(38, 50, 56); transform-origin: 453.733px 390.344px;" id="ellebmzk7zm1a" class="animable"></path><path d="M453.7,391.8a1.52,1.52,0,0,1-.42-.06,1.45,1.45,0,0,1-.88-.71,1.48,1.48,0,1,1,2.72-.29,1.44,1.44,0,0,1-.72.88A1.46,1.46,0,0,1,453.7,391.8Zm0-2a.46.46,0,0,0-.23.06.45.45,0,0,0-.23.29.42.42,0,0,0,0,.36.46.46,0,0,0,.28.23.48.48,0,0,0,.6-.32.49.49,0,0,0-.32-.6h0Z" style="fill: rgb(38, 50, 56); transform-origin: 453.7px 390.321px;" id="el4uk9sr5xoqv" class="animable"></path><path d="M418.15,421.17a22.6,22.6,0,0,1-2.94-2.07,51.63,51.63,0,0,1-8.91,6.54c.41,1.41.63,2.32.63,2.32a32.69,32.69,0,0,0,4.6-1.39C415.18,425.3,418.15,421.17,418.15,421.17Z" style="fill: rgb(255, 255, 255); transform-origin: 412.225px 423.53px;" id="el3fw105yhyec" class="animable"></path><path d="M406.93,428.46a.51.51,0,0,1-.49-.38s-.22-.91-.62-2.3a.49.49,0,0,1,.23-.57,52.17,52.17,0,0,0,8.83-6.48.51.51,0,0,1,.65,0,21.35,21.35,0,0,0,2.86,2,.51.51,0,0,1,.24.33.44.44,0,0,1-.08.4c-.12.18-3.1,4.27-6.85,5.58a29.79,29.79,0,0,1-4.71,1.41Zm0-2.58c.18.63.32,1.15.4,1.49.58-.14,1.8-.48,4.08-1.28,2.77-1,5.18-3.71,6-4.78a26.26,26.26,0,0,1-2.18-1.56A52.37,52.37,0,0,1,406.89,425.88Z" style="fill: rgb(38, 50, 56); transform-origin: 412.223px 423.536px;" id="elx0913is0uyi" class="animable"></path><path d="M423,426.1s-11.14.47-13.47.47H394.65s-.46,9.29-.46,14.4-.47,15.32-.47,15.32l-.46,15.33h38.08L430,440V426.57Z" style="fill: rgb(255, 255, 255); transform-origin: 412.3px 448.86px;" id="el1qzuxnpsmlu" class="animable"></path><path d="M431.34,472.12H393.26a.48.48,0,0,1-.36-.15.46.46,0,0,1-.14-.36l.46-15.33c0-.11.47-10.27.47-15.31s.46-14.33.46-14.43a.5.5,0,0,1,.5-.47h14.86c2.29,0,13.34-.46,13.45-.47H423l7,.46a.5.5,0,0,1,.47.5V440l1.39,31.56a.5.5,0,0,1-.13.37A.51.51,0,0,1,431.34,472.12Zm-37.57-1h37.05l-1.37-31.06V427l-6.47-.43c-.75,0-11.19.46-13.47.46H395.13c-.1,2-.44,9.52-.44,13.9,0,5.06-.46,15.25-.47,15.35Z" style="fill: rgb(38, 50, 56); transform-origin: 412.31px 448.86px;" id="elbcn2ca87r5i" class="animable"></path><path d="M406.69,471.63h0a.49.49,0,0,1-.49-.51l1-44a.53.53,0,0,1,.51-.48.5.5,0,0,1,.49.51l-1,44A.5.5,0,0,1,406.69,471.63Z" style="fill: rgb(38, 50, 56); transform-origin: 407.2px 449.135px;" id="elnkkeui9cqdb" class="animable"></path><path d="M403.26,454.28a.5.5,0,0,1-.5-.5V427.15a.5.5,0,0,1,1,0v26.63A.5.5,0,0,1,403.26,454.28Z" style="fill: rgb(38, 50, 56); transform-origin: 403.26px 440.465px;" id="elayxca3am4bf" class="animable"></path><path d="M398.82,432.49a.5.5,0,0,1-.5-.5v-4.84a.5.5,0,0,1,1,0V432A.5.5,0,0,1,398.82,432.49Z" style="fill: rgb(38, 50, 56); transform-origin: 398.82px 429.57px;" id="elbmh7sas5r5" class="animable"></path><path d="M398.62,441.57a.5.5,0,0,1-.5-.5v-5.45a.5.5,0,0,1,.5-.5.5.5,0,0,1,.5.5v5.45A.5.5,0,0,1,398.62,441.57Z" style="fill: rgb(38, 50, 56); transform-origin: 398.62px 438.345px;" id="el6dd6v5y7owo" class="animable"></path><path d="M400.23,471.23a.5.5,0,0,1-.5-.5V449.54a.51.51,0,0,1,.5-.5.5.5,0,0,1,.5.5v21.19A.5.5,0,0,1,400.23,471.23Z" style="fill: rgb(38, 50, 56); transform-origin: 400.23px 460.135px;" id="elqyi0kwo5d7" class="animable"></path><path d="M423.24,432.89a.5.5,0,0,1-.5-.48l-.26-6.29a.52.52,0,0,1,.48-.52.55.55,0,0,1,.52.48l.26,6.29a.5.5,0,0,1-.48.52Z" style="fill: rgb(38, 50, 56); transform-origin: 423.11px 429.245px;" id="elgd8wn5gx4ze" class="animable"></path><path d="M416.38,472a.49.49,0,0,1-.5-.48l-.21-5.65a.5.5,0,0,1,1,0l.21,5.65a.51.51,0,0,1-.49.52Z" style="fill: rgb(38, 50, 56); transform-origin: 416.275px 468.705px;" id="elq91km8bw8ek" class="animable"></path><path d="M380.34,446.26H351.51c-1.53,0-26.13,0-27.28.76s-5,4.23-5,6.54-.38,9.22-.38,9.22l4.61,6.54,8.45,2.3,46.89-.38Z" style="fill: rgb(255, 255, 255); transform-origin: 349.595px 458.94px;" id="eljg8p0kts03b" class="animable"></path><path d="M331.91,472.12a.32.32,0,0,1-.13,0l-8.45-2.3a.51.51,0,0,1-.28-.2l-4.61-6.53a.45.45,0,0,1-.09-.32c0-.06.38-6.93.38-9.19,0-2.6,4.11-6.21,5.22-6.95s17.75-.85,27.56-.85h28.83a.48.48,0,0,1,.36.15.49.49,0,0,1,.14.38l-1.54,25a.49.49,0,0,1-.49.47l-46.89.38Zm-8.15-3.24,8.22,2.24,46.35-.38,1.48-24h-28.3c-12.27,0-26,.21-27,.7-1.36.9-4.75,4.19-4.75,6.1,0,2.11-.31,8-.37,9.08Z" style="fill: rgb(38, 50, 56); transform-origin: 349.594px 458.97px;" id="elsfs1okrm4v" class="animable"></path><path d="M374.19,448.56s-6.15,4.23-6.15,7.3,1.92,11.53,4.23,13.84,14.6,1.15,16.91,0,3.84-11.53,2.69-16.53S382.26,442.8,374.19,448.56Z" style="fill: rgb(255, 255, 255); transform-origin: 380.151px 458.551px;" id="elco71axus7oq" class="animable"></path><path d="M379.11,471.53c-3.18,0-6.11-.39-7.19-1.48-2.53-2.52-4.38-11.26-4.38-14.19,0-3.28,6-7.49,6.36-7.71a12.36,12.36,0,0,1,11.86-1.8c3.31,1.25,6,3.95,6.6,6.71,1.17,5.07-.35,15.78-3,17.09C388,470.84,383.35,471.53,379.11,471.53Zm2.4-25a11.91,11.91,0,0,0-7,2.4h0c-1.65,1.14-5.93,4.59-5.93,6.89,0,3,1.93,11.34,4.08,13.49s14,1.07,16.34-.1c1.83-.92,3.62-10.78,2.42-16-.56-2.46-3-4.87-6-6A10.88,10.88,0,0,0,381.51,446.57Zm-7.32,2h0Z" style="fill: rgb(38, 50, 56); transform-origin: 380.15px 458.552px;" id="elgnwd564xy96" class="animable"></path><path d="M375.75,451.17s-4.55,3.12-4.55,5.4,1.42,8.51,3.13,10.22,10.79.85,12.49,0,2.84-8.52,2-12.21S381.71,446.91,375.75,451.17Z" style="fill: rgb(255, 255, 255); transform-origin: 380.151px 458.553px;" id="el84qu349oi5o" class="animable"></path><path d="M379.31,468.29c-2.33,0-4.49-.3-5.34-1.15-1.88-1.89-3.27-8.39-3.27-10.57,0-2.46,4.26-5.46,4.76-5.81a9.21,9.21,0,0,1,8.88-1.34,7.87,7.87,0,0,1,5,5.05c.81,3.53-.11,11.69-2.26,12.77A25.14,25.14,0,0,1,379.31,468.29Zm1.84-18.46a8.68,8.68,0,0,0-5.11,1.75h0c-1.2.83-4.33,3.34-4.33,5,0,2.21,1.41,8.3,3,9.86s10.21.76,11.92-.09c1.32-.66,2.6-7.85,1.72-11.65a6.87,6.87,0,0,0-4.33-4.34A8.22,8.22,0,0,0,381.15,449.83Zm-5.4,1.34h0Z" style="fill: rgb(38, 50, 56); transform-origin: 380.166px 458.564px;" id="elr4wactggxt8" class="animable"></path><path d="M377.4,453.94s-2.84,1.95-2.84,3.37.89,5.32,1.95,6.39,6.74.53,7.81,0,1.77-5.32,1.24-7.63S381.13,451.28,377.4,453.94Z" style="fill: rgb(255, 255, 255); transform-origin: 380.151px 458.553px;" id="elbe6jwo9zeml" class="animable"></path><path d="M379.66,464.82c-1.52,0-2.93-.2-3.5-.77-1.26-1.26-2.1-5.4-2.1-6.74,0-1.63,2.72-3.55,3.05-3.78a6,6,0,0,1,5.73-.86,5.15,5.15,0,0,1,3.21,3.29c.53,2.31-.08,7.47-1.51,8.18A15.3,15.3,0,0,1,379.66,464.82Zm1.12-11.53a5.24,5.24,0,0,0-3.09,1.06h0c-1.09.75-2.62,2.16-2.62,3,0,1.32.87,5.1,1.81,6s6.24.41,7.22-.09c.68-.34,1.52-4.72,1-7.07a4.09,4.09,0,0,0-2.59-2.58A4.87,4.87,0,0,0,380.78,453.29Zm-3.38.65h0Z" style="fill: rgb(38, 50, 56); transform-origin: 380.15px 458.56px;" id="elu440qbxevtr" class="animable"></path><path d="M358.92,464.68a.51.51,0,0,1-.5-.49.52.52,0,0,1,.49-.51c4.49-.07,6.7-.07,6.71-.07h0a.51.51,0,0,1,.5.5.5.5,0,0,1-.5.5s-2.21,0-6.69.07Z" style="fill: rgb(38, 50, 56); transform-origin: 362.27px 464.145px;" id="el3ehs6b7z8uy" class="animable"></path><path d="M350.16,464.83c-5.49,0-7-.5-12.12-2.15-5.83-1.88-19,.57-19.1.59a.5.5,0,0,1-.19-1c.55-.1,13.53-2.52,19.54-.58s6.95,2.25,15.06,2.08h0a.49.49,0,0,1,.5.49.5.5,0,0,1-.49.51C352.16,464.81,351.1,464.83,350.16,464.83Z" style="fill: rgb(38, 50, 56); transform-origin: 336.094px 462.885px;" id="elu1eeu28702h" class="animable"></path><path d="M367.37,455h-9.81a.5.5,0,0,1-.5-.5.51.51,0,0,1,.5-.5h9.81a.51.51,0,0,1,.5.5A.5.5,0,0,1,367.37,455Z" style="fill: rgb(38, 50, 56); transform-origin: 362.465px 454.5px;" id="el1w1bwwo7wzg" class="animable"></path><path d="M354.57,446.26H325.74c-1.53,0-26.13,0-27.28.76s-5,4.23-5,6.54-.39,9.22-.39,9.22l4.62,6.54,8.45,2.3,46.89-.38Z" style="fill: rgb(255, 255, 255); transform-origin: 323.82px 458.94px;" id="elxgk981z6dmm" class="animable"></path><path d="M306.14,472.12a.3.3,0,0,1-.13,0l-8.46-2.3a.48.48,0,0,1-.27-.2l-4.61-6.53a.45.45,0,0,1-.09-.32c0-.06.38-6.93.38-9.19,0-2.6,4.11-6.21,5.22-6.95s17.75-.85,27.56-.85h28.83a.48.48,0,0,1,.36.15.49.49,0,0,1,.14.38l-1.54,25a.5.5,0,0,1-.5.47l-46.88.38ZM298,468.88l8.22,2.24,46.35-.38,1.48-24h-28.3c-12.27,0-26,.21-27,.7-1.36.91-4.75,4.19-4.75,6.1,0,2.11-.32,8-.38,9.08Z" style="fill: rgb(38, 50, 56); transform-origin: 323.824px 458.97px;" id="ellccfn6rm62" class="animable"></path><path d="M348.42,448.56s-6.15,4.23-6.15,7.3,1.92,11.53,4.23,13.84,14.6,1.15,16.91,0,3.84-11.53,2.69-16.53S356.49,442.8,348.42,448.56Z" style="fill: rgb(255, 255, 255); transform-origin: 354.381px 458.551px;" id="elq7s963824wi" class="animable"></path><path d="M353.34,471.53c-3.18,0-6.11-.39-7.2-1.48-2.52-2.52-4.37-11.26-4.37-14.19,0-3.28,6.05-7.49,6.36-7.71a12.36,12.36,0,0,1,11.86-1.8c3.31,1.25,6,3.95,6.59,6.71,1.17,5.07-.34,15.78-2.95,17.09C362.25,470.84,357.57,471.53,353.34,471.53Zm2.4-25a11.91,11.91,0,0,0-7,2.4h0c-1.65,1.14-5.93,4.59-5.93,6.89,0,3,1.93,11.34,4.08,13.49s14,1.07,16.33-.1c1.84-.92,3.63-10.78,2.43-16-.57-2.45-3-4.87-6-6A10.88,10.88,0,0,0,355.74,446.57Zm-7.32,2h0Z" style="fill: rgb(38, 50, 56); transform-origin: 354.376px 458.552px;" id="elco9ra8sqon9" class="animable"></path><path d="M350,451.17s-4.55,3.12-4.55,5.4,1.42,8.51,3.13,10.22,10.78.85,12.49,0,2.84-8.52,2-12.21S355.94,446.91,350,451.17Z" style="fill: rgb(255, 255, 255); transform-origin: 354.402px 458.553px;" id="elhhmua1x3bc" class="animable"></path><path d="M353.54,468.29c-2.34,0-4.49-.3-5.34-1.15-1.89-1.89-3.27-8.39-3.27-10.57,0-2.46,4.25-5.46,4.76-5.81a9.24,9.24,0,0,1,8.88-1.34,7.86,7.86,0,0,1,4.95,5.05c.82,3.53-.1,11.69-2.25,12.77A25.14,25.14,0,0,1,353.54,468.29Zm1.84-18.46a8.65,8.65,0,0,0-5.11,1.75h0c-1.21.83-4.33,3.34-4.33,5,0,2.21,1.41,8.3,3,9.86s10.21.76,11.91-.09c1.33-.66,2.6-7.85,1.73-11.65a6.87,6.87,0,0,0-4.33-4.34A8,8,0,0,0,355.38,449.83ZM350,451.17h0Z" style="fill: rgb(38, 50, 56); transform-origin: 354.373px 458.565px;" id="elm76pwj79z2f" class="animable"></path><path d="M351.63,453.94s-2.84,1.95-2.84,3.37.89,5.32,1.95,6.39,6.74.53,7.81,0,1.77-5.32,1.24-7.63S355.35,451.28,351.63,453.94Z" style="fill: rgb(255, 255, 255); transform-origin: 354.381px 458.553px;" id="eld61co0xmvar" class="animable"></path><path d="M353.89,464.82c-1.52,0-2.93-.2-3.5-.77-1.27-1.26-2.1-5.4-2.1-6.74,0-1.63,2.72-3.55,3-3.78a5.94,5.94,0,0,1,5.72-.86,5.14,5.14,0,0,1,3.22,3.29c.53,2.31-.08,7.47-1.51,8.18A15.3,15.3,0,0,1,353.89,464.82ZM355,453.29a5.24,5.24,0,0,0-3.09,1.06h0c-1.09.75-2.62,2.16-2.62,3,0,1.32.87,5.1,1.8,6s6.24.41,7.23-.09c.68-.34,1.52-4.72,1-7.07a4.09,4.09,0,0,0-2.59-2.58A5,5,0,0,0,355,453.29Zm-3.38.65h0Z" style="fill: rgb(38, 50, 56); transform-origin: 354.355px 458.557px;" id="eljfov5a3f47" class="animable"></path><path d="M333.15,464.68a.5.5,0,0,1-.5-.49.52.52,0,0,1,.49-.51c4.49-.07,6.7-.07,6.7-.07h0a.5.5,0,0,1,.5.5.5.5,0,0,1-.5.5s-2.2,0-6.68.07Z" style="fill: rgb(38, 50, 56); transform-origin: 336.495px 464.145px;" id="el25syekm12vn" class="animable"></path><path d="M324.39,464.83c-5.49,0-7-.5-12.12-2.15-5.83-1.88-19,.57-19.1.59a.5.5,0,1,1-.19-1c.55-.1,13.53-2.52,19.53-.58s6.95,2.25,15.07,2.08h0a.5.5,0,0,1,0,1C326.39,464.81,325.33,464.83,324.39,464.83Z" style="fill: rgb(38, 50, 56); transform-origin: 310.322px 462.885px;" id="elski7ka4kp3" class="animable"></path><path d="M341.59,455h-9.8a.5.5,0,0,1-.5-.5.5.5,0,0,1,.5-.5h9.8a.5.5,0,0,1,.5.5A.5.5,0,0,1,341.59,455Z" style="fill: rgb(38, 50, 56); transform-origin: 336.69px 454.5px;" id="elml2c234mnzi" class="animable"></path><path d="M369.29,421.59l-28.82-.47c-1.54,0-26.13-.43-27.3.32s-5.06,4.15-5.1,6.46-.53,9.21-.53,9.21l4.5,6.61,8.42,2.44,46.89.39Z" style="fill: rgb(255, 255, 255); transform-origin: 338.415px 433.774px;" id="el3011nq9kdzr" class="animable"></path><path d="M367.35,447.05h0l-46.89-.39a.3.3,0,0,1-.13,0l-8.42-2.44a.45.45,0,0,1-.27-.2l-4.51-6.61a.48.48,0,0,1-.08-.31c0-.07.49-6.93.53-9.19,0-2.6,4.22-6.15,5.33-6.87s17.77-.56,27.58-.4l28.82.47a.53.53,0,0,1,.36.17.51.51,0,0,1,.13.37l-2,24.95A.49.49,0,0,1,367.35,447.05Zm-46.82-1.38,46.35.37,1.87-24-28.29-.46c-12.26-.2-26-.21-27,.26-1.38.89-4.82,4.12-4.85,6,0,2.12-.44,8-.52,9.07l4.3,6.32Z" style="fill: rgb(38, 50, 56); transform-origin: 338.424px 433.777px;" id="el98zbjd1admn" class="animable"></path><path d="M363.1,423.8s-6.21,4.12-6.26,7.2,1.73,11.56,4,13.9,14.58,1.39,16.91.28,4-11.47,3-16.48S371.27,418.17,363.1,423.8Z" style="fill: rgb(255, 255, 255); transform-origin: 368.942px 433.887px;" id="elgg5xhs621pl" class="animable"></path><path d="M368.31,446.85c-3.43,0-6.69-.42-7.83-1.6-2.49-2.57-4.19-11.33-4.14-14.26.05-3.28,6.17-7.4,6.48-7.61a12.34,12.34,0,0,1,11.89-1.6c3.29,1.3,5.89,4,6.49,6.81,1.08,5.09-.61,15.78-3.24,17C376.65,446.26,372.36,446.85,368.31,446.85Zm2-24.92a12,12,0,0,0-6.89,2.28h0c-1.67,1.1-6,4.48-6,6.79,0,3,1.74,11.36,3.86,13.54s14,1.31,16.33.18c1.85-.89,3.8-10.72,2.69-15.93-.53-2.46-2.89-4.91-5.88-6.09A11.1,11.1,0,0,0,370.28,421.93Zm-7.18,1.87h0Z" style="fill: rgb(38, 50, 56); transform-origin: 368.935px 433.889px;" id="els3f0rtxl5jp" class="animable"></path><path d="M364.62,426.43s-4.59,3.05-4.63,5.32,1.28,8.54,2.95,10.27,10.78,1,12.5.21,3-8.47,2.18-12.18S370.65,422.27,364.62,426.43Z" style="fill: rgb(255, 255, 255); transform-origin: 368.932px 433.878px;" id="elnddppdsgq7d" class="animable"></path><path d="M368.37,443.61c-2.51,0-4.9-.32-5.78-1.24-1.86-1.92-3.14-8.45-3.1-10.62,0-2.46,4.34-5.39,4.85-5.73a9.2,9.2,0,0,1,8.9-1.2,7.85,7.85,0,0,1,4.87,5.13c.76,3.55-.3,11.69-2.46,12.73A24.05,24.05,0,0,1,368.37,443.61Zm1.55-18.43a8.78,8.78,0,0,0-5,1.66h0c-1.22.81-4.39,3.27-4.41,4.91,0,2.21,1.27,8.32,2.81,9.92s10.2.92,11.92.1c1.34-.65,2.73-7.81,1.91-11.62a6.84,6.84,0,0,0-4.25-4.41A8,8,0,0,0,369.92,425.18Zm-5.3,1.25h0Z" style="fill: rgb(38, 50, 56); transform-origin: 368.922px 433.898px;" id="elfzf3xzqna27" class="animable"></path><path d="M366.23,429.23s-2.87,1.9-2.9,3.32.8,5.34,1.85,6.42,6.73.64,7.8.13,1.87-5.3,1.37-7.61S370,426.63,366.23,429.23Z" style="fill: rgb(255, 255, 255); transform-origin: 368.916px 433.886px;" id="el17wmizugq8a" class="animable"></path><path d="M368.6,440.15c-1.63,0-3.18-.22-3.78-.83-1.24-1.28-2-5.44-2-6.78,0-1.62,2.78-3.5,3.12-3.73a6,6,0,0,1,5.73-.77,5.12,5.12,0,0,1,3.16,3.35c.5,2.32-.2,7.47-1.64,8.16A15,15,0,0,1,368.6,440.15Zm.94-11.52a5.26,5.26,0,0,0-3,1h0c-1.1.74-2.66,2.12-2.67,2.92,0,1.32.79,5.12,1.71,6.06s6.23.5,7.23,0c.68-.33,1.59-4.7,1.09-7.06a4.09,4.09,0,0,0-2.55-2.62A4.9,4.9,0,0,0,369.54,428.63Zm-3.31.6h0Z" style="fill: rgb(38, 50, 56); transform-origin: 368.905px 433.895px;" id="elvg8qa8w4r9h" class="animable"></path><path d="M354.28,439.71h0s-2.21,0-6.69,0a.51.51,0,0,1-.5-.5.5.5,0,0,1,.5-.5h0c4.5,0,6.71,0,6.71,0a.5.5,0,0,1,.49.5A.51.51,0,0,1,354.28,439.71Z" style="fill: rgb(38, 50, 56); transform-origin: 350.94px 439.21px;" id="el7ug14rlx209" class="animable"></path><path d="M340.9,439.68c-7.27,0-8.51-.42-14.17-2.35s-19,.25-19.11.27a.5.5,0,0,1-.58-.4.51.51,0,0,1,.41-.58c.55-.1,13.56-2.3,19.54-.26s6.92,2.36,15,2.32h0a.5.5,0,0,1,0,1Z" style="fill: rgb(38, 50, 56); transform-origin: 324.762px 437.588px;" id="ela6anm1ca6vr" class="animable"></path><path d="M356.19,430.11h0l-9.8-.16a.52.52,0,0,1-.5-.51.53.53,0,0,1,.51-.49l9.8.16a.5.5,0,1,1,0,1Z" style="fill: rgb(38, 50, 56); transform-origin: 351.295px 429.53px;" id="elykl42v3mlnb" class="animable"></path></g><defs>     <filter id="active" height="200%">         <feMorphology in="SourceAlpha" result="DILATED" operator="dilate" radius="2"></feMorphology>                <feFlood flood-color="#32DFEC" flood-opacity="1" result="PINK"></feFlood>        <feComposite in="PINK" in2="DILATED" operator="in" result="OUTLINE"></feComposite>        <feMerge>            <feMergeNode in="OUTLINE"></feMergeNode>            <feMergeNode in="SourceGraphic"></feMergeNode>        </feMerge>    </filter>    <filter id="hover" height="200%">        <feMorphology in="SourceAlpha" result="DILATED" operator="dilate" radius="2"></feMorphology>                <feFlood flood-color="#ff0000" flood-opacity="0.5" result="PINK"></feFlood>        <feComposite in="PINK" in2="DILATED" operator="in" result="OUTLINE"></feComposite>        <feMerge>            <feMergeNode in="OUTLINE"></feMergeNode>            <feMergeNode in="SourceGraphic"></feMergeNode>        </feMerge>            <feColorMatrix type="matrix" values="0   0   0   0   0                0   1   0   0   0                0   0   0   0   0                0   0   0   1   0 "></feColorMatrix>    </filter></defs></svg>
