<svg class="animated" id="freepik_stories-cabin" xmlns="http://www.w3.org/2000/svg" viewBox="25 29 450 432" version="1.1" xmlns:xlink="http://www.w3.org/1999/xlink" xmlns:svgjs="http://svgjs.com/svgjs"><style>svg#freepik_stories-cabin:not(.animated) .animable {opacity: 0;}svg#freepik_stories-cabin.animated #freepik--Shadow--inject-432 {animation: 1s 1 forwards cubic-bezier(.36,-0.01,.5,1.38) fadeIn;animation-delay: 0s;}            @keyframes fadeIn {                0% {                    opacity: 0;                }                100% {                    opacity: 1;                }            }        .animator-hidden { display: none; }</style><g id="freepik--background-complete--inject-432" class="animable animator-hidden" style="transform-origin: 250px 228.23px;"><rect y="382.4" width="500" height="0.25" style="fill: rgb(235, 235, 235); transform-origin: 250px 382.525px;" id="ele8uf9rpli08" class="animable"></rect><rect x="416.78" y="398.49" width="33.12" height="0.25" style="fill: rgb(235, 235, 235); transform-origin: 433.34px 398.615px;" id="ellhrr5q4hxsk" class="animable"></rect><rect x="322.53" y="401.21" width="8.69" height="0.25" style="fill: rgb(235, 235, 235); transform-origin: 326.875px 401.335px;" id="elgxb9en4275o" class="animable"></rect><rect x="396.59" y="389.21" width="19.19" height="0.25" style="fill: rgb(235, 235, 235); transform-origin: 406.185px 389.335px;" id="elhe6ml61432h" class="animable"></rect><rect x="52.46" y="390.89" width="43.19" height="0.25" style="fill: rgb(235, 235, 235); transform-origin: 74.055px 391.015px;" id="ellu75389e06" class="animable"></rect><rect x="104.56" y="390.89" width="6.33" height="0.25" style="fill: rgb(235, 235, 235); transform-origin: 107.725px 391.015px;" id="ele5xnxd4qg16" class="animable"></rect><rect x="131.47" y="395.11" width="93.68" height="0.25" style="fill: rgb(235, 235, 235); transform-origin: 178.31px 395.235px;" id="eluupbre50yq" class="animable"></rect><path d="M237,337.8H43.91a5.71,5.71,0,0,1-5.7-5.71V60.66A5.71,5.71,0,0,1,43.91,55H237a5.71,5.71,0,0,1,5.71,5.71V332.09A5.71,5.71,0,0,1,237,337.8ZM43.91,55.2a5.46,5.46,0,0,0-5.45,5.46V332.09a5.46,5.46,0,0,0,5.45,5.46H237a5.47,5.47,0,0,0,5.46-5.46V60.66A5.47,5.47,0,0,0,237,55.2Z" style="fill: rgb(235, 235, 235); transform-origin: 140.46px 196.4px;" id="elp0bggsygrjp" class="animable"></path><path d="M453.31,337.8H260.21a5.72,5.72,0,0,1-5.71-5.71V60.66A5.72,5.72,0,0,1,260.21,55h193.1A5.71,5.71,0,0,1,459,60.66V332.09A5.71,5.71,0,0,1,453.31,337.8ZM260.21,55.2a5.47,5.47,0,0,0-5.46,5.46V332.09a5.47,5.47,0,0,0,5.46,5.46h193.1a5.47,5.47,0,0,0,5.46-5.46V60.66a5.47,5.47,0,0,0-5.46-5.46Z" style="fill: rgb(235, 235, 235); transform-origin: 356.75px 196.4px;" id="elmtk98hj8nhg" class="animable"></path><path d="M141.47,97.84a4.83,4.83,0,0,0-6.21-4.63A10.28,10.28,0,0,0,125.14,81.5a10.63,10.63,0,0,0-1.89.17,8.94,8.94,0,0,0-16.58,4.52h-.15a8.24,8.24,0,0,0,0,16.48h30.26A4.82,4.82,0,0,0,141.47,97.84Z" style="fill: rgb(250, 250, 250); transform-origin: 119.875px 90.0206px;" id="elzzm21ojvdgo" class="animable"></path><path d="M437,155.11a4.81,4.81,0,0,0-6.22-4.62,10.45,10.45,0,0,0,.11-1.49,10.23,10.23,0,0,0-10.23-10.22,10.8,10.8,0,0,0-1.89.17,8.94,8.94,0,0,0-16.57,4.52H402a8.24,8.24,0,0,0,0,16.48h30.25A4.83,4.83,0,0,0,437,155.11Z" style="fill: rgb(250, 250, 250); transform-origin: 415.386px 147.309px;" id="el11itbcl4en9" class="animable"></path><path d="M255,127.2a7.66,7.66,0,0,1,7.65-7.65,7.54,7.54,0,0,1,2.19.33,16.56,16.56,0,0,1-.17-2.35,16.18,16.18,0,0,1,16.19-16.18,16.36,16.36,0,0,1,3,.28,14.14,14.14,0,0,1,26.23,7.15h.23a13,13,0,1,1,0,26.07H262.46A7.64,7.64,0,0,1,255,127.2Z" style="fill: rgb(250, 250, 250); transform-origin: 289.177px 114.836px;" id="elvcurwb85bon" class="animable"></path><path d="M58.44,203.09a9.19,9.19,0,0,1,11.84-8.81,18.72,18.72,0,0,1-.21-2.82A19.48,19.48,0,0,1,89.55,172a19.23,19.23,0,0,1,3.58.34,17,17,0,0,1,31.57,8.6H125a15.69,15.69,0,0,1,0,31.38H67.36l0,0A9.18,9.18,0,0,1,58.44,203.09Z" style="fill: rgb(250, 250, 250); transform-origin: 99.5649px 188.209px;" id="el3wgc1vdo8xw" class="animable"></path><path d="M200.26,126.55a3,3,0,0,0-3-3,3.09,3.09,0,0,0-.86.13,5.62,5.62,0,0,0,.07-.92,6.36,6.36,0,0,0-6.36-6.36,6.45,6.45,0,0,0-1.17.11,5.56,5.56,0,0,0-10.31,2.81h-.09a5.13,5.13,0,0,0,0,10.25h18.81A3,3,0,0,0,200.26,126.55Z" style="fill: rgb(250, 250, 250); transform-origin: 186.948px 121.704px;" id="elosvrabalrz" class="animable"></path><path d="M356.79,88.9a3,3,0,0,1,3-3,2.71,2.71,0,0,1,.86.13,7.14,7.14,0,0,1-.07-.93A6.36,6.36,0,0,1,367,78.74a6.45,6.45,0,0,1,1.17.11,5.56,5.56,0,0,1,10.31,2.81h.09a5.12,5.12,0,0,1,0,10.24H359.71A3,3,0,0,1,356.79,88.9Z" style="fill: rgb(250, 250, 250); transform-origin: 370.238px 84.0395px;" id="elfrzyp14ickk" class="animable"></path><path d="M395.43,238.7l-8.64-45.61L376.62,139.4h0L360,238.7h-1.48l-4.17-22a.09.09,0,0,0,0-.05L339.68,139.4h0L323,238.7h-1.47L316.3,211l-3.93-20.76-9.63-50.85h0l-10.65,63.48-6,35.82h-1.47L276,193.09,265.8,139.4h0l-16.65,99.3h-1.47L242.42,211l-4-21.13-9.57-50.48h0L218.2,202.88l-6,35.82h-1.48l-4.17-22a.09.09,0,0,0,0-.05L191.91,139.4h0l-16.65,99.3h-1.48l-8.64-45.61L155,139.4h0l-16.66,99.3h-1.47L131.6,211l-3.86-20.36L118,139.4h0l-10.64,63.48-6,35.82v61H395.43v-61Z" style="fill: rgb(245, 245, 245); transform-origin: 248.395px 219.545px;" id="elik0i9yxymxh" class="animable"></path><path d="M424.44,309.09,414.1,254.48l-12.18-64.29h0L382,309.09h-1.77l-5-26.37a.09.09,0,0,0,0-.05L357.69,190.2h0L337.75,309.09H336l-6.28-33.15L325,251.09,313.46,190.2h0v0l-12.75,76-7.19,42.89h-1.76L281.4,254.48l-12.17-64.29h0L249.29,309.09h-1.77l-6.28-33.15-4.79-25.31L225,190.2h0v0l-12.75,76-7.19,42.89h-1.76l-5-26.37a.09.09,0,0,0,0-.05L180.76,190.2h0L160.82,309.09h-1.77l-10.34-54.61-12.18-64.29h0L116.59,309.09h-1.76l-6.28-33.15-4.62-24.38L92.3,190.2h0v0l-12.75,76-7.19,42.89v73.09H424.45V309.09Z" style="fill: rgb(240, 240, 240); transform-origin: 248.405px 286.185px;" id="elazvumgom1x" class="animable"></path><rect x="378.04" y="307.23" width="6.11" height="74.95" style="fill: rgb(230, 230, 230); isolation: isolate; transform-origin: 381.095px 344.705px;" id="elho9nevkxdzs" class="animable"></rect><path d="M402.33,358.18s-26.59,9.4-42.46,0l3.23-19.26,16.71-99.63,19.79,104.5h0Z" style="fill: rgb(235, 235, 235); isolation: isolate; transform-origin: 381.1px 300.824px;" id="elidt2imirbn" class="animable"></path><rect x="289.58" y="307.23" width="6.11" height="74.95" style="fill: rgb(230, 230, 230); isolation: isolate; transform-origin: 292.635px 344.705px;" id="elbmww8yivdxf" class="animable"></rect><path d="M313.87,358.18s-26.59,9.41-42.47,0l7.19-42.88,12.75-76L307.59,325Z" style="fill: rgb(235, 235, 235); isolation: isolate; transform-origin: 292.635px 300.831px;" id="ellp8up96af5j" class="animable"></path><rect x="422.27" y="307.23" width="6.11" height="74.95" style="fill: rgb(230, 230, 230); isolation: isolate; transform-origin: 425.325px 344.705px;" id="el2m7aqb3p1us" class="animable"></rect><path d="M446.56,358.19s-26.58,9.39-42.46,0l3.75-22.37L424,239.3l17.52,92.46a.34.34,0,0,1,0,.09.45.45,0,0,1,0,.06Z" style="fill: rgb(235, 235, 235); isolation: isolate; transform-origin: 425.33px 300.832px;" id="el2lmbx25e8vs" class="animable"></path><rect x="245.34" y="307.23" width="6.11" height="74.95" style="fill: rgb(230, 230, 230); isolation: isolate; transform-origin: 248.395px 344.705px;" id="elg0rr0rodngn" class="animable"></rect><path d="M269.63,358.18s-26.59,9.4-42.46,0l3.23-19.26,16.71-99.63,19.79,104.5h0Z" style="fill: rgb(235, 235, 235); isolation: isolate; transform-origin: 248.4px 300.824px;" id="eli2sa3g8hxc" class="animable"></path><rect x="201.11" y="307.23" width="6.11" height="74.95" style="fill: rgb(230, 230, 230); isolation: isolate; transform-origin: 204.165px 344.705px;" id="el7te12xz5zn" class="animable"></rect><path d="M225.41,358.18s-26.59,9.41-42.47,0l7.19-42.88,12.75-76L219.13,325Z" style="fill: rgb(235, 235, 235); isolation: isolate; transform-origin: 204.175px 300.831px;" id="elh40lt4opb0l" class="animable"></path><rect x="333.81" y="307.23" width="6.11" height="74.95" style="fill: rgb(230, 230, 230); isolation: isolate; transform-origin: 336.865px 344.705px;" id="elzaskt6vr1gm" class="animable"></rect><path d="M358.1,358.19s-26.58,9.39-42.46,0l3.75-22.37,16.19-96.52,17.52,92.46a.34.34,0,0,1,0,.09.45.45,0,0,1,0,.06Z" style="fill: rgb(235, 235, 235); isolation: isolate; transform-origin: 336.87px 300.832px;" id="elg0v8mi2jt3s" class="animable"></path><rect x="112.65" y="307.23" width="6.11" height="74.95" style="fill: rgb(230, 230, 230); isolation: isolate; transform-origin: 115.705px 344.705px;" id="el3y87kqms85i" class="animable"></rect><path d="M136.94,358.18s-26.59,9.4-42.46,0l3.23-19.26,16.71-99.63,19.79,104.5h0Z" style="fill: rgb(235, 235, 235); isolation: isolate; transform-origin: 115.71px 300.824px;" id="elko1dy7faxqj" class="animable"></path><rect x="68.42" y="307.23" width="6.11" height="74.95" style="fill: rgb(230, 230, 230); isolation: isolate; transform-origin: 71.475px 344.705px;" id="ellf5lkd48jwd" class="animable"></rect><path d="M92.71,358.18s-26.59,9.41-42.47,0l7.19-42.88,12.75-76L86.43,325Z" style="fill: rgb(235, 235, 235); isolation: isolate; transform-origin: 71.475px 300.831px;" id="elo7gn9vmc8n" class="animable"></path><rect x="156.88" y="307.23" width="6.11" height="74.95" style="fill: rgb(230, 230, 230); isolation: isolate; transform-origin: 159.935px 344.705px;" id="elopshx1te50d" class="animable"></rect><path d="M181.17,358.19s-26.58,9.39-42.46,0l3.75-22.37,16.19-96.52,17.52,92.46a.34.34,0,0,1,0,.09.45.45,0,0,1,0,.06Z" style="fill: rgb(235, 235, 235); isolation: isolate; transform-origin: 159.94px 300.832px;" id="el35gd0xyeasp" class="animable"></path></g><g id="freepik--Shadow--inject-432" class="animable animator-active" style="transform-origin: 250px 416.24px;"><ellipse id="freepik--path--inject-432" cx="250" cy="416.24" rx="193.89" ry="11.32" style="fill: rgb(245, 245, 245); transform-origin: 250px 416.24px;" class="animable"></ellipse></g><g id="freepik--tree-2--inject-432" class="animable" style="transform-origin: 377.646px 270.655px;"><path d="M388.37,388.22s-2.73-.14-3-7.63,4.56-9.49,8.27-8.57c0,0-.54-5.33,1.86-5.14s2.24,3.76,2.24,3.76.82-7.56,4.11-7.57,0,8.95,0,8.95,4.54-2.18,6.21,0-2.09,4.74-2.09,4.74,5.89,1.92,3.43,8c0,0,4.11.64,5.26,3.37,0,0-.33-5.52,1.14-5.15s1.15,5.21,1.15,5.21,2.47-5.31,4.6-3.43-1,6.38-1,6.38,4.1-2,4.76.64-2.3,3.63-2.3,3.63,4.27-1,4.27,3.91c0,0,8.21-.78,10.18,3.62H388.54Z" style="fill: rgb(0, 0, 0); transform-origin: 411.41px 383.005px;" id="els96x4vobjyo" class="animable"></path><g id="els6fwepaoay"><path d="M388.37,388.22s-2.73-.14-3-7.63,4.56-9.49,8.27-8.57c0,0-.54-5.33,1.86-5.14s2.24,3.76,2.24,3.76.82-7.56,4.11-7.57,0,8.95,0,8.95,4.54-2.18,6.21,0-2.09,4.74-2.09,4.74,5.89,1.92,3.43,8c0,0,4.11.64,5.26,3.37,0,0-.33-5.52,1.14-5.15s1.15,5.21,1.15,5.21,2.47-5.31,4.6-3.43-1,6.38-1,6.38,4.1-2,4.76.64-2.3,3.63-2.3,3.63,4.27-1,4.27,3.91c0,0,8.21-.78,10.18,3.62H388.54Z" style="fill: rgb(255, 255, 255); opacity: 0.4; isolation: isolate; transform-origin: 411.41px 383.005px;" class="animable"></path></g><path d="M391,311.51c1.18,19.35,7.56,91,7.56,91l-46.29.43,13-129.49-20.77-6.33-4.36-12.59-17.54-9.92L314,231.47l3.32-.8,9.46,12.16,11.05,2.4L333.13,234h5.26L351.54,260l13.5,2.77,1.23-47.19c13.55,6.33,17.89-4.22,17.89-4.22s3.5,73.9,5.47,79.48h0a28.11,28.11,0,0,0,5.54-4,64.42,64.42,0,0,0,11.8-14l.88-1.38h4.2Z" style="fill: rgb(38, 50, 56); transform-origin: 363.025px 307.15px;" id="eldoimd2cvzo4" class="animable"></path><g id="el6fdobxpe2yv"><g style="opacity: 0.3; isolation: isolate; transform-origin: 363.025px 307.15px;" class="animable"><path d="M391,311.51c1.18,19.35,7.56,91,7.56,91l-46.29.43,13-129.49-20.77-6.33-4.36-12.59-17.54-9.92L314,231.47l3.32-.8,9.46,12.16,11.05,2.4L333.13,234h5.26L351.54,260l13.5,2.77,1.23-47.19c13.55,6.33,17.89-4.22,17.89-4.22s3.5,73.9,5.47,79.48h0a28.11,28.11,0,0,0,5.54-4,64.42,64.42,0,0,0,11.8-14l.88-1.38h4.2Z" style="fill: rgb(255, 255, 255); transform-origin: 363.025px 307.15px;" id="ely5zljvrp9t" class="animable"></path></g></g><g id="elwfrbl38t1i"><path d="M342.17,251.06l5.65,10.88,17.64,4.46s-.06-2.77-.35-6.33l-.07,2.67L351.54,260,338.39,234h-5.26l4.73,11.2-11.05-2.4-9.46-12.16-.46.11,7.29,11Z" style="opacity: 0.1; isolation: isolate; transform-origin: 341.175px 248.52px;" class="animable"></path></g><g id="el8fwxwbgn3hu"><polygon points="367.57 338.94 363.41 402.86 370.75 402.8 370.75 352.34 367.57 338.94" style="fill: rgb(255, 255, 255); opacity: 0.2; isolation: isolate; transform-origin: 367.08px 370.9px;" class="animable"></polygon></g><g id="el2s3a99qjpxu"><path d="M391,311.51l21.08-40.05h-4.2l-.88,1.38a64.42,64.42,0,0,1-11.8,14,28.11,28.11,0,0,1-5.54,4c-2-5.58-5.47-79.48-5.47-79.48a10.9,10.9,0,0,1-7.12,5.91l-.6,71.61c-1.49-3.41-2.79-6.65-2.92-10.19-.44,9.78-1,20.3-1,29.95l8.11,29.91,1.62,64.17,16.28-.15S392.15,330.86,391,311.51Z" style="fill: rgb(255, 255, 255); opacity: 0.1; isolation: isolate; transform-origin: 392.315px 307.04px;" class="animable"></path></g><path d="M443.07,186.44a17.58,17.58,0,0,1,11.19,16.72,19.22,19.22,0,0,1-11.69,16.66,21.21,21.21,0,0,1-20.39-2.69c-.3,6.89-5,14.38-11.57,16.46a17.39,17.39,0,0,1-18.52-5.8C374.4,238.9,312.43,243,301.54,195.68c-2.25-9.78,3.2-20.14,11.19-26.22s18.13-8.56,28.09-9.78c9.45-15.05,30.4-23.27,48-20.91s33.27,15.69,38.41,32.7C445.2,171.51,443.33,187.64,443.07,186.44Z" style="fill: rgb(0, 0, 0); transform-origin: 377.646px 186.682px;" id="elj9iyaefmkm" class="animable"></path><g id="elq57atmi9or9"><g style="opacity: 0.2; isolation: isolate; transform-origin: 377.646px 186.682px;" class="animable"><path d="M443.07,186.44a17.58,17.58,0,0,1,11.19,16.72,19.22,19.22,0,0,1-11.69,16.66,21.21,21.21,0,0,1-20.39-2.69c-.3,6.89-5,14.38-11.57,16.46a17.39,17.39,0,0,1-18.52-5.8C374.4,238.9,312.43,243,301.54,195.68c-2.25-9.78,3.2-20.14,11.19-26.22s18.13-8.56,28.09-9.78c9.45-15.05,30.4-23.27,48-20.91s33.27,15.69,38.41,32.7C445.2,171.51,443.33,187.64,443.07,186.44Z" id="el9cx8yu6o53" class="animable" style="transform-origin: 377.646px 186.682px;"></path></g></g><path d="M421.2,279.58a9.48,9.48,0,0,1-16.95-2.66c-4.19,2.95-10.67,2.22-14.92-.65a12.73,12.73,0,0,1,5.49-23.17A15.17,15.17,0,0,1,402,241.52,16.52,16.52,0,0,1,416.11,240a17.3,17.3,0,0,1,15.05,4.83,13.63,13.63,0,0,1,4.4,10.61c-.33,4-3.21,7.74-7.09,8.48a11.64,11.64,0,0,1,.4,9.23C427.62,276.15,424.22,278.46,421.2,279.58Z" style="fill: rgb(0, 0, 0); transform-origin: 409.651px 261.409px;" id="eli01wo5hx7rh" class="animable"></path><g id="eltple50ljw3l"><path d="M421.2,279.58a9.48,9.48,0,0,1-16.95-2.66c-4.19,2.95-10.67,2.22-14.92-.65a12.73,12.73,0,0,1,5.49-23.17A15.17,15.17,0,0,1,402,241.52,16.52,16.52,0,0,1,416.11,240a17.3,17.3,0,0,1,15.05,4.83,13.63,13.63,0,0,1,4.4,10.61c-.33,4-3.21,7.74-7.09,8.48a11.64,11.64,0,0,1,.4,9.23C427.62,276.15,424.22,278.46,421.2,279.58Z" style="opacity: 0.2; isolation: isolate; transform-origin: 409.651px 261.409px;" class="animable"></path></g><path d="M332,208A9.47,9.47,0,0,1,344,220.3c5.13.16,9.87,4.64,11.54,9.48A12.73,12.73,0,0,1,337.19,245a15.17,15.17,0,0,1-12.65,5,16.56,16.56,0,0,1-12.22-7.3,17.3,17.3,0,0,1-9.13-12.9A13.63,13.63,0,0,1,306,218.66c2.63-3,7.21-4.26,10.77-2.53a11.64,11.64,0,0,1,5.21-7.62C324.81,206.89,328.91,207.08,332,208Z" style="fill: rgb(0, 0, 0); transform-origin: 329.596px 228.679px;" id="el54amsn26do" class="animable"></path><g id="el7xmr2lzgfx3"><path d="M332,208A9.47,9.47,0,0,1,344,220.3c5.13.16,9.87,4.64,11.54,9.48A12.73,12.73,0,0,1,337.19,245a15.17,15.17,0,0,1-12.65,5,16.56,16.56,0,0,1-12.22-7.3,17.3,17.3,0,0,1-9.13-12.9A13.63,13.63,0,0,1,306,218.66c2.63-3,7.21-4.26,10.77-2.53a11.64,11.64,0,0,1,5.21-7.62C324.81,206.89,328.91,207.08,332,208Z" style="opacity: 0.1; isolation: isolate; transform-origin: 329.596px 228.679px;" class="animable"></path></g><path d="M391.07,401.09s-17-11-13.78-12.87,14.57,9.14,14.57,9.14-12.53-18.33-9.44-22,11.44,14.93,11.44,14.93-5.67-21.27-1.67-23.61S397.64,388,397.64,388s1.57-25.63,8.9-25.32S403.19,388,403.19,388s10.34-14.84,14-10.63-11.67,16-11.67,16S417,388,417.77,392s-12.66,8.25-12.66,8.25,4.32,1.24,5.31,2.68H387.47S387.1,401.87,391.07,401.09Z" style="fill: rgb(0, 0, 0); transform-origin: 397.343px 382.804px;" id="elzth836r1jfl" class="animable"></path><g id="ele747dzsg2gv"><path d="M391.07,401.09s-17-11-13.78-12.87,14.57,9.14,14.57,9.14-12.53-18.33-9.44-22,11.44,14.93,11.44,14.93-5.67-21.27-1.67-23.61S397.64,388,397.64,388s1.57-25.63,8.9-25.32S403.19,388,403.19,388s10.34-14.84,14-10.63-11.67,16-11.67,16S417,388,417.77,392s-12.66,8.25-12.66,8.25,4.32,1.24,5.31,2.68H387.47S387.1,401.87,391.07,401.09Z" style="fill: rgb(255, 255, 255); opacity: 0.6; isolation: isolate; transform-origin: 397.343px 382.804px;" class="animable"></path></g></g><g id="freepik--tree-1--inject-432" class="animable" style="transform-origin: 102.007px 297.65px;"><path d="M109.31,391.23s-2.18-.12-2.39-6.08,3.62-7.55,6.57-6.82c0,0-.43-4.24,1.49-4.09s1.78,3,1.78,3,.66-6,3.27-6,0,7.12,0,7.12,3.62-1.74,5,0-1.67,3.77-1.67,3.77a4.56,4.56,0,0,1,2.73,6.39s3.27.51,4.18,2.69c0,0-.26-4.39.92-4.1s.91,4.15.91,4.15,2-4.23,3.66-2.74-.78,5.08-.78,5.08,3.27-1.58,3.79.52-1.83,2.88-1.83,2.88,3.4-.78,3.4,3.12c0,0,6.53-.63,8.1,2.88H109.44Z" style="fill: rgb(38, 50, 56); transform-origin: 127.676px 387.12px;" id="elyry14oar5d" class="animable"></path><g id="elmw93mcrk85"><path d="M109.31,391.23s-2.18-.12-2.39-6.08,3.62-7.55,6.57-6.82c0,0-.43-4.24,1.49-4.09s1.78,3,1.78,3,.66-6,3.27-6,0,7.12,0,7.12,3.62-1.74,5,0-1.67,3.77-1.67,3.77a4.56,4.56,0,0,1,2.73,6.39s3.27.51,4.18,2.69c0,0-.26-4.39.92-4.1s.91,4.15.91,4.15,2-4.23,3.66-2.74-.78,5.08-.78,5.08,3.27-1.58,3.79.52-1.83,2.88-1.83,2.88,3.4-.78,3.4,3.12c0,0,6.53-.63,8.1,2.88H109.44Z" style="fill: rgb(255, 255, 255); opacity: 0.4; isolation: isolate; transform-origin: 127.676px 387.12px;" class="animable"></path></g><path d="M111.46,401.48s-13.54-8.77-11-10.25,11.59,7.27,11.59,7.27-10-14.59-7.5-17.51,9.1,11.89,9.1,11.89-4.52-16.94-1.33-18.8,4.34,17,4.34,17,1.24-20.4,7.08-20.15-2.66,20.15-2.66,20.15,8.23-11.81,11.15-8.46S123,395.37,123,395.37s9.13-4.3,9.74-1.11-10.07,6.57-10.07,6.57,3.43,1,4.22,2.13H108.59S108.3,402.09,111.46,401.48Z" style="fill: rgb(38, 50, 56); transform-origin: 116.454px 386.944px;" id="elp128wy8nuie" class="animable"></path><g id="el6f52frq8rly"><path d="M111.46,401.48s-13.54-8.77-11-10.25,11.59,7.27,11.59,7.27-10-14.59-7.5-17.51,9.1,11.89,9.1,11.89-4.52-16.94-1.33-18.8,4.34,17,4.34,17,1.24-20.4,7.08-20.15-2.66,20.15-2.66,20.15,8.23-11.81,11.15-8.46S123,395.37,123,395.37s9.13-4.3,9.74-1.11-10.07,6.57-10.07,6.57,3.43,1,4.22,2.13H108.59S108.3,402.09,111.46,401.48Z" style="fill: rgb(255, 255, 255); opacity: 0.6; isolation: isolate; transform-origin: 116.454px 386.944px;" class="animable"></path></g><path d="M99.25,391.23s2.18-.12,2.39-6.08-3.62-7.55-6.57-6.82c0,0,.43-4.24-1.49-4.09s-1.78,3-1.78,3-.66-6-3.27-6,0,7.12,0,7.12-3.62-1.74-5,0,1.67,3.77,1.67,3.77a4.56,4.56,0,0,0-2.73,6.39s-3.27.51-4.18,2.69c0,0,.26-4.39-.92-4.1s-.91,4.15-.91,4.15-2-4.23-3.66-2.74.78,5.08.78,5.08-3.27-1.58-3.79.52S71.67,397,71.67,397s-3.4-.78-3.4,3.12c0,0-6.53-.63-8.1,2.88h39Z" style="fill: rgb(0, 0, 0); transform-origin: 80.9091px 387.12px;" id="elkkdjrav1m1p" class="animable"></path><g id="elkpqh1torzui"><path d="M99.25,391.23s2.18-.12,2.39-6.08-3.62-7.55-6.57-6.82c0,0,.43-4.24-1.49-4.09s-1.78,3-1.78,3-.66-6-3.27-6,0,7.12,0,7.12-3.62-1.74-5,0,1.67,3.77,1.67,3.77a4.56,4.56,0,0,0-2.73,6.39s-3.27.51-4.18,2.69c0,0,.26-4.39-.92-4.1s-.91,4.15-.91,4.15-2-4.23-3.66-2.74.78,5.08.78,5.08-3.27-1.58-3.79.52S71.67,397,71.67,397s-3.4-.78-3.4,3.12c0,0-6.53-.63-8.1,2.88h39Z" style="fill: rgb(255, 255, 255); opacity: 0.4; isolation: isolate; transform-origin: 80.9091px 387.12px;" class="animable"></path></g><path d="M91.42,330.16c-.94,15.41-6,72.47-6,72.47l36.85.34L111.87,299.89l16.53-5,3.47-10,14-7.9,6.82-10.48-2.63-.64-7.54,9.68-8.79,1.91,3.76-8.91h-4.19L122.8,289.14l-10.74,2.2-1-37.57c-10.79,5-14.24-3.35-14.24-3.35s-2.79,58.82-4.36,63.27h0a23,23,0,0,1-4.41-3.19,51.6,51.6,0,0,1-9.39-11.12l-.69-1.1H74.64Z" style="fill: rgb(38, 50, 56); transform-origin: 113.665px 326.695px;" id="elk1rix6p7fae" class="animable"></path><g id="el8vnzth8ovdx"><g style="opacity: 0.3; isolation: isolate; transform-origin: 113.665px 326.695px;" class="animable"><path d="M91.42,330.16c-.94,15.41-6,72.47-6,72.47l36.85.34L111.87,299.89l16.53-5,3.47-10,14-7.9,6.82-10.48-2.63-.64-7.54,9.68-8.79,1.91,3.76-8.91h-4.19L122.8,289.14l-10.74,2.2-1-37.57c-10.79,5-14.24-3.35-14.24-3.35s-2.79,58.82-4.36,63.27h0a23,23,0,0,1-4.41-3.19,51.6,51.6,0,0,1-9.39-11.12l-.69-1.1H74.64Z" style="fill: rgb(255, 255, 255); transform-origin: 113.665px 326.695px;" id="eld3jok240d0a" class="animable"></path></g></g><g id="eldcv6y38ktlc"><path d="M130.26,282.05l-4.49,8.65-14,3.56s0-2.21.28-5l0,2.12,10.74-2.2,10.47-20.65h4.19l-3.76,8.91,8.79-1.91,7.54-9.68.36.09-5.8,8.79Z" style="opacity: 0.1; isolation: isolate; transform-origin: 131.075px 280.055px;" class="animable"></path></g><g id="elt1w7yf27nbe"><polygon points="110.04 352 113.36 402.88 107.51 402.83 107.51 362.67 110.04 352" style="fill: rgb(255, 255, 255); opacity: 0.2; isolation: isolate; transform-origin: 110.435px 377.44px;" class="animable"></polygon></g><g id="eljg8oihn8vpo"><path d="M91.42,330.16,74.64,298.28H78l.69,1.1a51.6,51.6,0,0,0,9.39,11.12,23,23,0,0,0,4.41,3.19c1.57-4.45,4.36-63.27,4.36-63.27a8.71,8.71,0,0,0,5.67,4.7q.22,28.5.47,57a22.32,22.32,0,0,0,2.33-8.11c.35,7.78.83,16.15.8,23.83l-6.46,23.82-1.29,51.08-13-.12S90.48,345.57,91.42,330.16Z" style="fill: rgb(255, 255, 255); opacity: 0.1; isolation: isolate; transform-origin: 90.3807px 326.58px;" class="animable"></path></g><path d="M50,230.6A14,14,0,0,0,41,243.91a15.31,15.31,0,0,0,9.31,13.27A16.92,16.92,0,0,0,66.58,255c.23,5.48,4,11.44,9.2,13.1a13.84,13.84,0,0,0,14.74-4.62c14.09,8.85,63.42,12.13,72.09-25.56,1.79-7.79-2.55-16-8.91-20.87s-14.43-6.82-22.36-7.79c-7.52-12-24.2-18.52-38.22-16.64a38,38,0,0,0-30.58,26C48.25,218.72,49.74,231.56,50,230.6Z" style="fill: rgb(0, 0, 0); transform-origin: 102.007px 230.762px;" id="el7v1209ocgs7" class="animable"></path><g id="el8zgy4x7pgu5"><g style="opacity: 0.2; isolation: isolate; transform-origin: 102.007px 230.762px;" class="animable"><path d="M50,230.6A14,14,0,0,0,41,243.91a15.31,15.31,0,0,0,9.31,13.27A16.92,16.92,0,0,0,66.58,255c.23,5.48,4,11.44,9.2,13.1a13.84,13.84,0,0,0,14.74-4.62c14.09,8.85,63.42,12.13,72.09-25.56,1.79-7.79-2.55-16-8.91-20.87s-14.43-6.82-22.36-7.79c-7.52-12-24.2-18.52-38.22-16.64a38,38,0,0,0-30.58,26C48.25,218.72,49.74,231.56,50,230.6Z" id="elr39kbv2gntc" class="animable" style="transform-origin: 102.007px 230.762px;"></path></g></g><path d="M67.35,304.75a7.55,7.55,0,0,0,13.49-2.12c3.34,2.35,8.5,1.77,11.88-.52a10.14,10.14,0,0,0-4.37-18.45,12.06,12.06,0,0,0-5.68-9.21,13.14,13.14,0,0,0-11.26-1.19,13.78,13.78,0,0,0-12,3.85,10.87,10.87,0,0,0-3.51,8.45,7.52,7.52,0,0,0,5.65,6.75,9.25,9.25,0,0,0-.32,7.34C62.25,302,65,303.85,67.35,304.75Z" style="fill: rgb(0, 0, 0); transform-origin: 76.5325px 290.282px;" id="elj149unwkid" class="animable"></path><g id="elrp2611psfgc"><path d="M67.35,304.75a7.55,7.55,0,0,0,13.49-2.12c3.34,2.35,8.5,1.77,11.88-.52a10.14,10.14,0,0,0-4.37-18.45,12.06,12.06,0,0,0-5.68-9.21,13.14,13.14,0,0,0-11.26-1.19,13.78,13.78,0,0,0-12,3.85,10.87,10.87,0,0,0-3.51,8.45,7.52,7.52,0,0,0,5.65,6.75,9.25,9.25,0,0,0-.32,7.34C62.25,302,65,303.85,67.35,304.75Z" style="opacity: 0.2; isolation: isolate; transform-origin: 76.5325px 290.282px;" class="animable"></path></g><path d="M138.36,247.76a7.54,7.54,0,0,0-9.51,9.8c-4.08.13-7.86,3.69-9.19,7.55a10.13,10.13,0,0,0,14.57,12.12,12,12,0,0,0,10.07,4,13.15,13.15,0,0,0,9.72-5.81,13.8,13.8,0,0,0,7.28-10.27,10.88,10.88,0,0,0-2.27-8.86,7.52,7.52,0,0,0-8.58-2,9.23,9.23,0,0,0-4.15-6.07C144.09,246.89,140.82,247,138.36,247.76Z" style="fill: rgb(0, 0, 0); transform-origin: 140.293px 264.24px;" id="eloabrc46s4kl" class="animable"></path><g id="eltitoa001xn"><path d="M138.36,247.76a7.54,7.54,0,0,0-9.51,9.8c-4.08.13-7.86,3.69-9.19,7.55a10.13,10.13,0,0,0,14.57,12.12,12,12,0,0,0,10.07,4,13.15,13.15,0,0,0,9.72-5.81,13.8,13.8,0,0,0,7.28-10.27,10.88,10.88,0,0,0-2.27-8.86,7.52,7.52,0,0,0-8.58-2,9.23,9.23,0,0,0-4.15-6.07C144.09,246.89,140.82,247,138.36,247.76Z" style="opacity: 0.1; isolation: isolate; transform-origin: 140.293px 264.24px;" class="animable"></path></g><path d="M97.1,401.48s13.54-8.77,11-10.25-11.59,7.27-11.59,7.27,10-14.59,7.5-17.51-9.1,11.89-9.1,11.89,4.52-16.94,1.33-18.8-4.34,17-4.34,17-1.24-20.4-7.08-20.15,2.66,20.15,2.66,20.15-8.23-11.81-11.15-8.46,9.29,12.77,9.29,12.77-9.13-4.3-9.74-1.11,10.07,6.57,10.07,6.57-3.43,1-4.23,2.13H100S100.26,402.09,97.1,401.48Z" style="fill: rgb(0, 0, 0); transform-origin: 92.1361px 386.954px;" id="elsumk3wxja0i" class="animable"></path><g id="elyam9o6qttej"><path d="M97.1,401.48s13.54-8.77,11-10.25-11.59,7.27-11.59,7.27,10-14.59,7.5-17.51-9.1,11.89-9.1,11.89,4.52-16.94,1.33-18.8-4.34,17-4.34,17-1.24-20.4-7.08-20.15,2.66,20.15,2.66,20.15-8.23-11.81-11.15-8.46,9.29,12.77,9.29,12.77-9.13-4.3-9.74-1.11,10.07,6.57,10.07,6.57-3.43,1-4.23,2.13H100S100.26,402.09,97.1,401.48Z" style="fill: rgb(255, 255, 255); opacity: 0.6; isolation: isolate; transform-origin: 92.1361px 386.954px;" class="animable"></path></g></g><g id="freepik--Cabin--inject-432" class="animable" style="transform-origin: 257.905px 320.79px;"><polygon points="327.25 228.87 284.58 301.23 95.02 301.23 137.69 228.87 327.25 228.87" style="fill: rgb(38, 50, 56); transform-origin: 211.135px 265.05px;" id="elthe7e5qlym" class="animable"></polygon><g id="el7teddx1gg4b"><polygon points="327.25 228.87 284.58 301.23 97.87 301.23 140.54 228.87 327.25 228.87" style="opacity: 0.5; isolation: isolate; transform-origin: 212.56px 265.05px;" class="animable"></polygon></g><rect x="91.54" y="298.3" width="189.63" height="2.94" style="fill: rgb(38, 50, 56); transform-origin: 186.355px 299.77px;" id="elmims9mofour" class="animable"></rect><g id="el341gac4dpt5"><rect x="91.54" y="298.3" width="2.85" height="2.85" style="fill: rgb(255, 255, 255); opacity: 0.2; isolation: isolate; transform-origin: 92.965px 299.725px;" class="animable"></rect></g><polygon points="184.62 236.36 184.62 415.53 108.93 415.53 108.93 297.84 145.19 236.36 184.62 236.36" style="fill: rgb(0, 0, 0); transform-origin: 146.775px 325.945px;" id="eluusx30hs0g" class="animable"></polygon><g id="elsjqufo4g44"><path d="M184.62,236.35V415.53H108.93V297.84l2.83-4.8.51-.86,1-1.77s0,0,0,0l.36-.59,1.87-3.15.5-.86.85-1.43.45-.74s0,0,0,0l2-3.33.51-.86,3.27-5.55.5-.85.73-1.25v0l.16-.27,2.37-4,.5-.83,1-1.67s0,0,0,0l.47-.79,1.8-3.06.5-.85,3.27-5.55.51-.85,1.7-2.89.44-.75,1.13-1.9.49-.85,1.33-2.25.33-.56,1.61-2.73.51-.86,2.74-4.66Z" style="fill: rgb(255, 255, 255); opacity: 0.3; isolation: isolate; transform-origin: 146.775px 325.94px;" class="animable"></path></g><g id="ellayvhbksfod"><rect x="184.62" y="288.77" width="168.51" height="126.76" style="fill: rgb(0, 0, 0); transform-origin: 268.875px 352.15px; transform: rotate(180deg);" class="animable"></rect></g><g id="elij2vu06xym"><rect x="184.62" y="288.77" width="168.51" height="126.76" style="fill: rgb(255, 255, 255); opacity: 0.5; isolation: isolate; transform-origin: 268.875px 352.15px; transform: rotate(180deg);" class="animable"></rect></g><g id="elcsp14iclld6"><g style="opacity: 0.3; transform-origin: 230.955px 317.175px;" class="animable"><rect x="109.09" y="305.93" width="244.04" height="0.5" id="elql0c9au0rf" class="animable" style="transform-origin: 231.11px 306.18px;"></rect><rect x="109.09" y="311.14" width="244.04" height="0.5" id="elemoinvfr4o5" class="animable" style="transform-origin: 231.11px 311.39px;"></rect><path d="M109.09,316.84h14.7c-1.3.07-2.59.18-3.88.33a40.33,40.33,0,0,1-7.28.42,32.58,32.58,0,0,0,7.32,0c2.43-.21,4.85-.35,7.29-.36s4.87,0,7.31.09l7.31.23c-2.43-.24-4.86-.46-7.3-.6l-1.5-.06H353.13v-.5h-244Z" id="elf1mmkaoghdf" class="animable" style="transform-origin: 231.11px 317.093px;"></path><rect x="109.09" y="326.74" width="244.04" height="0.5" id="elw5gc1xfa4mk" class="animable" style="transform-origin: 231.11px 326.99px;"></rect><rect x="109.09" y="331.94" width="244.04" height="0.5" id="el9zgw155xn8e" class="animable" style="transform-origin: 231.11px 332.19px;"></rect><rect x="109.09" y="342.34" width="244.04" height="0.5" id="eltfa69i6qlx" class="animable" style="transform-origin: 231.11px 342.59px;"></rect><rect x="109.09" y="352.74" width="244.04" height="0.5" id="elk6kh8regvwc" class="animable" style="transform-origin: 231.11px 352.99px;"></rect><rect x="109.09" y="357.95" width="244.04" height="0.5" id="el51dt1cu27c5" class="animable" style="transform-origin: 231.11px 358.2px;"></rect><path d="M109.09,363.65h76c1.19.12,2.39.07,3.55.13a46.44,46.44,0,0,1,5,.52c1.66.2,3.33.44,5,.5a16.25,16.25,0,0,0,5-.51,20.34,20.34,0,0,1-5,.14c-1.66-.13-3.31-.36-5-.6-.5-.07-1-.13-1.51-.18h161v-.5h-244Z" id="el3g893c6kp31" class="animable" style="transform-origin: 231.11px 363.987px;"></path><rect x="109.09" y="368.35" width="244.04" height="0.5" id="elsdneteh339" class="animable" style="transform-origin: 231.11px 368.6px;"></rect><rect x="109.09" y="373.55" width="244.04" height="0.5" id="el7nxv05kc3r4" class="animable" style="transform-origin: 231.11px 373.8px;"></rect><rect x="109.09" y="378.75" width="244.04" height="0.5" id="elorkp34lhst" class="animable" style="transform-origin: 231.11px 379px;"></rect><rect x="109.09" y="383.95" width="244.04" height="0.5" id="el8x2kw18klv3" class="animable" style="transform-origin: 231.11px 384.2px;"></rect><rect x="109.09" y="389.15" width="244.04" height="0.5" id="elsl9fydrqa4t" class="animable" style="transform-origin: 231.11px 389.4px;"></rect><rect x="109.09" y="394.35" width="244.04" height="0.5" id="elv8jfvto8zqg" class="animable" style="transform-origin: 231.11px 394.6px;"></rect><path d="M167.8,329.5a37.76,37.76,0,0,1,4.75-.31c1.59,0,3.18.14,4.77.28-1.58-.21-3.16-.43-4.76-.51a36.56,36.56,0,0,0-4.8.18,82.09,82.09,0,0,1-9.54.4l-9.56-.15c-1.6,0-3.2,0-4.8.1s-3.18.25-4.77.45c6.38-.51,12.74,0,19.13.07A73,73,0,0,0,167.8,329.5Z" id="elr4u2s1tpo08" class="animable" style="transform-origin: 158.205px 329.481px;"></path><path d="M284.92,333.31a37.76,37.76,0,0,1,4.75-.31c1.59,0,3.18.14,4.77.28-1.58-.21-3.16-.43-4.76-.51a36.56,36.56,0,0,0-4.8.18,82.09,82.09,0,0,1-9.54.4l-9.56-.15c-1.6,0-3.2,0-4.8.1s-3.18.25-4.77.45c6.37-.51,12.74,0,19.13.07A73,73,0,0,0,284.92,333.31Z" id="elxu7x3eye6km" class="animable" style="transform-origin: 275.325px 333.291px;"></path><path d="M124.5,326.46a36.64,36.64,0,0,0,4.93-.92,20.34,20.34,0,0,1,4.93-.36l5,.19q5,.18,10,.28c-3.33-.24-6.66-.46-10-.64-1.66-.11-3.32-.19-5-.26a20.15,20.15,0,0,0-5,.33,36.63,36.63,0,0,1-4.89.94,35.78,35.78,0,0,1-5,.08l-10-.62c3.32.35,6.63.73,10,1A32.49,32.49,0,0,0,124.5,326.46Z" id="elensvcw7asut" class="animable" style="transform-origin: 129.415px 325.641px;"></path><path d="M128.21,313.09a20.26,20.26,0,0,0-5-.14c-1.66.13-3.32.37-5,.61a40.28,40.28,0,0,1-5,.4c-1.46,0-2.87-.16-4.3,0v-.09a36.16,36.16,0,0,1,4.29-.23,46.26,46.26,0,0,0,5-.52c1.66-.2,3.33-.44,5-.49A15.85,15.85,0,0,1,128.21,313.09Z" id="eliw69n5qopeg" class="animable" style="transform-origin: 118.56px 313.277px;"></path><path d="M124.68,309.64c-2-.14-4-.25-5.93-.21,2,.33,3.93.53,5.9.69s3.94.25,5.93.22C128.63,310,126.66,309.8,124.68,309.64Z" id="el97vcw1jjfaf" class="animable" style="transform-origin: 124.665px 309.884px;"></path><path d="M164.37,303h.91c.29,0,.57.09.92.1.7,0,1.26-.2,1.87-.25a14.19,14.19,0,0,1,1.85,0,6.16,6.16,0,0,0-1.86-.32,16.92,16.92,0,0,0-1.84.15c-.27,0-.59-.1-.92-.08a7.46,7.46,0,0,0-1,.08l-.63.09a19.75,19.75,0,0,1-.06-6.9,36.08,36.08,0,0,0,.48-7.06c-.1-1.19-.34-2.35-.52-3.5s-.29-2.31-.38-3.48c-.15-2.33-.13-4.68-.14-7a63.71,63.71,0,0,0-.22,7.05,29.85,29.85,0,0,0,.31,3.53c.18,1.16.39,2.31.48,3.47a41,41,0,0,1-.37,7,17.46,17.46,0,0,0,.41,6.94c-.4.05-.8.12-1.21.21C163.12,303,163.74,303,164.37,303Z" id="el2ez5cpluiof" class="animable" style="transform-origin: 166.185px 288.965px;"></path><path d="M112.91,303.79a3.38,3.38,0,0,0-1.77-.77,3.44,3.44,0,0,0-1.9.26c.64.08,1.24.12,1.84.21S112.27,303.69,112.91,303.79Z" id="elixz4wn27dhe" class="animable" style="transform-origin: 111.075px 303.387px;"></path><path d="M114.7,359.89c2-.06,4-.16,5.92-.4-2-.13-4-.12-5.93-.08s-4,.16-5.92.4C110.75,359.94,112.73,359.93,114.7,359.89Z" id="el9oigaib31d" class="animable" style="transform-origin: 114.695px 359.65px;"></path><path d="M172.31,355.25c1.67,0,3.34.12,5,.11a23.68,23.68,0,0,0-5-.58,13.49,13.49,0,0,0-2.54.24c-.85.16-1.63.45-2.47.54a11.14,11.14,0,0,0,2.52-.18C170.65,355.3,171.48,355.26,172.31,355.25Z" id="elwnsa4wxg31" class="animable" style="transform-origin: 172.305px 355.175px;"></path><path d="M136.23,356c-2.35,0-4.7,0-7,.14-1.16.08-2.33.19-3.48.38s-2.31.42-3.5.52a38.51,38.51,0,0,1-7-.47,21,21,0,0,0-6.23-.09v-.06a19.11,19.11,0,0,1,6.27-.22,39.84,39.84,0,0,0,7,.37c1.16-.09,2.31-.31,3.47-.48a29.85,29.85,0,0,1,3.53-.31A64,64,0,0,1,136.23,356Z" id="elbuxw4tyzk5a" class="animable" style="transform-origin: 122.625px 356.407px;"></path><path d="M150,360.76c1.19-.1,2.35-.33,3.5-.52s2.31-.29,3.48-.38c2.33-.15,4.68-.13,7-.14a66.25,66.25,0,0,0-7.05-.22,29.51,29.51,0,0,0-3.52.32c-1.17.17-2.32.39-3.48.47a40,40,0,0,1-7-.37,17.43,17.43,0,0,0-7,.43,19.67,19.67,0,0,1,7-.07A36.08,36.08,0,0,0,150,360.76Z" id="el73ehzc687vl" class="animable" style="transform-origin: 149.955px 360.13px;"></path><path d="M118.57,351.83H120a7.39,7.39,0,0,1,1.41,0,12.84,12.84,0,0,0-2.82-.38c-.94-.08-1.89-.12-2.83-.16a16.36,16.36,0,0,0-5.66.46,34.27,34.27,0,0,1,5.64,0C116.68,351.82,117.62,351.84,118.57,351.83Z" id="eln8i9hkyix4c" class="animable" style="transform-origin: 115.755px 351.526px;"></path><path d="M178.71,309.69a13.29,13.29,0,0,0-2.6-.05,14.12,14.12,0,0,0-2.56.43,13.31,13.31,0,0,0,2.6.05A13.17,13.17,0,0,0,178.71,309.69Z" id="ely74qa2vtrgc" class="animable" style="transform-origin: 176.13px 309.88px;"></path><path d="M147.67,366.37a34.86,34.86,0,0,0-4.32.31,39.09,39.09,0,0,0,8.65-.14A37,37,0,0,0,147.67,366.37Z" id="elwnld4q80y7o" class="animable" style="transform-origin: 147.675px 366.609px;"></path><path d="M167.82,341c-2.58-.24-5.16-.29-7.75-.35s-5.18,0-7.76.13c2.59.23,5.17.28,7.75.34S165.23,341.13,167.82,341Z" id="elqf23jn9o8ei" class="animable" style="transform-origin: 160.065px 340.886px;"></path><path d="M154.49,337.14a18,18,0,0,0-5.92-.86c-2.06,0-4.09,0-6.14-.14a24.86,24.86,0,0,0,6.14.61,35.91,35.91,0,0,1,5.68.39H118.72a4.49,4.49,0,0,0-2-.28c-.78,0-1.5.1-2.26.13s-1.77.11-2.66.15h-2.66v.5h244v-.5Z" id="el4fya1x82hhv" class="animable" style="transform-origin: 231.14px 336.89px;"></path><path d="M174.68,320.17a14.15,14.15,0,0,0-4.59-.12,30,30,0,0,1-4.54.21,12,12,0,0,0,4.59.26C171.66,320.38,173.15,320.17,174.68,320.17Z" id="eltnfbqzlpz7e" class="animable" style="transform-origin: 170.115px 320.274px;"></path><path d="M124.75,343.78c-2-.08-3.89,0-5.83.08s-3.89.26-5.82.55c2,.08,3.9,0,5.84-.08S122.82,344.07,124.75,343.78Z" id="elyhklhej62lm" class="animable" style="transform-origin: 118.925px 344.095px;"></path><path d="M239.55,347.55c-2-.14-3.94-.19-5.91-.19-2.24,0-4.47.11-6.72.19H216.18c-.55,0-1.11-.06-1.66-.11l.92.11H151.86c-1.11-.2-2.24-.35-3.36-.44a33.47,33.47,0,0,0-6.25.08c1.87.12,3.73.21,5.59.36H109.09V348h44.3c.43,0,.84.1,1.27.13l-.51-.13h86.74c.77.06,1.53.12,2.3.2a34.82,34.82,0,0,0,4.79.18c1.25-.06,2.48-.21,3.72-.38H353.13v-.49Zm8.43.64a27.85,27.85,0,0,1-3.16-.15h6.25C250,348.13,249,348.19,248,348.19Z" id="elec7j7dml5xr" class="animable" style="transform-origin: 231.11px 347.699px;"></path><path d="M153.77,309.36a77.74,77.74,0,0,1,9.53.4,38.45,38.45,0,0,0,4.8.18c1.6-.09,3.19-.3,4.77-.52-1.59.14-3.18.28-4.77.28a36.12,36.12,0,0,1-4.76-.31,74.66,74.66,0,0,0-9.57-.51c-6.4.07-12.76.59-19.13.07q2.37.32,4.77.45c1.59.07,3.19.1,4.79.1Z" id="elg873xp0ccrt" class="animable" style="transform-origin: 153.755px 309.414px;"></path><path d="M199.89,351.36a36.23,36.23,0,0,1,4.88.95,20.22,20.22,0,0,0,5,.32c1.67-.06,3.33-.15,5-.25q5-.28,10-.65c-3.33.07-6.67.16-10,.28l-5,.19a19.36,19.36,0,0,1-4.93-.36,35.11,35.11,0,0,0-4.93-.91,31.29,31.29,0,0,0-5,0c-3.33.25-6.64.63-10,1l10-.61A34.34,34.34,0,0,1,199.89,351.36Z" id="elulmxjxgomqg" class="animable" style="transform-origin: 204.84px 351.748px;"></path><path d="M294.88,324.35a36,36,0,0,1,4.89.94,20.23,20.23,0,0,0,5,.33c1.67-.07,3.33-.15,5-.25q5-.28,10-.65-5,.11-10,.28l-5,.19a20.23,20.23,0,0,1-4.92-.36,35.25,35.25,0,0,0-4.94-.91,31.16,31.16,0,0,0-5,0c-3.34.25-6.65.63-10,1l10-.62A35.66,35.66,0,0,1,294.88,324.35Z" id="eliarrdvenc9" class="animable" style="transform-origin: 299.84px 324.737px;"></path><path d="M249.56,360.29a38.34,38.34,0,0,1,4.89.95,20.11,20.11,0,0,0,5,.33c1.67-.07,3.33-.15,5-.26,3.33-.18,6.66-.4,10-.64-3.33.06-6.66.16-10,.28l-5,.19a19.82,19.82,0,0,1-4.93-.37,38.26,38.26,0,0,0-4.93-.91,32.49,32.49,0,0,0-5,0c-3.33.25-6.64.63-10,1l10-.62A37.45,37.45,0,0,1,249.56,360.29Z" id="elmcbahum29tq" class="animable" style="transform-origin: 254.52px 360.684px;"></path><path d="M282.81,355.9l-5.69-.06a29.32,29.32,0,0,0,5.69.53,31,31,0,0,0,5.69-.5Z" id="eln22o8mba9pq" class="animable" style="transform-origin: 282.81px 356.105px;"></path><path d="M268,376.74l-5.69-.05a31,31,0,0,0,5.69.53,30.26,30.26,0,0,0,5.69-.51Z" id="elq50xd3ws2jo" class="animable" style="transform-origin: 268px 376.955px;"></path><path d="M334.48,328.73l-5.69-.06a29.47,29.47,0,0,0,5.69.53,31,31,0,0,0,5.69-.5Z" id="elg4m1x7c0klo" class="animable" style="transform-origin: 334.48px 328.935px;"></path><path d="M188.9,355.77a35.27,35.27,0,0,0-4.23.23,37.4,37.4,0,0,0,8.46,0A35.27,35.27,0,0,0,188.9,355.77Z" id="elfctlxfwh1ph" class="animable" style="transform-origin: 188.9px 356.005px;"></path><path d="M202.66,360.67c2.45,0,4.89-.05,7.33-.19s4.87-.36,7.3-.6l-7.32.23c-2.43.07-4.87.14-7.3.09s-4.87-.15-7.3-.35a32.58,32.58,0,0,0-7.32-.06,40.39,40.39,0,0,1,7.29.42C197.77,360.49,200.22,360.63,202.66,360.67Z" id="ely2wb73h9rb" class="animable" style="transform-origin: 202.67px 360.141px;"></path><path d="M200.07,367.26c-2,.16-3.94.36-5.9.7,2,0,4-.08,5.94-.22s3.94-.36,5.9-.69C204,367,202,367.12,200.07,367.26Z" id="el9joums1d0g9" class="animable" style="transform-origin: 200.09px 367.499px;"></path><path d="M240.21,385.46c-2,.16-3.94.35-5.9.69,2,0,4-.07,5.94-.22s3.94-.35,5.9-.69C244.16,385.21,242.18,385.32,240.21,385.46Z" id="el9dko18i3tqu" class="animable" style="transform-origin: 240.23px 385.693px;"></path><path d="M254.65,397.65c-.61,0-1.18-.21-1.87-.26-.35,0-.64.12-.93.11h-.91a16.77,16.77,0,0,0-1.87.06c.62.14,1.23.22,1.85.3a9.55,9.55,0,0,0,1,.08c.33,0,.65-.08.92-.08a14.81,14.81,0,0,0,1.84.14,5.9,5.9,0,0,0,1.86-.31A16.2,16.2,0,0,1,254.65,397.65Z" id="elkbawoglh4kk" class="animable" style="transform-origin: 252.805px 397.695px;"></path><path d="M190.18,376.82c-.65.09-1.23.21-1.84.29s-1.19.13-1.84.21a3.38,3.38,0,0,0,1.91.26A3.43,3.43,0,0,0,190.18,376.82Z" id="els9a63dfs5o" class="animable" style="transform-origin: 188.34px 377.22px;"></path><path d="M273.67,391.87c-.64.1-1.23.22-1.83.29s-1.19.13-1.84.21a3.53,3.53,0,0,0,3.67-.5Z" id="elmp1dpd9m63m" class="animable" style="transform-origin: 271.835px 392.271px;"></path><path d="M196.05,317.89c-2-.24-4-.33-5.92-.39s-3.95-.06-5.93.08c2,.23,3.94.33,5.91.39S194.07,318,196.05,317.89Z" id="elp6wfadbogv" class="animable" style="transform-origin: 190.125px 317.731px;"></path><path d="M219.45,322.43c-1.7,0-3.37.12-5,.1a23.07,23.07,0,0,1-2.49-.13,11.74,11.74,0,0,0-2.52-.17c.84.08,1.62.38,2.46.53a13.69,13.69,0,0,0,2.55.25A23.75,23.75,0,0,0,219.45,322.43Z" id="elgeenzucjn1m" class="animable" style="transform-origin: 214.445px 322.615px;"></path><path d="M341.66,366.19c-1.7,0-3.37.13-5,.11-.83,0-1.66-.05-2.49-.13a11.14,11.14,0,0,0-2.52-.18c.84.09,1.62.38,2.47.54a13.49,13.49,0,0,0,2.54.24A23.68,23.68,0,0,0,341.66,366.19Z" id="eltsf0ec651lh" class="animable" style="transform-origin: 336.655px 366.375px;"></path><path d="M211.65,321.35c-2.35,0-4.7,0-7-.14-1.17-.09-2.33-.19-3.48-.38s-2.31-.42-3.5-.52a37.7,37.7,0,0,0-7.06.48,19.44,19.44,0,0,1-7-.07,17.43,17.43,0,0,0,7,.43,41,41,0,0,1,7-.37c1.16.09,2.31.31,3.47.48,1,.14,1.94.23,2.92.28H149.31a31.71,31.71,0,0,0-8.26,0H115.87c.61,0,1.22-.08,1.84-.16a37.49,37.49,0,0,0-8.47,0c.62.08,1.23.12,1.85.16h-2v.5h244v-.5H208.53C209.57,321.49,210.61,321.43,211.65,321.35Z" id="elchlfj123v37" class="animable" style="transform-origin: 231.09px 321.169px;"></path><path d="M315.16,350.67c1.15.09,2.31.3,3.47.48a29.85,29.85,0,0,0,3.53.31,63.71,63.71,0,0,0,7-.22c-2.35,0-4.7,0-7-.14-1.17-.09-2.33-.19-3.48-.38s-2.31-.42-3.5-.52a36.87,36.87,0,0,0-7.06.48,19.43,19.43,0,0,1-7-.07,17.43,17.43,0,0,0,7,.43A41,41,0,0,1,315.16,350.67Z" id="elfhdigo7hsle" class="animable" style="transform-origin: 315.14px 350.832px;"></path><path d="M194,325.91a12.75,12.75,0,0,0,2.81-.38,7.37,7.37,0,0,1-1.41,0l-1.42,0c-.94,0-1.89,0-2.83,0a32.2,32.2,0,0,1-5.64,0,16.31,16.31,0,0,0,5.65.46C192.12,326,193.06,326,194,325.91Z" id="elddy9qntsp18" class="animable" style="transform-origin: 191.16px 325.796px;"></path><path d="M230.09,329.21c-2.08.2-4.14.43-6.2.59s-4.13.26-6.22.39a32.73,32.73,0,0,0,6.26.08A32.28,32.28,0,0,0,230.09,329.21Z" id="elmgtx0z5cai" class="animable" style="transform-origin: 223.88px 329.796px;"></path><path d="M349.65,355.42c-2.08.2-4.13.43-6.2.59s-4.13.26-6.21.39a33.46,33.46,0,0,0,6.25.08A32.15,32.15,0,0,0,349.65,355.42Z" id="el0wqfwj78hgfm" class="animable" style="transform-origin: 343.445px 356.005px;"></path><path d="M192,314.8a14.39,14.39,0,0,0-5.17-.39,14.39,14.39,0,0,0,5.17.39Z" id="elpfxddukuzf" class="animable" style="transform-origin: 189.415px 314.605px;"></path><path d="M193.32,310.29a37,37,0,0,0-4.33.17,34.86,34.86,0,0,0,4.32.31,36.79,36.79,0,0,0,4.33-.17A36.91,36.91,0,0,0,193.32,310.29Z" id="el267qlrr5y7d" class="animable" style="transform-origin: 193.315px 310.53px;"></path><path d="M243.25,336.42c-2.59-.16-5.18-.14-7.76-.13s-5.17.11-7.76.35c2.59.16,5.18.13,7.77.12S240.67,336.65,243.25,336.42Z" id="elkogmcv7phto" class="animable" style="transform-origin: 235.49px 336.526px;"></path><path d="M336.55,344.34c-2.59-.16-5.18-.14-7.76-.13s-5.17.11-7.75.35c2.58.16,5.17.13,7.76.12S334,344.57,336.55,344.34Z" id="el4asi861aw6u" class="animable" style="transform-origin: 328.795px 344.446px;"></path><path d="M224,340.63a25.4,25.4,0,0,0-6.14.61c2.06-.18,4.09-.11,6.15-.13a17.51,17.51,0,0,0,6.09-.93A33.67,33.67,0,0,1,224,340.63Z" id="elu07xss1nr2" class="animable" style="transform-origin: 223.98px 340.71px;"></path><path d="M243.44,344.2c-1.53,0-3-.21-4.54-.35a12,12,0,0,0-4.59.26,30,30,0,0,1,4.54.21A14.15,14.15,0,0,0,243.44,344.2Z" id="elvypb5mmibrs" class="animable" style="transform-origin: 238.875px 344.096px;"></path><path d="M305.73,366.06c-1.53,0-3-.2-4.55-.35a12.19,12.19,0,0,0-4.58.26,28.72,28.72,0,0,1,4.54.22A14.43,14.43,0,0,0,305.73,366.06Z" id="elpmz5rtlpmdm" class="animable" style="transform-origin: 301.165px 365.959px;"></path><path d="M194.34,340.17a6.37,6.37,0,0,1-2.22,0c-.73-.1-1.5-.2-2.25-.25a19.15,19.15,0,0,0-4.54.24c1.51.09,3,.13,4.51.24.75,0,1.48.12,2.25.14A4.55,4.55,0,0,0,194.34,340.17Z" id="elua7je60m1tm" class="animable" style="transform-origin: 189.835px 340.218px;"></path><path d="M200.18,333.6c-1.93-.29-3.87-.44-5.81-.55s-3.89-.16-5.84-.08c1.93.29,3.87.44,5.81.55S198.23,333.68,200.18,333.6Z" id="elogso7168s8b" class="animable" style="transform-origin: 194.355px 333.285px;"></path><polygon points="116.03 285.79 115.53 286.65 115.53 300.34 116.03 300.34 116.03 285.79" id="el7yg9laf46a4" class="animable" style="transform-origin: 115.78px 293.065px;"></polygon><path d="M119.81,290c.1.94.22,1.88.33,2.81a46.53,46.53,0,0,1,.52,5,24,24,0,0,0,.39,5,33.5,33.5,0,0,1,0-5,40.14,40.14,0,0,0-.42-5c-.24-1.66-.47-3.31-.6-5a20.85,20.85,0,0,1,.14-5,11.9,11.9,0,0,0-.34,1.7v-5.06l-.51.86v20.09h.51Z" id="el8za80xgzvio" class="animable" style="transform-origin: 120.185px 291.13px;"></path><polygon points="123.58 272.99 123.08 273.84 123.08 300.34 123.58 300.34 123.58 272.99" id="elu2pbyfwccj" class="animable" style="transform-origin: 123.33px 286.665px;"></polygon><polygon points="127.35 266.61 126.85 267.44 126.85 300.34 127.35 300.34 127.35 266.61" id="el03lebz9wsw36" class="animable" style="transform-origin: 127.1px 283.475px;"></polygon><polygon points="131.12 260.2 130.62 261.05 130.62 300.34 131.12 300.34 131.12 260.2" id="ell5pdbbbq7tm" class="animable" style="transform-origin: 130.87px 280.27px;"></polygon><polygon points="134.9 253.8 134.39 254.66 134.39 300.34 134.9 300.34 134.9 253.8" id="el45ompbd9xfu" class="animable" style="transform-origin: 134.645px 277.07px;"></polygon><polygon points="138.66 247.41 138.17 248.26 138.17 300.34 138.66 300.34 138.66 247.41" id="elkl5q7y6wrse" class="animable" style="transform-origin: 138.415px 273.875px;"></polygon><polygon points="142.44 241.01 141.93 241.87 141.93 300.34 142.44 300.34 142.44 241.01" id="el685ziywhmll" class="animable" style="transform-origin: 142.185px 270.675px;"></polygon><rect x="145.71" y="236.35" width="0.5" height="63.99" id="elofmdj7y9k0k" class="animable" style="transform-origin: 145.96px 268.345px;"></rect><rect x="149.48" y="236.35" width="0.5" height="63.99" id="elrhh4sof9hx9" class="animable" style="transform-origin: 149.73px 268.345px;"></rect><rect x="153.26" y="236.35" width="0.49" height="63.99" id="el9oyjqwozsgt" class="animable" style="transform-origin: 153.505px 268.345px;"></rect><rect x="157.02" y="236.35" width="0.5" height="63.99" id="elduot9zb0jd8" class="animable" style="transform-origin: 157.27px 268.345px;"></rect><rect x="160.79" y="236.35" width="0.5" height="63.99" id="elmats0ltcho" class="animable" style="transform-origin: 161.04px 268.345px;"></rect><rect x="164.57" y="236.35" width="0.49" height="63.99" id="el3ol4vsgxxr1" class="animable" style="transform-origin: 164.815px 268.345px;"></rect><rect x="168.33" y="236.35" width="0.5" height="63.99" id="el5fgblwgjqvf" class="animable" style="transform-origin: 168.58px 268.345px;"></rect><rect x="172.11" y="236.35" width="0.5" height="63.99" id="elhe8jvji1vkl" class="animable" style="transform-origin: 172.36px 268.345px;"></rect><rect x="175.88" y="236.35" width="0.49" height="63.99" id="elx7fpa9dcehi" class="animable" style="transform-origin: 176.125px 268.345px;"></rect><rect x="179.65" y="236.35" width="0.5" height="63.99" id="elb0dg7m6yi3e" class="animable" style="transform-origin: 179.9px 268.345px;"></rect><polygon points="112.27 292.18 111.76 293.04 111.76 300.34 112.27 300.34 112.27 292.18" id="elr5i041i9anb" class="animable" style="transform-origin: 112.015px 296.26px;"></polygon><path d="M137,271.87c-.52-6.37,0-12.74.07-19.13,0-.86,0-1.72,0-2.58l-.44.75c0,.61,0,1.23,0,1.83l-.15,9.57c0,1.6,0,3.19.1,4.79S136.8,270.29,137,271.87Z" id="elozs3omeub98" class="animable" style="transform-origin: 136.775px 261.015px;"></path><path d="M133.08,286.5a35.83,35.83,0,0,1,.08,5l-.62,10c.35-3.32.73-6.63,1-10a31.29,31.29,0,0,0,0-5,35.11,35.11,0,0,0-.91-4.93,19.82,19.82,0,0,1-.36-4.93l.19-5c.12-3.33.21-6.67.28-10q-.36,5-.65,10c-.1,1.67-.18,3.33-.25,5a20.11,20.11,0,0,0,.33,5A36.63,36.63,0,0,1,133.08,286.5Z" id="el6mw7uidldsw" class="animable" style="transform-origin: 132.723px 281.57px;"></path><path d="M128.81,265.85v-1.74l-.47.79s0,0,0,0c0,.31,0,.61,0,.91a29.31,29.31,0,0,0,.52,5.69Z" id="el413u8d8j8ic" class="animable" style="transform-origin: 128.6px 267.805px;"></path><path d="M128.67,297.49a33.32,33.32,0,0,0-.23-4.23,37.4,37.4,0,0,0,0,8.46A35.27,35.27,0,0,0,128.67,297.49Z" id="el6xa2fjyglx5" class="animable" style="transform-origin: 128.436px 297.49px;"></path><path d="M124.66,298.33a33.19,33.19,0,0,0-.06-7.32c-.21-2.42-.35-4.85-.36-7.29s0-4.87.08-7.3l.16-5-.16.27v0c-.14,1.55-.25,3.11-.35,4.66-.14,2.44-.21,4.89-.19,7.33a71.55,71.55,0,0,0,.46,7.32A41.27,41.27,0,0,1,124.66,298.33Z" id="elaea0jtk4hdb" class="animable" style="transform-origin: 124.305px 284.875px;"></path><path d="M117.33,283.62l-.45.74c-.07.63-.13,1.28-.17,1.92-.15,2-.26,4-.22,5.94.33-2,.53-3.93.68-5.9C117.24,285.42,117.3,284.52,117.33,283.62Z" id="el7i043k72go" class="animable" style="transform-origin: 116.906px 287.92px;"></path><path d="M113.34,292.42a7.28,7.28,0,0,0,.09.95,16.57,16.57,0,0,0,.3,1.85c.06-.62.06-1.25.06-1.87v-.91c0-.29.08-.58.1-.92-.05-.64-.18-1.16-.24-1.72l-.36.59s0,0,0,0c0,.38.11.75.13,1.08S113.33,292.09,113.34,292.42Z" id="elimap265g5ad" class="animable" style="transform-origin: 113.59px 292.51px;"></path><path d="M110.55,299.88c.08-.6.2-1.18.29-1.83a3.48,3.48,0,0,0-.76,1.77,3.39,3.39,0,0,0,.26,1.91C110.42,301.08,110.46,300.49,110.55,299.88Z" id="elwpehibmj69g" class="animable" style="transform-origin: 110.44px 299.89px;"></path><path d="M166.86,302.19c.14-2,.13-3.95.09-5.93s-.16-3.94-.4-5.92c-.13,2-.12,4-.08,5.93S166.63,300.23,166.86,302.19Z" id="elc56kfemqkdd" class="animable" style="transform-origin: 166.71px 296.265px;"></path><path d="M162.21,277a11.13,11.13,0,0,0-.17-2.52,23.07,23.07,0,0,1-.13-2.49c0-1.67.11-3.34.1-5a23.75,23.75,0,0,0-.58,5,13.5,13.5,0,0,0,.25,2.54C161.83,275.37,162.13,276.15,162.21,277Z" id="el362z1v0pnba" class="animable" style="transform-origin: 161.826px 271.995px;"></path><path d="M158.85,295.23c0-.94.05-1.89,0-2.83V291a7.37,7.37,0,0,1,0-1.41,12.75,12.75,0,0,0-.38,2.81c-.08.95-.12,1.89-.16,2.84a16.33,16.33,0,0,0,.46,5.65A34.27,34.27,0,0,1,158.85,295.23Z" id="elh22uvgyc7d" class="animable" style="transform-origin: 158.556px 295.24px;"></path><path d="M154.65,262.5c.15-2.06.38-4.12.58-6.2a33.08,33.08,0,0,0-1.06,6.16,33.57,33.57,0,0,0,.08,6.26C154.38,266.63,154.47,264.57,154.65,262.5Z" id="eld20xo11c8y" class="animable" style="transform-origin: 154.646px 262.51px;"></path><path d="M170,299.56a14.39,14.39,0,0,0-.39-5.17,14.39,14.39,0,0,0,.39,5.17Z" id="ela867quon0r" class="animable" style="transform-origin: 169.805px 296.975px;"></path><path d="M174.15,293.07a36.75,36.75,0,0,0-.31-4.32,36.71,36.71,0,0,0-.17,4.32,34.88,34.88,0,0,0,.31,4.33A37,37,0,0,0,174.15,293.07Z" id="elmtvii5lpp8" class="animable" style="transform-origin: 173.91px 293.075px;"></path><path d="M148.15,250.9c0-2.58,0-5.17-.12-7.76-.24,2.58-.29,5.17-.35,7.75s0,5.18.13,7.77C148,256.07,148.09,253.49,148.15,250.9Z" id="el7z6mczjdpor" class="animable" style="transform-origin: 147.903px 250.9px;"></path><path d="M144.26,256.3a17.5,17.5,0,0,0-.92,6.09c0,2.06,0,4.09-.14,6.14a25.27,25.27,0,0,0,.61-6.13A34.59,34.59,0,0,1,144.26,256.3Z" id="elsn0dbmuucr7" class="animable" style="transform-origin: 143.73px 262.415px;"></path><path d="M140.33,252.08a12.2,12.2,0,0,0,.26-4.58c-.09-1-.21-1.93-.27-2.9l-.33.56c0,.79.06,1.59.13,2.37A30.08,30.08,0,0,1,140.33,252.08Z" id="eltyytpm54cj" class="animable" style="transform-origin: 140.343px 248.34px;"></path><path d="M143.92,294.3c0,.77.1,1.5.13,2.25.11,1.5.15,3,.24,4.51a18.64,18.64,0,0,0,.24-4.54c-.05-.75-.15-1.52-.25-2.25a6.37,6.37,0,0,1,0-2.22A4.55,4.55,0,0,0,143.92,294.3Z" id="elwlops8zwg3e" class="animable" style="transform-origin: 144.237px 296.555px;"></path><path d="M151.47,297.86c.08-1.95,0-3.89-.08-5.84s-.26-3.88-.55-5.81c-.08,2,0,3.9.08,5.84S151.18,295.93,151.47,297.86Z" id="eld0bd8ab0ofa" class="animable" style="transform-origin: 151.155px 292.035px;"></path></g></g><rect x="251.09" y="317.68" width="15.99" height="35.89" style="fill: rgb(0, 0, 0); transform-origin: 259.085px 335.625px;" id="el6kcw5dcv1ko" class="animable"></rect><g id="elq7up9swjq2o"><rect x="242.56" y="329.05" width="33.03" height="13.13" style="opacity: 0.5; isolation: isolate; transform-origin: 259.075px 335.615px; transform: rotate(90deg);" class="animable"></rect></g><rect x="258.52" y="318.1" width="1.13" height="35.03" style="fill: rgb(0, 0, 0); transform-origin: 259.085px 335.615px;" id="elqvf1543p4wc" class="animable"></rect><rect x="251.56" y="328.87" width="15.05" height="1.13" style="fill: rgb(0, 0, 0); transform-origin: 259.085px 329.435px;" id="eltdr335g0v2" class="animable"></rect><rect x="251.56" y="341.24" width="15.05" height="1.13" style="fill: rgb(0, 0, 0); transform-origin: 259.085px 341.805px;" id="elsier27auvxr" class="animable"></rect><rect x="135.32" y="264.88" width="15.99" height="24.48" style="fill: rgb(0, 0, 0); transform-origin: 143.315px 277.12px;" id="elh42k88j54ga" class="animable"></rect><g id="eld1vgwp0478o"><rect x="132.5" y="270.56" width="21.63" height="13.13" style="opacity: 0.5; isolation: isolate; transform-origin: 143.315px 277.125px; transform: rotate(90deg);" class="animable"></rect></g><rect x="142.75" y="265.31" width="1.13" height="23.62" style="fill: rgb(0, 0, 0); transform-origin: 143.315px 277.12px;" id="eld49h0k6khvj" class="animable"></rect><rect x="135.79" y="276.56" width="15.05" height="1.13" style="fill: rgb(0, 0, 0); transform-origin: 143.315px 277.125px;" id="elxz47957vu3" class="animable"></rect><rect x="156.01" y="317.68" width="15.99" height="35.89" style="fill: rgb(0, 0, 0); transform-origin: 164.005px 335.625px;" id="elarwu1zlvmd4" class="animable"></rect><g id="elpd9qes3g18i"><rect x="147.48" y="329.05" width="33.03" height="13.13" style="opacity: 0.5; isolation: isolate; transform-origin: 163.995px 335.615px; transform: rotate(90deg);" class="animable"></rect></g><rect x="163.44" y="318.1" width="1.13" height="35.03" style="fill: rgb(0, 0, 0); transform-origin: 164.005px 335.615px;" id="elahboitb6wh" class="animable"></rect><rect x="156.48" y="328.87" width="15.05" height="1.13" style="fill: rgb(0, 0, 0); transform-origin: 164.005px 329.435px;" id="eloghln36b41" class="animable"></rect><rect x="156.48" y="341.24" width="15.05" height="1.13" style="fill: rgb(0, 0, 0); transform-origin: 164.005px 341.805px;" id="el2yqfcs4u5ag" class="animable"></rect><rect x="183.2" y="298.81" width="2.94" height="100.33" style="fill: rgb(0, 0, 0); transform-origin: 184.67px 348.975px;" id="eliqiqhps3dn" class="animable"></rect><rect x="108.66" y="298.81" width="2.94" height="100.33" style="fill: rgb(0, 0, 0); transform-origin: 110.13px 348.975px;" id="elb8ubzt2zb4w" class="animable"></rect><rect x="108.66" y="298.3" width="244.77" height="2.94" style="fill: rgb(0, 0, 0); transform-origin: 231.045px 299.77px;" id="eljc12r9wul" class="animable"></rect><rect x="351.11" y="298.81" width="2.94" height="100.33" style="fill: rgb(0, 0, 0); transform-origin: 352.58px 348.975px;" id="eln85qrlcj5tr" class="animable"></rect><rect x="119.88" y="317.68" width="15.99" height="35.89" style="fill: rgb(0, 0, 0); transform-origin: 127.875px 335.625px;" id="el04vri69nf7y" class="animable"></rect><g id="elteo7038zoga"><rect x="111.35" y="329.05" width="33.03" height="13.13" style="opacity: 0.5; isolation: isolate; transform-origin: 127.865px 335.615px; transform: rotate(90deg);" class="animable"></rect></g><rect x="127.31" y="318.1" width="1.13" height="35.03" style="fill: rgb(0, 0, 0); transform-origin: 127.875px 335.615px;" id="eldl7o0oml8f" class="animable"></rect><rect x="120.35" y="328.87" width="15.05" height="1.13" style="fill: rgb(0, 0, 0); transform-origin: 127.875px 329.435px;" id="elvv6jp0w20p" class="animable"></rect><rect x="120.35" y="341.24" width="15.05" height="1.13" style="fill: rgb(0, 0, 0); transform-origin: 127.875px 341.805px;" id="el0vzhng6adq2f" class="animable"></rect><rect x="289.12" y="317.68" width="15.99" height="35.89" style="fill: rgb(0, 0, 0); transform-origin: 297.115px 335.625px;" id="elcaxt0sipgg5" class="animable"></rect><g id="elhbdimvfy0m8"><rect x="280.59" y="329.05" width="33.03" height="13.13" style="opacity: 0.5; isolation: isolate; transform-origin: 297.105px 335.615px; transform: rotate(90deg);" class="animable"></rect></g><rect x="296.55" y="318.1" width="1.13" height="35.03" style="fill: rgb(0, 0, 0); transform-origin: 297.115px 335.615px;" id="eltwuy40o9arj" class="animable"></rect><rect x="289.59" y="328.87" width="15.05" height="1.13" style="fill: rgb(0, 0, 0); transform-origin: 297.115px 329.435px;" id="eld16vty95ief" class="animable"></rect><rect x="289.59" y="341.24" width="15.05" height="1.13" style="fill: rgb(0, 0, 0); transform-origin: 297.115px 341.805px;" id="elpoqdgwcd0p9" class="animable"></rect><rect x="327.15" y="317.68" width="15.99" height="35.89" style="fill: rgb(0, 0, 0); transform-origin: 335.145px 335.625px;" id="elqeutm752dca" class="animable"></rect><g id="elkufxfi6aha"><rect x="318.62" y="329.05" width="33.03" height="13.13" style="opacity: 0.5; isolation: isolate; transform-origin: 335.135px 335.615px; transform: rotate(90deg);" class="animable"></rect></g><rect x="334.58" y="318.1" width="1.13" height="35.03" style="fill: rgb(0, 0, 0); transform-origin: 335.145px 335.615px;" id="elsuwc6l6z5x" class="animable"></rect><rect x="327.62" y="328.87" width="15.05" height="1.13" style="fill: rgb(0, 0, 0); transform-origin: 335.145px 329.435px;" id="el109hrwlp3h5o" class="animable"></rect><rect x="327.62" y="341.24" width="15.05" height="1.13" style="fill: rgb(0, 0, 0); transform-origin: 335.145px 341.805px;" id="eldeznkzuuz3e" class="animable"></rect><rect x="202.78" y="319.1" width="32.29" height="80.04" style="fill: rgb(0, 0, 0); transform-origin: 218.925px 359.12px;" id="elk7hmujizc3" class="animable"></rect><g id="eljg0b02lfjv"><rect x="205.01" y="320.62" width="28.88" height="78.52" style="opacity: 0.2; isolation: isolate; transform-origin: 219.45px 359.88px;" class="animable"></rect></g><g id="elnquz0cn6r79"><rect x="232.95" y="320.62" width="0.94" height="78.52" style="opacity: 0.2; isolation: isolate; transform-origin: 233.42px 359.88px;" class="animable"></rect></g><g id="elevrejw2spqg"><rect x="202.78" y="319.1" width="0.94" height="80.04" style="opacity: 0.4; isolation: isolate; transform-origin: 203.25px 359.12px;" class="animable"></rect></g><g id="eltsldejfz0r"><path d="M218.71,332.92v-6.45a6.75,6.75,0,0,0-5.87,6.45Z" style="opacity: 0.5; isolation: isolate; transform-origin: 215.775px 329.695px;" class="animable"></path></g><g id="elyf28okhzl"><path d="M219.78,332.92h5.87a6.75,6.75,0,0,0-5.87-6.45Z" style="opacity: 0.5; isolation: isolate; transform-origin: 222.715px 329.695px;" class="animable"></path></g><g id="elriuq8hpijzq"><path d="M218.71,334h-5.87a6.74,6.74,0,0,0,5.87,6.45Z" style="opacity: 0.5; isolation: isolate; transform-origin: 215.775px 337.225px;" class="animable"></path></g><g id="elwewuavmhdrl"><path d="M219.78,334v6.45a6.74,6.74,0,0,0,5.87-6.45Z" style="opacity: 0.5; isolation: isolate; transform-origin: 222.715px 337.225px;" class="animable"></path></g><rect x="412.1" y="317.78" width="3.26" height="81.99" style="fill: rgb(0, 0, 0); transform-origin: 413.73px 358.775px;" id="elvwmbx5ejjv" class="animable"></rect><rect x="243.81" y="317.78" width="3.26" height="81.99" style="fill: rgb(0, 0, 0); transform-origin: 245.44px 358.775px;" id="elezkhczpwaj" class="animable"></rect><rect x="86.01" y="398.38" width="334.49" height="17.27" style="fill: rgb(0, 0, 0); transform-origin: 253.255px 407.015px;" id="elq78ds9ib7c" class="animable"></rect><g id="eln847euxtb"><rect x="228.82" y="398.38" width="191.68" height="17.27" style="fill: rgb(255, 255, 255); opacity: 0.2; isolation: isolate; transform-origin: 324.66px 407.015px;" class="animable"></rect></g><polygon points="308.74 398.38 306.27 398.38 278.7 373.01 281.17 373.01 308.74 398.38" style="fill: rgb(38, 50, 56); transform-origin: 293.72px 385.695px;" id="eluwjvm1q00ki" class="animable"></polygon><g id="elf96mlhwx2ra"><polygon points="308.74 398.38 307.51 398.38 279.94 373.01 281.17 373.01 308.74 398.38" style="fill: rgb(255, 255, 255); opacity: 0.2; isolation: isolate; transform-origin: 294.34px 385.695px;" class="animable"></polygon></g><polygon points="336.63 398.38 334.17 398.38 306.59 373.01 309.06 373.01 336.63 398.38" style="fill: rgb(38, 50, 56); transform-origin: 321.61px 385.695px;" id="elc1zpxgp3l5" class="animable"></polygon><g id="elx88qkz73zm"><polygon points="336.63 398.38 335.4 398.38 307.83 373.01 309.06 373.01 336.63 398.38" style="fill: rgb(255, 255, 255); opacity: 0.2; isolation: isolate; transform-origin: 322.23px 385.695px;" class="animable"></polygon></g><polygon points="364.52 398.38 362.06 398.38 334.48 373.01 336.95 373.01 364.52 398.38" style="fill: rgb(38, 50, 56); transform-origin: 349.5px 385.695px;" id="eln0v5zgzyiv" class="animable"></polygon><g id="elam38g9zvfeh"><polygon points="364.52 398.38 363.29 398.38 335.72 373.01 336.95 373.01 364.52 398.38" style="fill: rgb(255, 255, 255); opacity: 0.2; isolation: isolate; transform-origin: 350.12px 385.695px;" class="animable"></polygon></g><polygon points="392.42 398.38 389.95 398.38 362.38 373.01 364.84 373.01 392.42 398.38" style="fill: rgb(38, 50, 56); transform-origin: 377.4px 385.695px;" id="elk3yiu49vul" class="animable"></polygon><g id="elpiab61zkq57"><polygon points="392.42 398.38 391.18 398.38 363.61 373.01 364.84 373.01 392.42 398.38" style="fill: rgb(255, 255, 255); opacity: 0.2; isolation: isolate; transform-origin: 378.015px 385.695px;" class="animable"></polygon></g><polygon points="420.31 398.38 417.84 398.38 390.27 373.01 392.73 373.01 420.31 398.38" style="fill: rgb(38, 50, 56); transform-origin: 405.29px 385.695px;" id="ellu02twgfp4" class="animable"></polygon><g id="ela7zbe3y85hk"><polygon points="420.31 398.38 419.07 398.38 391.5 373.01 392.73 373.01 420.31 398.38" style="fill: rgb(255, 255, 255); opacity: 0.2; isolation: isolate; transform-origin: 405.905px 385.695px;" class="animable"></polygon></g><polygon points="281.49 398.38 279.02 398.38 306.59 373.01 309.06 373.01 281.49 398.38" style="fill: rgb(38, 50, 56); transform-origin: 294.04px 385.695px;" id="elkzbsny9xy2q" class="animable"></polygon><g id="elyrd3iczj07m"><polygon points="281.49 398.38 280.25 398.38 307.83 373.01 309.06 373.01 281.49 398.38" style="fill: rgb(255, 255, 255); opacity: 0.2; isolation: isolate; transform-origin: 294.655px 385.695px;" class="animable"></polygon></g><polygon points="309.38 398.38 306.91 398.38 334.48 373.01 336.95 373.01 309.38 398.38" style="fill: rgb(38, 50, 56); transform-origin: 321.93px 385.695px;" id="elw4k11rjgopp" class="animable"></polygon><g id="el16zstb0vyqm"><polygon points="309.38 398.38 308.14 398.38 335.72 373.01 336.95 373.01 309.38 398.38" style="fill: rgb(255, 255, 255); opacity: 0.2; isolation: isolate; transform-origin: 322.545px 385.695px;" class="animable"></polygon></g><polygon points="337.27 398.38 334.8 398.38 362.38 373.01 364.84 373.01 337.27 398.38" style="fill: rgb(38, 50, 56); transform-origin: 349.82px 385.695px;" id="elk6ylb56ml6" class="animable"></polygon><g id="elzapoqwkw6x"><polygon points="337.27 398.38 336.04 398.38 363.61 373.01 364.84 373.01 337.27 398.38" style="fill: rgb(255, 255, 255); opacity: 0.2; isolation: isolate; transform-origin: 350.44px 385.695px;" class="animable"></polygon></g><polygon points="365.16 398.38 362.69 398.38 390.27 373.01 392.73 373.01 365.16 398.38" style="fill: rgb(38, 50, 56); transform-origin: 377.71px 385.695px;" id="eltu1rach33f" class="animable"></polygon><g id="el5bf6anoj7k"><polygon points="365.16 398.38 363.93 398.38 391.5 373.01 392.73 373.01 365.16 398.38" style="fill: rgb(255, 255, 255); opacity: 0.2; isolation: isolate; transform-origin: 378.33px 385.695px;" class="animable"></polygon></g><polygon points="393.05 398.38 390.58 398.38 418.16 373.01 420.63 373.01 393.05 398.38" style="fill: rgb(38, 50, 56); transform-origin: 405.605px 385.695px;" id="el9y2ezuzw5ym" class="animable"></polygon><g id="elr0b3dlrhu9b"><polygon points="393.05 398.38 391.82 398.38 419.39 373.01 420.63 373.01 393.05 398.38" style="fill: rgb(255, 255, 255); opacity: 0.2; isolation: isolate; transform-origin: 406.225px 385.695px;" class="animable"></polygon></g><rect x="278.7" y="373.01" width="2.47" height="25.38" style="fill: rgb(38, 50, 56); transform-origin: 279.935px 385.7px;" id="elc3gvkbpwtj9" class="animable"></rect><g id="elmu96s5o4bg"><rect x="279.94" y="373.01" width="1.23" height="25.38" style="fill: rgb(255, 255, 255); opacity: 0.2; isolation: isolate; transform-origin: 280.555px 385.7px;" class="animable"></rect></g><rect x="306.59" y="373.01" width="2.47" height="25.38" style="fill: rgb(38, 50, 56); transform-origin: 307.825px 385.7px;" id="elvnhfb1smub" class="animable"></rect><g id="el0fdkio4gu4lr"><rect x="307.83" y="373.01" width="1.23" height="25.38" style="fill: rgb(255, 255, 255); opacity: 0.2; isolation: isolate; transform-origin: 308.445px 385.7px;" class="animable"></rect></g><rect x="334.48" y="373.01" width="2.47" height="25.38" style="fill: rgb(38, 50, 56); transform-origin: 335.715px 385.7px;" id="elp8983z0ice" class="animable"></rect><g id="elwicjzlqjtig"><rect x="335.72" y="373.01" width="1.23" height="25.38" style="fill: rgb(255, 255, 255); opacity: 0.2; isolation: isolate; transform-origin: 336.335px 385.7px;" class="animable"></rect></g><rect x="362.37" y="373.01" width="2.47" height="25.38" style="fill: rgb(38, 50, 56); transform-origin: 363.605px 385.7px;" id="el3mzqwq2x4oe" class="animable"></rect><g id="el524fffzvelb"><rect x="363.61" y="373.01" width="1.23" height="25.38" style="fill: rgb(255, 255, 255); opacity: 0.2; isolation: isolate; transform-origin: 364.225px 385.7px;" class="animable"></rect></g><rect x="390.27" y="373.01" width="2.47" height="25.38" style="fill: rgb(38, 50, 56); transform-origin: 391.505px 385.7px;" id="elnvmcuvhn4nf" class="animable"></rect><g id="elfz95q8l70e"><rect x="391.5" y="373.01" width="1.23" height="25.38" style="fill: rgb(255, 255, 255); opacity: 0.2; isolation: isolate; transform-origin: 392.115px 385.7px;" class="animable"></rect></g><rect x="418.16" y="373.01" width="2.47" height="25.38" style="fill: rgb(38, 50, 56); transform-origin: 419.395px 385.7px;" id="eln3948pdhek" class="animable"></rect><g id="elrchv6f2kfr"><rect x="419.39" y="373.01" width="1.23" height="25.38" style="fill: rgb(255, 255, 255); opacity: 0.2; isolation: isolate; transform-origin: 420.005px 385.7px;" class="animable"></rect></g><rect x="277.12" y="370.78" width="145.89" height="2.94" style="fill: rgb(38, 50, 56); transform-origin: 350.065px 372.25px;" id="eln2f3y9xz1k" class="animable"></rect><g id="ely3a6d621f1g"><rect x="279.98" y="370.78" width="143.04" height="2.94" style="fill: rgb(255, 255, 255); opacity: 0.2; isolation: isolate; transform-origin: 351.5px 372.25px; transform: rotate(180deg);" class="animable"></rect></g><polygon points="198.38 398.38 200.85 398.38 228.43 373.01 225.96 373.01 198.38 398.38" style="fill: rgb(38, 50, 56); transform-origin: 213.405px 385.695px;" id="elqsnsyknxmlg" class="animable"></polygon><g id="elybcnzafjt3"><polygon points="198.38 398.38 199.62 398.38 227.19 373.01 225.96 373.01 198.38 398.38" style="fill: rgb(255, 255, 255); opacity: 0.2; isolation: isolate; transform-origin: 212.785px 385.695px;" class="animable"></polygon></g><polygon points="170.49 398.38 172.96 398.38 200.53 373.01 198.07 373.01 170.49 398.38" style="fill: rgb(38, 50, 56); transform-origin: 185.51px 385.695px;" id="el7mzgcp0qisf" class="animable"></polygon><g id="elsq3mvntdrq"><polygon points="170.49 398.38 171.73 398.38 199.3 373.01 198.07 373.01 170.49 398.38" style="fill: rgb(255, 255, 255); opacity: 0.2; isolation: isolate; transform-origin: 184.895px 385.695px;" class="animable"></polygon></g><polygon points="142.6 398.38 145.07 398.38 172.64 373.01 170.18 373.01 142.6 398.38" style="fill: rgb(38, 50, 56); transform-origin: 157.62px 385.695px;" id="el8ekpmhuvwm" class="animable"></polygon><g id="el1pgc53niaca"><polygon points="142.6 398.38 143.84 398.38 171.41 373.01 170.18 373.01 142.6 398.38" style="fill: rgb(255, 255, 255); opacity: 0.2; isolation: isolate; transform-origin: 157.005px 385.695px;" class="animable"></polygon></g><polygon points="114.71 398.38 117.18 398.38 144.75 373.01 142.28 373.01 114.71 398.38" style="fill: rgb(38, 50, 56); transform-origin: 129.73px 385.695px;" id="el9fmer446vho" class="animable"></polygon><g id="elfpg36qecsrs"><polygon points="114.71 398.38 115.94 398.38 143.52 373.01 142.28 373.01 114.71 398.38" style="fill: rgb(255, 255, 255); opacity: 0.2; isolation: isolate; transform-origin: 129.115px 385.695px;" class="animable"></polygon></g><polygon points="86.82 398.38 89.29 398.38 116.86 373.01 114.39 373.01 86.82 398.38" style="fill: rgb(38, 50, 56); transform-origin: 101.84px 385.695px;" id="elpb9ly00htr" class="animable"></polygon><g id="eln8x0o43alah"><polygon points="86.82 398.38 88.05 398.38 115.63 373.01 114.39 373.01 86.82 398.38" style="fill: rgb(255, 255, 255); opacity: 0.2; isolation: isolate; transform-origin: 101.225px 385.695px;" class="animable"></polygon></g><polygon points="225.64 398.38 228.11 398.38 200.53 373.01 198.07 373.01 225.64 398.38" style="fill: rgb(38, 50, 56); transform-origin: 213.09px 385.695px;" id="elxfgwxxn93lk" class="animable"></polygon><g id="el7l7h52qk48v"><polygon points="225.64 398.38 226.87 398.38 199.3 373.01 198.07 373.01 225.64 398.38" style="fill: rgb(255, 255, 255); opacity: 0.2; isolation: isolate; transform-origin: 212.47px 385.695px;" class="animable"></polygon></g><polygon points="197.75 398.38 200.22 398.38 172.64 373.01 170.18 373.01 197.75 398.38" style="fill: rgb(38, 50, 56); transform-origin: 185.2px 385.695px;" id="ele2ceerkln1u" class="animable"></polygon><g id="el6t57j6x6mej"><polygon points="197.75 398.38 198.98 398.38 171.41 373.01 170.18 373.01 197.75 398.38" style="fill: rgb(255, 255, 255); opacity: 0.2; isolation: isolate; transform-origin: 184.58px 385.695px;" class="animable"></polygon></g><polygon points="169.86 398.38 172.32 398.38 144.75 373.01 142.28 373.01 169.86 398.38" style="fill: rgb(38, 50, 56); transform-origin: 157.3px 385.695px;" id="el2vmips7jp8b" class="animable"></polygon><g id="elfh0cia2sfhd"><polygon points="169.86 398.38 171.09 398.38 143.52 373.01 142.28 373.01 169.86 398.38" style="fill: rgb(255, 255, 255); opacity: 0.2; isolation: isolate; transform-origin: 156.685px 385.695px;" class="animable"></polygon></g><polygon points="141.97 398.38 144.43 398.38 116.86 373.01 114.39 373.01 141.97 398.38" style="fill: rgb(38, 50, 56); transform-origin: 129.41px 385.695px;" id="eluf3amp4on6" class="animable"></polygon><g id="ellprdxmu2d9p"><polygon points="141.97 398.38 143.2 398.38 115.63 373.01 114.39 373.01 141.97 398.38" style="fill: rgb(255, 255, 255); opacity: 0.2; isolation: isolate; transform-origin: 128.795px 385.695px;" class="animable"></polygon></g><polygon points="114.07 398.38 116.54 398.38 88.97 373.01 86.5 373.01 114.07 398.38" style="fill: rgb(38, 50, 56); transform-origin: 101.52px 385.695px;" id="elv0lzepawpv" class="animable"></polygon><g id="ele29ynuwkhrf"><polygon points="114.07 398.38 115.31 398.38 87.73 373.01 86.5 373.01 114.07 398.38" style="fill: rgb(255, 255, 255); opacity: 0.2; isolation: isolate; transform-origin: 100.905px 385.695px;" class="animable"></polygon></g><g id="el3dn7aql029n"><rect x="225.96" y="373.01" width="2.47" height="25.38" style="fill: rgb(38, 50, 56); transform-origin: 227.195px 385.7px; transform: rotate(180deg);" class="animable"></rect></g><g id="el52lnefsbxxv"><rect x="225.96" y="373.01" width="1.23" height="25.38" style="fill: rgb(255, 255, 255); opacity: 0.2; isolation: isolate; transform-origin: 226.575px 385.7px; transform: rotate(180deg);" class="animable"></rect></g><g id="eliq785iz3hsg"><rect x="198.07" y="373.01" width="2.47" height="25.38" style="fill: rgb(38, 50, 56); transform-origin: 199.305px 385.7px; transform: rotate(180deg);" class="animable"></rect></g><g id="elmov4zgffr0i"><rect x="198.07" y="373.01" width="1.23" height="25.38" style="fill: rgb(255, 255, 255); opacity: 0.2; isolation: isolate; transform-origin: 198.685px 385.7px; transform: rotate(180deg);" class="animable"></rect></g><g id="elc7dczzeolr"><rect x="170.17" y="373.01" width="2.47" height="25.38" style="fill: rgb(38, 50, 56); transform-origin: 171.405px 385.7px; transform: rotate(180deg);" class="animable"></rect></g><g id="el8wc0jrag04o"><rect x="170.17" y="373.01" width="1.23" height="25.38" style="fill: rgb(255, 255, 255); opacity: 0.2; isolation: isolate; transform-origin: 170.785px 385.7px; transform: rotate(180deg);" class="animable"></rect></g><g id="elezuw0zx8f6b"><rect x="142.28" y="373.01" width="2.47" height="25.38" style="fill: rgb(38, 50, 56); transform-origin: 143.515px 385.7px; transform: rotate(180deg);" class="animable"></rect></g><g id="elny8i9dwtevr"><rect x="142.28" y="373.01" width="1.23" height="25.38" style="fill: rgb(255, 255, 255); opacity: 0.2; isolation: isolate; transform-origin: 142.895px 385.7px; transform: rotate(180deg);" class="animable"></rect></g><g id="eljzpoind0rti"><rect x="114.39" y="373.01" width="2.47" height="25.38" style="fill: rgb(38, 50, 56); transform-origin: 115.625px 385.7px; transform: rotate(180deg);" class="animable"></rect></g><g id="elw5guwkqfu6f"><rect x="114.39" y="373.01" width="1.23" height="25.38" style="fill: rgb(255, 255, 255); opacity: 0.2; isolation: isolate; transform-origin: 115.005px 385.7px; transform: rotate(180deg);" class="animable"></rect></g><g id="el243r36kbbxt"><rect x="86.5" y="373.01" width="2.47" height="25.38" style="fill: rgb(38, 50, 56); transform-origin: 87.735px 385.7px; transform: rotate(180deg);" class="animable"></rect></g><g id="ell2jagpxskpb"><rect x="86.5" y="373.01" width="1.23" height="25.38" style="fill: rgb(255, 255, 255); opacity: 0.2; isolation: isolate; transform-origin: 87.115px 385.7px; transform: rotate(180deg);" class="animable"></rect></g><g id="elpcgoihd0y98"><rect x="84.11" y="370.78" width="145.89" height="2.94" style="fill: rgb(38, 50, 56); transform-origin: 157.055px 372.25px; transform: rotate(180deg);" class="animable"></rect></g><g id="elsxlegsbtopp"><rect x="227.15" y="370.78" width="2.85" height="2.85" style="fill: rgb(255, 255, 255); opacity: 0.2; isolation: isolate; transform-origin: 228.575px 372.205px; transform: rotate(180deg);" class="animable"></rect></g><rect x="84.11" y="397.78" width="338.9" height="2.56" style="fill: rgb(38, 50, 56); transform-origin: 253.56px 399.06px;" id="elset3wapl8iq" class="animable"></rect><g id="el17wgok0mptg"><rect x="228.68" y="397.78" width="194.34" height="2.56" style="fill: rgb(255, 255, 255); opacity: 0.2; isolation: isolate; transform-origin: 325.85px 399.06px;" class="animable"></rect></g><polygon points="369.85 301.33 180.29 301.33 137.62 228.96 327.18 228.96 369.85 301.33" style="fill: rgb(38, 50, 56); transform-origin: 253.735px 265.145px;" id="elh1qnkfv99zf" class="animable"></polygon><g id="eljboc9bvgt7"><polygon points="369.85 301.33 183.15 301.33 140.48 228.96 327.18 228.96 369.85 301.33" style="fill: rgb(255, 255, 255); opacity: 0.2; isolation: isolate; transform-origin: 255.165px 265.145px;" class="animable"></polygon></g><polygon points="431.7 321.27 241.51 321.27 179.65 301.29 369.85 301.29 431.7 319.37 431.7 321.27" style="fill: rgb(38, 50, 56); transform-origin: 305.675px 311.28px;" id="elmo4z1qaokb" class="animable"></polygon><g id="elkz1mrov8z4"><polygon points="431.7 321.27 241.51 321.27 179.65 301.29 369.85 301.29 431.7 319.37 431.7 321.27" style="fill: rgb(255, 255, 255); opacity: 0.2; isolation: isolate; transform-origin: 305.675px 311.28px;" class="animable"></polygon></g><rect x="137.62" y="225.93" width="189.63" height="2.94" style="fill: rgb(38, 50, 56); transform-origin: 232.435px 227.4px;" id="elgo3kv5xwid9" class="animable"></rect><g id="el5azjwlw5jt8"><rect x="137.62" y="225.93" width="2.85" height="2.85" style="fill: rgb(255, 255, 255); opacity: 0.2; isolation: isolate; transform-origin: 139.045px 227.355px;" class="animable"></rect></g><g id="elodvrtnlt3ni"><path d="M157.54,227.36a16.8,16.8,0,0,0,1.17,2.32l1.28,2.26,2.63,4.5,5.28,9,10.55,18,10.43,18,5.16,9,5.09,9.1c-1.86-2.94-3.66-5.91-5.49-8.86l-5.39-8.91c-3.59-6-7.09-12-10.62-17.93s-7-12-10.36-18.08l-5.05-9.12-2.45-4.6A38.83,38.83,0,0,1,157.54,227.36Z" style="opacity: 0.2; isolation: isolate; transform-origin: 178.335px 263.45px;" class="animable"></path></g><g id="el27rt4dbqgyfi"><path d="M176.59,227.36a16.8,16.8,0,0,0,1.17,2.32l1.28,2.26,2.63,4.5,5.28,9,10.55,18,10.43,18,5.16,9,5.09,9.1c-1.86-2.94-3.66-5.91-5.49-8.86l-5.39-8.91c-3.59-6-7.09-12-10.62-17.93s-7-12-10.36-18.08l-5-9.12-2.45-4.6A38.83,38.83,0,0,1,176.59,227.36Z" style="opacity: 0.2; isolation: isolate; transform-origin: 197.385px 263.45px;" class="animable"></path></g><g id="elk32txnk76w"><path d="M195.64,227.36a16.8,16.8,0,0,0,1.17,2.32l1.28,2.26,2.63,4.5,5.28,9,10.55,18,10.43,18,5.16,9,5.09,9.1c-1.86-2.94-3.66-5.91-5.49-8.86l-5.39-8.91c-3.59-6-7.09-12-10.62-17.93s-7-12-10.36-18.08l-5.05-9.12-2.45-4.6A38.83,38.83,0,0,1,195.64,227.36Z" style="opacity: 0.2; isolation: isolate; transform-origin: 216.435px 263.45px;" class="animable"></path></g><g id="elbombahk07sv"><path d="M214.69,227.36a16.8,16.8,0,0,0,1.17,2.32l1.28,2.26,2.63,4.5,5.28,9,10.55,18,10.43,18,5.16,9,5.09,9.1c-1.86-2.94-3.66-5.91-5.49-8.86l-5.39-8.91c-3.59-6-7.09-12-10.62-17.93s-7-12-10.36-18.08l-5-9.12-2.45-4.6A38.83,38.83,0,0,1,214.69,227.36Z" style="opacity: 0.2; isolation: isolate; transform-origin: 235.485px 263.45px;" class="animable"></path></g><g id="elvl0nojh9k5"><path d="M233.74,227.36a16.8,16.8,0,0,0,1.17,2.32l1.28,2.26,2.63,4.5,5.28,9,10.55,18,10.43,18,5.16,9,5.09,9.1c-1.86-2.94-3.66-5.91-5.49-8.86l-5.39-8.91c-3.59-6-7.09-12-10.62-17.93s-7-12-10.36-18.08l-5.05-9.12-2.45-4.6A38.83,38.83,0,0,1,233.74,227.36Z" style="opacity: 0.2; isolation: isolate; transform-origin: 254.535px 263.45px;" class="animable"></path></g><g id="ela4196700lee"><path d="M252.79,227.36a16.8,16.8,0,0,0,1.17,2.32l1.28,2.26,2.63,4.5,5.28,9,10.55,18,10.43,18,5.16,9,5.09,9.1c-1.86-2.94-3.66-5.91-5.49-8.86l-5.4-8.91c-3.58-6-7.08-12-10.61-17.93s-7-12-10.36-18.08l-5-9.12-2.45-4.6A38.83,38.83,0,0,1,252.79,227.36Z" style="opacity: 0.2; isolation: isolate; transform-origin: 273.585px 263.45px;" class="animable"></path></g><g id="elqorx5v2au0a"><path d="M271.84,227.36a16.8,16.8,0,0,0,1.17,2.32l1.28,2.26,2.63,4.5,5.28,9,10.55,18,10.43,18,5.16,9,5.09,9.1c-1.86-2.94-3.66-5.91-5.49-8.86l-5.39-8.91c-3.59-6-7.09-12-10.62-17.93s-7-12-10.36-18.08l-5.05-9.12-2.45-4.6A38.83,38.83,0,0,1,271.84,227.36Z" style="opacity: 0.2; isolation: isolate; transform-origin: 292.635px 263.45px;" class="animable"></path></g><g id="el1zp6zmdspjxj"><path d="M290.89,227.36a16.8,16.8,0,0,0,1.17,2.32l1.28,2.26,2.63,4.5,5.28,9,10.55,18,10.43,18,5.16,9,5.09,9.1c-1.86-2.94-3.66-5.91-5.49-8.86l-5.4-8.91c-3.58-6-7.08-12-10.61-17.93s-7-12-10.36-18.08l-5.05-9.12-2.45-4.6A38.83,38.83,0,0,1,290.89,227.36Z" style="opacity: 0.2; isolation: isolate; transform-origin: 311.685px 263.45px;" class="animable"></path></g><g id="ela0c5q2i7ws"><path d="M309.94,227.36a16.8,16.8,0,0,0,1.17,2.32l1.28,2.26,2.63,4.5,5.28,9,10.55,18,10.43,18,5.16,9,5.09,9.1c-1.86-2.94-3.66-5.91-5.49-8.86l-5.4-8.91c-3.58-6-7.08-12-10.61-17.93s-7-12-10.36-18.08l-5.05-9.12-2.45-4.6A38.83,38.83,0,0,1,309.94,227.36Z" style="opacity: 0.2; isolation: isolate; transform-origin: 330.735px 263.45px;" class="animable"></path></g><rect x="142.94" y="234.89" width="189.63" height="2.94" style="fill: rgb(38, 50, 56); transform-origin: 237.755px 236.36px;" id="el4jtt03a08qx" class="animable"></rect><g id="el2bcz7fagz0c"><rect x="142.94" y="234.89" width="2.85" height="2.85" style="fill: rgb(255, 255, 255); opacity: 0.2; isolation: isolate; transform-origin: 144.365px 236.315px;" class="animable"></rect></g><rect x="148.27" y="243.84" width="189.63" height="2.94" style="fill: rgb(38, 50, 56); transform-origin: 243.085px 245.31px;" id="elkdg814zpba" class="animable"></rect><g id="elshfcmxsi7et"><rect x="148.27" y="243.84" width="2.85" height="2.85" style="fill: rgb(255, 255, 255); opacity: 0.2; isolation: isolate; transform-origin: 149.695px 245.265px;" class="animable"></rect></g><rect x="153.59" y="252.79" width="189.63" height="2.94" style="fill: rgb(38, 50, 56); transform-origin: 248.405px 254.26px;" id="elteg0ml214x" class="animable"></rect><g id="elnl6ecc3imo"><rect x="153.59" y="252.79" width="2.85" height="2.85" style="fill: rgb(255, 255, 255); opacity: 0.2; isolation: isolate; transform-origin: 155.015px 254.215px;" class="animable"></rect></g><rect x="158.91" y="261.75" width="189.63" height="2.94" style="fill: rgb(38, 50, 56); transform-origin: 253.725px 263.22px;" id="elhg21gwf1jvo" class="animable"></rect><g id="el9igs3sq4i6u"><rect x="158.91" y="261.75" width="2.85" height="2.85" style="fill: rgb(255, 255, 255); opacity: 0.2; isolation: isolate; transform-origin: 160.335px 263.175px;" class="animable"></rect></g><rect x="164.23" y="270.7" width="189.63" height="2.94" style="fill: rgb(38, 50, 56); transform-origin: 259.045px 272.17px;" id="el5m6gcuiausd" class="animable"></rect><g id="ely51rh2wxwo"><rect x="164.23" y="270.7" width="2.85" height="2.85" style="fill: rgb(255, 255, 255); opacity: 0.2; isolation: isolate; transform-origin: 165.655px 272.125px;" class="animable"></rect></g><rect x="169.55" y="279.66" width="189.63" height="2.94" style="fill: rgb(38, 50, 56); transform-origin: 264.365px 281.13px;" id="elujlhxdtp9i" class="animable"></rect><g id="el6i7rpbrncb"><rect x="169.55" y="279.66" width="2.85" height="2.85" style="fill: rgb(255, 255, 255); opacity: 0.2; isolation: isolate; transform-origin: 170.975px 281.085px;" class="animable"></rect></g><rect x="174.87" y="288.61" width="189.63" height="2.94" style="fill: rgb(38, 50, 56); transform-origin: 269.685px 290.08px;" id="eldv8mri02moj" class="animable"></rect><g id="elb6v501pbux"><rect x="174.87" y="288.61" width="2.85" height="2.85" style="fill: rgb(255, 255, 255); opacity: 0.2; isolation: isolate; transform-origin: 176.295px 290.035px;" class="animable"></rect></g><rect x="174.22" y="298.3" width="198.18" height="2.94" style="fill: rgb(38, 50, 56); transform-origin: 273.31px 299.77px;" id="elw1u6zb4rjur" class="animable"></rect><g id="elqxhkvzns7eb"><rect x="174.22" y="298.3" width="2.85" height="2.85" style="fill: rgb(255, 255, 255); opacity: 0.2; isolation: isolate; transform-origin: 175.645px 299.725px;" class="animable"></rect></g><polygon points="431.7 319.37 241.51 319.37 179.65 299.39 369.85 299.39 431.7 319.37" style="fill: rgb(38, 50, 56); transform-origin: 305.675px 309.38px;" id="el5s7bh82hxru" class="animable"></polygon></g><defs>     <filter id="active" height="200%">         <feMorphology in="SourceAlpha" result="DILATED" operator="dilate" radius="2"></feMorphology>                <feFlood flood-color="#32DFEC" flood-opacity="1" result="PINK"></feFlood>        <feComposite in="PINK" in2="DILATED" operator="in" result="OUTLINE"></feComposite>        <feMerge>            <feMergeNode in="OUTLINE"></feMergeNode>            <feMergeNode in="SourceGraphic"></feMergeNode>        </feMerge>    </filter>    <filter id="hover" height="200%">        <feMorphology in="SourceAlpha" result="DILATED" operator="dilate" radius="2"></feMorphology>                <feFlood flood-color="#ff0000" flood-opacity="0.5" result="PINK"></feFlood>        <feComposite in="PINK" in2="DILATED" operator="in" result="OUTLINE"></feComposite>        <feMerge>            <feMergeNode in="OUTLINE"></feMergeNode>            <feMergeNode in="SourceGraphic"></feMergeNode>        </feMerge>            <feColorMatrix type="matrix" values="0   0   0   0   0                0   1   0   0   0                0   0   0   0   0                0   0   0   1   0 "></feColorMatrix>    </filter></defs></svg>
